{
.formatVersion = 3;
axes = (
{
name = Weight;
tag = wght;
}
);
familyName = "Pixelify Sans";
customParameters = (
{
name = glyphOrder;
value = (
.notdef,
B,
C,
D,
E,
F,
G,
H,
I,
J,
K,
L,
M,
N,
O,
P,
R,
U,
T,
V,
W,
Y,
Z,
Q,
germandbls,
a,
b,
d,
e,
h,
g,
i,
j,
k,
l,
m,
n,
o,
p,
q,
r,
t,
s,
u,
v,
w,
z,
space,
zero,
one,
two,
three,
four,
six,
seven,
eight,
nine,
S,
five,
equal,
exclam,
quotedbl,
numbersign,
dollar,
percent,
ampersand,
parenleft,
asterisk,
plus,
hyphen,
slash,
parenright,
backslash,
quotesingle,
comma,
period,
colon,
semicolon,
question,
at,
less,
greater,
bracketleft,
bracketright,
asciicircum,
underscore,
grave,
braceleft,
braceright,
bar,
asciitilde,
Euro,
section,
copyright,
minus,
currency,
exclamdown,
questiondown,
sterling,
yen,
quotedblright,
quotedblleft,
quoteright,
quoteleft,
dagger,
quotesinglbase,
quotedblbase,
guilsinglleft,
guilsinglright,
bullet,
periodcentered,
endash,
emdash,
trademark,
registered,
plusminus,
ellipsis,
multiply,
divide,
degree,
guillemotright,
guillemotleft,
mu,
logicalnot,
paragraph,
Thorn,
thorn,
oslash,
Eth,
eth,
AE,
ae,
OE,
oe,
onequarter,
onehalf,
threequarters,
onesuperior,
twosuperior,
threesuperior,
foursuperior,
fivesuperior,
sixsuperior,
sevensuperior,
eightsuperior,
ninesuperior,
zerosuperior,
exclamdbl,
Hbar,
Tbar,
zeroinferior,
oneinferior,
twoinferior,
threeinferior,
fourinferior,
fiveinferior,
sixinferior,
seveninferior,
eightinferior,
nineinferior,
onethird,
twothirds,
oneeighth,
threeeighths,
fiveeighths,
seveneighths,
cent,
peseta,
lira,
colonmonetary,
eng,
Eng,
Aacute,
Abreve,
Acircumflex,
Agrave,
Adieresis,
Amacron,
Aring,
Atilde,
AEacute,
Ccedilla,
Cacute,
Ccaron,
Ccircumflex,
Cdotaccent,
Dcaron,
Dcroat,
Eacute,
Ebreve,
Ecaron,
Ecircumflex,
Edieresis,
Edotaccent,
Egrave,
Emacron,
Eogonek,
Aogonek,
Gbreve,
Gcircumflex,
Gcommaaccent,
Gdotaccent,
Hcircumflex,
Iacute,
Ibreve,
Icircumflex,
Idieresis,
Idotaccent,
Igrave,
Imacron,
Iogonek,
Itilde,
Jcircumflex,
Kcommaaccent,
Lacute,
Lcaron,

glyphs = (
{
glyphname = B;
layers = (
{
layerId = "2AAD9DA5-3897-4AC6-A4F9-A78ECEDC2410";
name = img;
width = 603;
},
{
layerId = "50F7179F-C30E-4DB1-9C2F-C70FE433AA29";
shapes = (
{
closed = 1;
nodes = (
(61,74,l),
(149,74,l),
(149,-11,l),
(453,-11,l),
(453,74,l),
(542,74,l),
(542,297,l),
(453,297,l),
(453,331,l),
(542,331,l),
(542,552,l),
(453,552,l),
(453,638,l),
(149,638,l),
(149,552,l),
(61,552,l)
);
},
{
closed = 1;
nodes = (
(188,125,l),
(188,501,l),
(414,501,l),
(414,381,l),
(237,381,l),
(237,246,l),
(414,246,l),
(414,125,l)
);
}
);
width = 603;
},
{
layerId = "1F4A5B8F-71A6-4186-92A0-28F5C6507669";
shapes = (
{
closed = 1;
nodes = (
(60,78,l),
(151,78,l),
(151,-12,l),
(433,-12,l),
(433,78,l),
(525,78,l),
(525,270,l),
(433,270,l),
(433,350,l),
(525,350,l),
(525,540,l),
(433,540,l),
(433,631,l),
(151,631,l),
(151,540,l),
(60,540,l)
);
},
{
closed = 1;
nodes = (
(161,88,l),
(161,530,l),
(423,530,l),
(423,359,l),
(241,359,l),
(241,260,l),
(423,260,l),
(423,88,l)
);
}
);
width = 586;
}
);
leftKerningGroup = _B;
rightKerningGroup = _B1;
unicode = 66;
},
{
glyphname = C;
layers = (
{
layerId = "2AAD9DA5-3897-4AC6-A4F9-A78ECEDC2410";
name = img;
width = 603;
},
{
layerId = "50F7179F-C30E-4DB1-9C2F-C70FE433AA29";
shapes = (
{
closed = 1;
nodes = (
(61,74,l),
(149,74,l),
(149,-11,l),
(453,-11,l),
(453,74,l),
(542,74,l),
(542,297,l),
(414,297,l),
(414,125,l),
(188,125,l),
(188,501,l),
(414,501,l),
(414,331,l),
(542,331,l),
(542,552,l),
(453,552,l),
(453,638,l),
(149,638,l),
(149,552,l),
(61,552,l)
);
}
);
width = 603;
},
{
layerId = "1F4A5B8F-71A6-4186-92A0-28F5C6507669";
shapes = (
{
closed = 1;
nodes = (
(60,78,l),
(151,78,l),
(151,-12,l),
(433,-12,l),
(433,78,l),
(525,78,l),
(525,270,l),
(423,270,l),
(423,88,l),
(161,88,l),
(161,530,l),
(423,530,l),
(423,350,l),
(525,350,l),
(525,540,l),
(433,540,l),
(433,631,l),
(151,631,l),
(151,540,l),
(60,540,l)
);
}
);
width = 586;
}
);
leftKerningGroup = _B;
rightKerningGroup = _C;
unicode = 67;
},
{
glyphname = D;
layers = (
{
layerId = "2AAD9DA5-3897-4AC6-A4F9-A78ECEDC2410";
name = img;
width = 603;
},
{
layerId = "50F7179F-C30E-4DB1-9C2F-C70FE433AA29";
shapes = (
{
closed = 1;
nodes = (
(61,-11,l),
(365,-11,l),
(365,74,l),
(453,74,l),
(453,160,l),
(542,160,l),
(542,467,l),
(453,467,l),
(453,552,l),
(365,552,l),
(365,638,l),
(61,638,l)
);
},
{
closed = 1;
nodes = (
(188,125,l),
(188,501,l),
(326,501,l),
(326,416,l),
(414,416,l),
(414,211,l),
(326,211,l),
(326,125,l)
);
}
);
width = 603;
},
{
layerId = "1F4A5B8F-71A6-4186-92A0-28F5C6507669";
shapes = (
{
closed = 1;
nodes = (
(60,-12,l),
(343,-12,l),
(343,78,l),
(433,78,l),
(433,169,l),
(525,169,l),
(525,450,l),
(433,450,l),
(433,540,l),
(343,540,l),
(343,631,l),
(60,631,l)
);
},
{
closed = 1;
nodes = (
(161,88,l),
(161,530,l),
(333,530,l),
(333,440,l),
(423,440,l),
(423,179,l),
(333,179,l),
(333,88,l)
);
}
);
width = 586;
}
);
leftKerningGroup = _D;
rightKerningGroup = _D1;
unicode = 68;
},
{
glyphname = E;
layers = (
{
layerId = "2AAD9DA5-3897-4AC6-A4F9-A78ECEDC2410";
name = img;
width = 603;
},
{
layerId = "50F7179F-C30E-4DB1-9C2F-C70FE433AA29";
shapes = (
{
closed = 1;
nodes = (
(61,74,l),
(149,74,l),
(149,-11,l),
(453,-11,l),
(453,74,l),
(542,74,l),
(542,211,l),
(414,211,l),
(414,125,l),
(188,125,l),
(188,246,l),
(365,246,l),
(365,381,l),
(188,381,l),
(188,501,l),
(414,501,l),
(414,416,l),
(542,416,l),
(542,552,l),
(453,552,l),
(453,638,l),
(149,638,l),
(149,552,l),
(61,552,l)
);
}
);
width = 603;
},
{
layerId = "1F4A5B8F-71A6-4186-92A0-28F5C6507669";
shapes = (
{
closed = 1;
nodes = (
(60,78,l),
(151,78,l),
(151,-12,l),
(433,-12,l),
(433,78,l),
(525,78,l),
(525,179,l),
(423,179,l),
(423,88,l),
(161,88,l),
(161,260,l),
(343,260,l),
(343,359,l),
(161,359,l),
(161,530,l),
(423,530,l),
(423,440,l),
(525,440,l),
(525,540,l),
(433,540,l),
(433,631,l),
(151,631,l),
(151,540,l),
(60,540,l)
);
}
);
width = 586;
}
);
leftKerningGroup = _B;
rightKerningGroup = _E;
unicode = 69;
},
{
glyphname = F;
layers = (
{
layerId = "2AAD9DA5-3897-4AC6-A4F9-A78ECEDC2410";
name = img;
width = 603;
},
{
layerId = "50F7179F-C30E-4DB1-9C2F-C70FE433AA29";
shapes = (
{
closed = 1;
nodes = (
(61,-11,l),
(188,-11,l),
(188,246,l),
(365,246,l),
(365,381,l),
(188,381,l),
(188,501,l),
(414,501,l),
(414,416,l),
(542,416,l),
(542,552,l),
(453,552,l),
(453,638,l),
(61,638,l)
);
}
);
width = 603;
},
{
layerId = "1F4A5B8F-71A6-4186-92A0-28F5C6507669";
shapes = (
{
closed = 1;
nodes = (
(60,-12,l),
(161,-12,l),
(161,260,l),
(343,260,l),
(343,359,l),
(161,359,l),
(161,530,l),
(423,530,l),
(423,440,l),
(525,440,l),
(525,540,l),
(433,540,l),
(433,631,l),
(60,631,l)
);
}
);
width = 586;
}
);
leftKerningGroup = _D;
unicode = 70;
},
{
glyphname = G;
layers = (
{
layerId = "2AAD9DA5-3897-4AC6-A4F9-A78ECEDC2410";
name = img;
width = 603;
},
{
layerId = "50F7179F-C30E-4DB1-9C2F-C70FE433AA29";
shapes = (
{
closed = 1;
nodes = (
(61,74,l),
(149,74,l),
(149,-11,l),
(453,-11,l),
(453,74,l),
(542,74,l),
(542,297,l),
(365,297,l),
(365,381,l),
(237,381,l),
(237,246,l),
(326,246,l),
(326,160,l),
(414,160,l),
(414,125,l),
(188,125,l),
(188,501,l),
(414,501,l),
(414,331,l),
(542,331,l),
(542,552,l),
(453,552,l),
(453,638,l),
(149,638,l),
(149,552,l),
(61,552,l)
);
}
);
width = 603;
},
{
layerId = "1F4A5B8F-71A6-4186-92A0-28F5C6507669";
shapes = (
{
closed = 1;
nodes = (
(60,78,l),
(151,78,l),
(151,-12,l),
(433,-12,l),
(433,78,l),
(525,78,l),
(525,270,l),
(343,270,l),
(343,359,l),
(241,359,l),
(241,260,l),
(333,260,l),
(333,169,l),
(423,169,l),
(423,88,l),
(161,88,l),
(161,530,l),
(423,530,l),
(423,350,l),
(525,350,l),
(525,540,l),
(433,540,l),
(433,631,l),
(151,631,l),
(151,540,l),
(60,540,l)
);
}
);
width = 586;
}
);
leftKerningGroup = _B;
rightKerningGroup = _G;
unicode = 71;
},
{
glyphname = H;
layers = (
{
layerId = "2AAD9DA5-3897-4AC6-A4F9-A78ECEDC2410";
name = img;
width = 603;
},
{
layerId = "50F7179F-C30E-4DB1-9C2F-C70FE433AA29";
shapes = (
{
closed = 1;
nodes = (
(61,-11,l),
(188,-11,l),
(188,246,l),
(414,246,l),
(414,-11,l),
(542,-11,l),
(542,638,l),
(414,638,l),
(414,381,l),
(365,381,l),
(365,467,l),
(237,467,l),
(237,381,l),
(188,381,l),
(188,638,l),
(61,638,l)
);
}
);
width = 603;
},
{
layerId = "1F4A5B8F-71A6-4186-92A0-28F5C6507669";
shapes = (
{
closed = 1;
nodes = (
(60,-12,l),
(161,-12,l),
(161,260,l),
(423,260,l),
(423,-12,l),
(525,-12,l),
(525,631,l),
(423,631,l),
(423,359,l),
(343,359,l),
(343,450,l),
(241,450,l),
(241,359,l),
(161,359,l),
(161,631,l),
(60,631,l)
);
}
);
width = 586;
}
);
leftKerningGroup = _D;
rightKerningGroup = _H;
unicode = 72;
},
{
glyphname = I;
layers = (
{
layerId = "2AAD9DA5-3897-4AC6-A4F9-A78ECEDC2410";
name = img;
width = 426;
},
{
layerId = "50F7179F-C30E-4DB1-9C2F-C70FE433AA29";
shapes = (
{
closed = 1;
nodes = (
(61,-11,l),
(365,-11,l),
(365,125,l),
(276,125,l),
(276,501,l),
(365,501,l),
(365,638,l),
(61,638,l),
(61,501,l),
(149,501,l),
(149,125,l),
(61,125,l)
);
}
);
width = 426;
},
{
layerId = "1F4A5B8F-71A6-4186-92A0-28F5C6507669";
shapes = (
{
closed = 1;
nodes = (
(60,-12,l),
(343,-12,l),
(343,88,l),
(251,88,l),
(251,530,l),
(343,530,l),
(343,631,l),
(60,631,l),
(60,530,l),
(151,530,l),
(151,88,l),
(60,88,l)
);
}
);
width = 404;
}
);
leftKerningGroup = _I;
rightKerningGroup = _I;
unicode = 73;
},
{
glyphname = J;
layers = (
{
layerId = "2AAD9DA5-3897-4AC6-A4F9-A78ECEDC2410";
name = img;
width = 603;
},
{
layerId = "50F7179F-C30E-4DB1-9C2F-C70FE433AA29";
shapes = (
{
closed = 1;
nodes = (
(61,74,l),
(149,74,l),
(149,-11,l),
(453,-11,l),
(453,74,l),
(542,74,l),
(542,552,l),
(453,552,l),
(453,638,l),
(149,638,l),
(149,501,l),
(414,501,l),
(414,125,l),
(188,125,l),
(188,297,l),
(61,297,l)
);
}
);
width = 603;
},
{
layerId = "1F4A5B8F-71A6-4186-92A0-28F5C6507669";
shapes = (
{
closed = 1;
nodes = (
(60,78,l),
(151,78,l),
(151,-12,l),
(433,-12,l),
(433,78,l),
(525,78,l),
(525,540,l),
(433,540,l),
(433,631,l),
(151,631,l),
(151,530,l),
(423,530,l),
(423,88,l),
(161,88,l),
(161,270,l),
(60,270,l)
);
}
);
width = 586;
}
);
rightKerningGroup = _J;
unicode = 74;
},
{
glyphname = K;
layers = (
{
layerId = "2AAD9DA5-3897-4AC6-A4F9-A78ECEDC2410";
name = img;
width = 603;
},
{
layerId = "50F7179F-C30E-4DB1-9C2F-C70FE433AA29";
shapes = (
{
closed = 1;
nodes = (
(61,-11,l),
(188,-11,l),
(188,246,l),
(237,246,l),
(237,160,l),
(326,160,l),
(326,74,l),
(414,74,l),
(414,-11,l),
(542,-11,l),
(542,125,l),
(453,125,l),
(453,211,l),
(365,211,l),
(365,297,l),
(276,297,l),
(276,331,l),
(365,331,l),
(365,416,l),
(453,416,l),
(453,501,l),
(542,501,l),
(542,638,l),
(414,638,l),
(414,552,l),
(326,552,l),
(326,467,l),
(237,467,l),
(237,381,l),
(188,381,l),
(188,501,l),
(276,501,l),
(276,638,l),
(149,638,l),
(149,552,l),
(61,552,l)
);
}
);
width = 603;
},
{
layerId = "1F4A5B8F-71A6-4186-92A0-28F5C6507669";
shapes = (
{
closed = 1;
nodes = (
(60,-12,l),
(161,-12,l),
(161,260,l),
(241,260,l),
(241,169,l),
(333,169,l),
(333,78,l),
(423,78,l),
(423,-12,l),
(525,-12,l),
(525,88,l),
(433,88,l),
(433,179,l),
(343,179,l),
(343,270,l),
(251,270,l),
(251,350,l),
(343,350,l),
(343,440,l),
(433,440,l),
(433,530,l),
(525,530,l),
(525,631,l),
(423,631,l),
(423,540,l),
(333,540,l),
(333,450,l),
(241,450,l),
(241,359,l),
(161,359,l),
(161,530,l),
(251,530,l),
(251,631,l),
(151,631,l),
(151,540,l),
(60,540,l)
);
}
);
width = 586;
}
);
leftKerningGroup = _K;
rightKerningGroup = _K1;
unicode = 75;
},
{
glyphname = L;
layers = (
{
layerId = "2AAD9DA5-3897-4AC6-A4F9-A78ECEDC2410";
name = img;
width = 603;
},
{
layerId = "50F7179F-C30E-4DB1-9C2F-C70FE433AA29";
shapes = (
{
closed = 1;
nodes = (
(61,74,l),
(149,74,l),
(149,-11,l),
(453,-11,l),
(453,74,l),
(542,74,l),
(542,211,l),
(414,211,l),
(414,125,l),
(188,125,l),
(188,638,l),
(61,638,l)
);
}
);
width = 603;
},
{
layerId = "1F4A5B8F-71A6-4186-92A0-28F5C6507669";
shapes = (
{
closed = 1;
nodes = (
(60,78,l),
(151,78,l),
(151,-12,l),
(433,-12,l),
(433,78,l),
(525,78,l),
(525,179,l),
(423,179,l),
(423,88,l),
(161,88,l),
(161,631,l),
(60,631,l)
);
}
);
width = 586;
}
);
leftKerningGroup = _L;
rightKerningGroup = _L1;
unicode = 76;
},
{
glyphname = M;
layers = (
{
layerId = "2AAD9DA5-3897-4AC6-A4F9-A78ECEDC2410";
name = img;
width = 779;
},
{
layerId = "50F7179F-C30E-4DB1-9C2F-C70FE433AA29";
shapes = (
{
closed = 1;
nodes = (
(61,-11,l),
(188,-11,l),
(188,501,l),
(237,501,l),
(237,331,l),
(326,331,l),
(326,74,l),
(453,74,l),
(453,331,l),
(542,331,l),
(542,501,l),
(592,501,l),
(592,-11,l),
(718,-11,l),
(718,552,l),
(631,552,l),
(631,638,l),
(503,638,l),
(503,552,l),
(414,552,l),
(414,381,l),
(365,381,l),
(365,552,l),
(276,552,l),
(276,638,l),
(149,638,l),
(149,552,l),
(61,552,l)
);
}
);
width = 779;
},
{
layerId = "1F4A5B8F-71A6-4186-92A0-28F5C6507669";
shapes = (
{
closed = 1;
nodes = (
(60,-12,l),
(161,-12,l),
(161,530,l),
(241,530,l),
(241,350,l),
(333,350,l),
(333,78,l),
(433,78,l),
(433,350,l),
(525,350,l),
(525,530,l),
(606,530,l),
(606,-12,l),
(706,-12,l),
(706,540,l),
(616,540,l),
(616,631,l),
(515,631,l),
(515,540,l),
(423,540,l),
(423,359,l),
(343,359,l),
(343,540,l),
(251,540,l),
(251,631,l),
(151,631,l),
(151,540,l),
(60,540,l)
);
}
);
width = 767;
}
);
leftKerningGroup = _K;
rightKerningGroup = _M;
unicode = 77;
},
{
glyphname = N;
leftMetricsKey = H;
rightMetricsKey = H;
layers = (
{
layerId = "2AAD9DA5-3897-4AC6-A4F9-A78ECEDC2410";
name = img;
width = 603;
},
{
layerId = "50F7179F-C30E-4DB1-9C2F-C70FE433AA29";
shapes = (
{
closed = 1;
nodes = (
(61,-11,l),
(188,-11,l),
(188,416,l),
(237,416,l),
(237,160,l),
(326,160,l),
(326,74,l),
(414,74,l),
(414,-11,l),
(542,-11,l),
(542,638,l),
(414,638,l),
(414,211,l),
(365,211,l),
(365,467,l),
(276,467,l),
(276,552,l),
(188,552,l),
(188,638,l),
(61,638,l)
);
}
);
width = 603;
},
{
layerId = "1F4A5B8F-71A6-4186-92A0-28F5C6507669";
shapes = (
{
closed = 1;
nodes = (
(60,-12,l),
(161,-12,l),
(161,440,l),
(241,440,l),
(241,169,l),
(333,169,l),
(333,78,l),
(423,78,l),
(423,-12,l),
(525,-12,l),
(525,631,l),
(423,631,l),
(423,179,l),
(343,179,l),
(343,450,l),
(251,450,l),
(251,540,l),
(161,540,l),
(161,631,l),
(60,631,l)
);
}
);
width = 586;
}
);
leftKerningGroup = _D;
rightKerningGroup = _H;
unicode = 78;
},
{
glyphname = O;
layers = (
{
layerId = "2AAD9DA5-3897-4AC6-A4F9-A78ECEDC2410";
name = img;
width = 603;
},
{
layerId = "50F7179F-C30E-4DB1-9C2F-C70FE433AA29";
shapes = (
{
closed = 1;
nodes = (
(61,74,l),
(61,552,l),
(149,552,l),
(149,638,l),
(453,638,l),
(453,552,l),
(542,552,l),
(542,74,l),
(453,74,l),
(453,-11,l),
(149,-11,l),
(149,74,l)
);
},
{
closed = 1;
nodes = (
(188,125,l),
(414,125,l),
(414,501,l),
(188,501,l)
);
}
);
width = 603;
},
{
layerId = "1F4A5B8F-71A6-4186-92A0-28F5C6507669";
shapes = (
{
closed = 1;
nodes = (
(60,78,l),
(60,540,l),
(151,540,l),
(151,631,l),
(433,631,l),
(433,540,l),
(525,540,l),
(525,78,l),
(433,78,l),
(433,-12,l),
(151,-12,l),
(151,78,l)
);
},
{
closed = 1;
nodes = (
(161,88,l),
(423,88,l),
(423,530,l),
(161,530,l)
);
}
);
width = 586;
}
);
leftKerningGroup = _B;
rightKerningGroup = _J;
unicode = 79;
},
{
glyphname = P;
layers = (
{
layerId = "2AAD9DA5-3897-4AC6-A4F9-A78ECEDC2410";
name = img;
width = 603;
},
{
layerId = "50F7179F-C30E-4DB1-9C2F-C70FE433AA29";
shapes = (
{
closed = 1;
nodes = (
(61,-11,l),
(188,-11,l),
(188,160,l),
(453,160,l),
(453,246,l),
(542,246,l),
(542,552,l),
(453,552,l),
(453,638,l),
(149,638,l),
(149,552,l),
(61,552,l)
);
},
{
closed = 1;
nodes = (
(188,297,l),
(188,501,l),
(414,501,l),
(414,297,l)
);
}
);
width = 603;
},
{
layerId = "1F4A5B8F-71A6-4186-92A0-28F5C6507669";
shapes = (
{
closed = 1;
nodes = (
(60,-12,l),
(161,-12,l),
(161,169,l),
(433,169,l),
(433,260,l),
(525,260,l),
(525,540,l),
(433,540,l),
(433,631,l),
(151,631,l),
(151,540,l),
(60,540,l)
);
},
{
closed = 1;
nodes = (
(161,270,l),
(161,530,l),
(423,530,l),
(423,270,l)
);
}
);
width = 586;
}
);
leftKerningGroup = _K;
unicode = 80;
},
{
glyphname = R;
layers = (
{
layerId = "2AAD9DA5-3897-4AC6-A4F9-A78ECEDC2410";
name = img;
width = 603;
},
{
layerId = "50F7179F-C30E-4DB1-9C2F-C70FE433AA29";
shapes = (
{
closed = 1;
nodes = (
(61,-11,l),
(188,-11,l),
(188,160,l),
(281,160,l),
(281,74,l),
(371,74,l),
(371,-11,l),
(497,-11,l),
(497,125,l),
(410,125,l),
(410,160,l),
(453,160,l),
(453,246,l),
(542,246,l),
(542,552,l),
(453,552,l),
(453,638,l),
(149,638,l),
(149,552,l),
(61,552,l)
);
},
{
closed = 1;
nodes = (
(188,297,l),
(188,501,l),
(414,501,l),
(414,297,l)
);
}
);
width = 603;
},
{
layerId = "1F4A5B8F-71A6-4186-92A0-28F5C6507669";
shapes = (
{
closed = 1;
nodes = (
(60,-12,l),
(161,-12,l),
(161,169,l),
(287,169,l),
(287,78,l),
(379,78,l),
(379,-12,l),
(479,-12,l),
(479,88,l),
(389,88,l),
(389,169,l),
(433,169,l),
(433,260,l),
(525,260,l),
(525,540,l),
(433,540,l),
(433,631,l),
(151,631,l),
(151,540,l),
(60,540,l)
);
},
{
closed = 1;
nodes = (
(161,270,l),
(161,530,l),
(423,530,l),
(423,270,l)
);
}
);
width = 586;
}
);
leftKerningGroup = _K;
rightKerningGroup = _R;
unicode = 82;
},
{
glyphname = U;
layers = (
{
layerId = "2AAD9DA5-3897-4AC6-A4F9-A78ECEDC2410";
name = img;
width = 603;
},
{
layerId = "50F7179F-C30E-4DB1-9C2F-C70FE433AA29";
shapes = (
{
closed = 1;
nodes = (
(61,74,l),
(149,74,l),
(149,-11,l),
(453,-11,l),
(453,74,l),
(542,74,l),
(542,638,l),
(414,638,l),
(414,125,l),
(188,125,l),
(188,638,l),
(61,638,l)
);
}
);
width = 603;
},
{
layerId = "1F4A5B8F-71A6-4186-92A0-28F5C6507669";
shapes = (
{
closed = 1;
nodes = (
(60,78,l),
(151,78,l),
(151,-12,l),
(433,-12,l),
(433,78,l),
(525,78,l),
(525,631,l),
(423,631,l),
(423,88,l),
(161,88,l),
(161,631,l),
(60,631,l)
);
}
);
width = 586;
}
);
leftKerningGroup = _L;
rightKerningGroup = _U;
unicode = 85;
},
{
glyphname = T;
layers = (
{
layerId = "2AAD9DA5-3897-4AC6-A4F9-A78ECEDC2410";
name = img;
width = 603;
},
{
layerId = "50F7179F-C30E-4DB1-9C2F-C70FE433AA29";
shapes = (
{
closed = 1;
nodes = (
(237,-11,l),
(365,-11,l),
(365,501,l),
(414,501,l),
(414,416,l),
(542,416,l),
(542,552,l),
(453,552,l),
(453,638,l),
(149,638,l),
(149,552,l),
(61,552,l),
(61,416,l),
(188,416,l),
(188,501,l),
(237,501,l)
);
}
);
width = 603;
},
{
layerId = "1F4A5B8F-71A6-4186-92A0-28F5C6507669";
shapes = (
{
closed = 1;
nodes = (
(241,-12,l),
(343,-12,l),
(343,530,l),
(423,530,l),
(423,440,l),
(525,440,l),
(525,540,l),
(433,540,l),
(433,631,l),
(151,631,l),
(151,540,l),
(60,540,l),
(60,440,l),
(161,440,l),
(161,530,l),
(241,530,l)
);
}
);
width = 586;
}
);
leftKerningGroup = _T;
rightKerningGroup = _T1;
unicode = 84;
},
{
glyphname = V;
layers = (
{
layerId = "2AAD9DA5-3897-4AC6-A4F9-A78ECEDC2410";
name = img;
width = 603;
},
{
layerId = "50F7179F-C30E-4DB1-9C2F-C70FE433AA29";
shapes = (
{
closed = 1;
nodes = (
(149,74,l),
(237,74,l),
(237,-11,l),
(365,-11,l),
(365,74,l),
(453,74,l),
(453,246,l),
(542,246,l),
(542,638,l),
(414,638,l),
(414,297,l),
(326,297,l),
(326,125,l),
(276,125,l),
(276,297,l),
(188,297,l),
(188,638,l),
(61,638,l),
(61,246,l),
(149,246,l)
);
}
);
width = 603;
},
{
layerId = "1F4A5B8F-71A6-4186-92A0-28F5C6507669";
shapes = (
{
closed = 1;
nodes = (
(151,78,l),
(241,78,l),
(241,-12,l),
(343,-12,l),
(343,78,l),
(433,78,l),
(433,260,l),
(525,260,l),
(525,631,l),
(423,631,l),
(423,270,l),
(333,270,l),
(333,88,l),
(251,88,l),
(251,270,l),
(161,270,l),
(161,631,l),
(60,631,l),
(60,260,l),
(151,260,l)
);
}
);
width = 586;
}
);
unicode = 86;
},
{
glyphname = W;
leftMetricsKey = U;
rightMetricsKey = U;
layers = (
{
layerId = "2AAD9DA5-3897-4AC6-A4F9-A78ECEDC2410";
name = img;
width = 603;
},
{
layerId = "50F7179F-C30E-4DB1-9C2F-C70FE433AA29";
shapes = (
{
closed = 1;
nodes = (
(61,74,l),
(149,74,l),
(149,-11,l),
(276,-11,l),
(276,74,l),
(365,74,l),
(365,246,l),
(414,246,l),
(414,74,l),
(503,74,l),
(503,-11,l),
(631,-11,l),
(631,74,l),
(718,74,l),
(718,638,l),
(592,638,l),
(592,125,l),
(542,125,l),
(542,297,l),
(453,297,l),
(453,552,l),
(326,552,l),
(326,297,l),
(237,297,l),
(237,125,l),
(188,125,l),
(188,638,l),
(61,638,l)
);
}
);
width = 779;
},
{
layerId = "1F4A5B8F-71A6-4186-92A0-28F5C6507669";
shapes = (
{
closed = 1;
nodes = (
(60,78,l),
(151,78,l),
(151,-12,l),
(251,-12,l),
(251,78,l),
(343,78,l),
(343,260,l),
(423,260,l),
(423,78,l),
(515,78,l),
(515,-12,l),
(616,-12,l),
(616,78,l),
(706,78,l),
(706,631,l),
(606,631,l),
(606,88,l),
(525,88,l),
(525,270,l),
(433,270,l),
(433,540,l),
(333,540,l),
(333,270,l),
(241,270,l),
(241,88,l),
(161,88,l),
(161,631,l),
(60,631,l)
);
}
);
width = 767;
}
);
leftKerningGroup = _L;
rightKerningGroup = _U;
unicode = 87;
},
{
glyphname = Y;
layers = (
{
layerId = "2AAD9DA5-3897-4AC6-A4F9-A78ECEDC2410";
name = img;
width = 603;
},
{
layerId = "50F7179F-C30E-4DB1-9C2F-C70FE433AA29";
shapes = (
{
closed = 1;
nodes = (
(237,-11,l),
(365,-11,l),
(365,331,l),
(453,331,l),
(453,416,l),
(542,416,l),
(542,638,l),
(414,638,l),
(414,467,l),
(326,467,l),
(326,381,l),
(276,381,l),
(276,467,l),
(188,467,l),
(188,638,l),
(61,638,l),
(61,416,l),
(149,416,l),
(149,331,l),
(237,331,l)
);
}
);
width = 603;
},
{
layerId = "1F4A5B8F-71A6-4186-92A0-28F5C6507669";
shapes = (
{
closed = 1;
nodes = (
(241,-12,l),
(343,-12,l),
(343,350,l),
(433,350,l),
(433,440,l),
(525,440,l),
(525,631,l),
(423,631,l),
(423,450,l),
(333,450,l),
(333,359,l),
(251,359,l),
(251,450,l),
(161,450,l),
(161,631,l),
(60,631,l),
(60,440,l),
(151,440,l),
(151,350,l),
(241,350,l)
);
}
);
width = 586;
}
);
unicode = 89;
},
{
glyphname = Z;
layers = (
{
layerId = "2AAD9DA5-3897-4AC6-A4F9-A78ECEDC2410";
name = img;
width = 603;
},
{
layerId = "50F7179F-C30E-4DB1-9C2F-C70FE433AA29";
shapes = (
{
closed = 1;
nodes = (
(61,74,l),
(149,74,l),
(149,-11,l),
(542,-11,l),
(542,211,l),
(414,211,l),
(414,125,l),
(188,125,l),
(188,246,l),
(453,246,l),
(453,331,l),
(542,331,l),
(542,552,l),
(453,552,l),
(453,638,l),
(61,638,l),
(61,416,l),
(188,416,l),
(188,501,l),
(414,501,l),
(414,381,l),
(149,381,l),
(149,297,l),
(61,297,l)
);
}
);
width = 603;
},
{
layerId = "1F4A5B8F-71A6-4186-92A0-28F5C6507669";
shapes = (
{
closed = 1;
nodes = (
(60,78,l),
(151,78,l),
(151,-12,l),
(525,-12,l),
(525,179,l),
(423,179,l),
(423,88,l),
(161,88,l),
(161,260,l),
(433,260,l),
(433,350,l),
(525,350,l),
(525,540,l),
(433,540,l),
(433,631,l),
(60,631,l),
(60,440,l),
(161,440,l),
(161,530,l),
(423,530,l),
(423,359,l),
(151,359,l),
(151,270,l),
(60,270,l)
);
}
);
width = 586;
}
);
unicode = 90;
},
{
glyphname = Q;
leftMetricsKey = O;
widthMetricsKey = O;
layers = (
{
layerId = "2AAD9DA5-3897-4AC6-A4F9-A78ECEDC2410";
name = img;
width = 603;
},
{
layerId = "50F7179F-C30E-4DB1-9C2F-C70FE433AA29";
shapes = (
{
closed = 1;
nodes = (
(149,-11,l),
(237,-11,l),
(237,-97,l),
(326,-97,l),
(326,-181,l),
(453,-181,l),
(453,-46,l),
(365,-46,l),
(365,-11,l),
(453,-11,l),
(453,74,l),
(542,74,l),
(542,552,l),
(453,552,l),
(453,638,l),
(149,638,l),
(149,552,l),
(61,552,l),
(61,74,l),
(149,74,l)
);
},
{
closed = 1;
nodes = (
(188,125,l),
(188,501,l),
(414,501,l),
(414,125,l)
);
}
);
width = 603;
},
{
layerId = "1F4A5B8F-71A6-4186-92A0-28F5C6507669";
shapes = (
{
closed = 1;
nodes = (
(151,-12,l),
(241,-12,l),
(241,-103,l),
(333,-103,l),
(333,-192,l),
(433,-192,l),
(433,-93,l),
(343,-93,l),
(343,-12,l),
(433,-12,l),
(433,78,l),
(525,78,l),
(525,540,l),
(433,540,l),
(433,631,l),
(151,631,l),
(151,540,l),
(60,540,l),
(60,78,l),
(151,78,l)
);
},
{
closed = 1;
nodes = (
(161,88,l),
(161,530,l),
(423,530,l),
(423,88,l)
);
}
);
width = 586;
}
);
leftKerningGroup = _B;
rightKerningGroup = _J;
unicode = 81;
},
{
glyphname = germandbls;
layers = (
{
layerId = "2AAD9DA5-3897-4AC6-A4F9-A78ECEDC2410";
name = img;
width = 603;
},
{
layerId = "50F7179F-C30E-4DB1-9C2F-C70FE433AA29";
shapes = (
{
closed = 1;
nodes = (
(61,-11,l),
(188,-11,l),
(188,501,l),
(414,501,l),
(414,381,l),
(237,381,l),
(237,246,l),
(414,246,l),
(414,125,l),
(237,125,l),
(237,-11,l),
(453,-11,l),
(453,74,l),
(542,74,l),
(542,297,l),
(453,297,l),
(453,331,l),
(542,331,l),
(542,552,l),
(453,552,l),
(453,638,l),
(61,638,l)
);
}
);
width = 603;
},
{
layerId = "1F4A5B8F-71A6-4186-92A0-28F5C6507669";
shapes = (
{
closed = 1;
nodes = (
(60,-12,l),
(161,-12,l),
(161,530,l),
(423,530,l),
(423,359,l),
(241,359,l),
(241,260,l),
(423,260,l),
(423,88,l),
(241,88,l),
(241,-12,l),
(433,-12,l),
(433,78,l),
(525,78,l),
(525,270,l),
(433,270,l),
(433,350,l),
(525,350,l),
(525,540,l),
(433,540,l),
(433,631,l),
(60,631,l)
);
}
);
width = 586;
}
);
leftKerningGroup = _f;
unicode = 223;
},
{
glyphname = a;
layers = (
{
layerId = "2AAD9DA5-3897-4AC6-A4F9-A78ECEDC2410";
name = img;
width = 692;
},
{
layerId = "50F7179F-C30E-4DB1-9C2F-C70FE433AA29";
shapes = (
{
closed = 1;
nodes = (
(61,74,l),
(61,381,l),
(149,381,l),
(149,467,l),
(453,467,l),
(453,381,l),
(542,381,l),
(542,125,l),
(631,125,l),
(631,-11,l),
(503,-11,l),
(503,74,l),
(453,74,l),
(453,-11,l),
(149,-11,l),
(149,74,l)
);
},
{
closed = 1;
nodes = (
(188,125,l),
(414,125,l),
(414,331,l),
(188,331,l)
);
}
);
width = 692;
},
{
layerId = "1F4A5B8F-71A6-4186-92A0-28F5C6507669";
shapes = (
{
closed = 1;
nodes = (
(60,78,l),
(60,359,l),
(151,359,l),
(151,450,l),
(433,450,l),
(433,359,l),
(525,359,l),
(525,88,l),
(616,88,l),
(616,-12,l),
(515,-12,l),
(515,78,l),
(433,78,l),
(433,-12,l),
(151,-12,l),
(151,78,l)
);
},
{
closed = 1;
nodes = (
(161,88,l),
(423,88,l),
(423,350,l),
(161,350,l)
);
}
);
width = 677;
}
);
leftKerningGroup = _a;
rightKerningGroup = _a1;
unicode = 97;
},
{
glyphname = b;
layers = (
{
layerId = "2AAD9DA5-3897-4AC6-A4F9-A78ECEDC2410";
name = img;
width = 603;
},
{
layerId = "50F7179F-C30E-4DB1-9C2F-C70FE433AA29";
shapes = (
{
closed = 1;
nodes = (
(61,74,l),
(149,74,l),
(149,-11,l),
(453,-11,l),
(453,74,l),
(542,74,l),
(542,381,l),
(453,381,l),
(453,467,l),
(188,467,l),
(188,638,l),
(61,638,l)
);
},
{
closed = 1;
nodes = (
(188,125,l),
(188,331,l),
(414,331,l),
(414,125,l)
);
}
);
width = 603;
},
{
layerId = "1F4A5B8F-71A6-4186-92A0-28F5C6507669";
shapes = (
{
closed = 1;
nodes = (
(60,78,l),
(151,78,l),
(151,-12,l),
(433,-12,l),
(433,78,l),
(525,78,l),
(525,359,l),
(433,359,l),
(433,450,l),
(161,450,l),
(161,631,l),
(60,631,l)
);
},
{
closed = 1;
nodes = (
(161,88,l),
(161,350,l),
(423,350,l),
(423,88,l)
);
}
);
width = 586;
}
);
unicode = 98;
},
{
glyphname = d;
layers = (
{
layerId = "2AAD9DA5-3897-4AC6-A4F9-A78ECEDC2410";
name = img;
width = 603;
},
{
layerId = "50F7179F-C30E-4DB1-9C2F-C70FE433AA29";
shapes = (
{
closed = 1;
nodes = (
(149,-11,l),
(453,-11,l),
(453,74,l),
(542,74,l),
(543,638,l),
(415,638,l),
(415,467,l),
(149,467,l),
(149,381,l),
(61,381,l),
(61,75,l),
(149,74,l)
);
},
{
closed = 1;
nodes = (
(188,125,l),
(188,331,l),
(415,331,l),
(414,125,l)
);
}
);
width = 603;
},
{
layerId = "1F4A5B8F-71A6-4186-92A0-28F5C6507669";
shapes = (
{
closed = 1;
nodes = (
(151,-12,l),
(433,-12,l),
(433,78,l),
(525,78,l),
(526,631,l),
(424,631,l),
(424,450,l),
(151,450,l),
(151,359,l),
(60,359,l),
(60,79,l),
(151,78,l)
);
},
{
closed = 1;
nodes = (
(161,88,l),
(161,350,l),
(424,350,l),
(423,88,l)
);
}
);
width = 586;
}
);
leftKerningGroup = _d;
rightKerningGroup = _d1;
unicode = 100;
},
{
glyphname = e;
layers = (
{
layerId = "2AAD9DA5-3897-4AC6-A4F9-A78ECEDC2410";
name = img;
width = 603;
},
{
layerId = "50F7179F-C30E-4DB1-9C2F-C70FE433AA29";
shapes = (
{
closed = 1;
nodes = (
(61,74,l),
(61,381,l),
(149,381,l),
(149,467,l),
(453,467,l),
(453,381,l),
(542,381,l),
(542,246,l),
(414,246,l),
(414,331,l),
(188,331,l),
(188,297,l),
(365,297,l),
(365,160,l),
(188,160,l),
(188,125,l),
(414,125,l),
(414,212,l),
(542,212,l),
(542,75,l),
(453,75,l),
(453,-11,l),
(149,-11,l),
(149,74,l)
);
}
);
width = 603;
},
{
layerId = "1F4A5B8F-71A6-4186-92A0-28F5C6507669";
shapes = (
{
closed = 1;
nodes = (
(60,78,l),
(60,359,l),
(151,359,l),
(151,450,l),
(433,450,l),
(433,359,l),
(525,359,l),
(525,260,l),
(423,260,l),
(423,350,l),
(161,350,l),
(161,270,l),
(343,270,l),
(343,169,l),
(161,169,l),
(161,88,l),
(423,88,l),
(423,180,l),
(525,180,l),
(525,79,l),
(433,79,l),
(433,-12,l),
(151,-12,l),
(151,78,l)
);
}
);
width = 586;
}
);
leftKerningGroup = _a;
rightKerningGroup = _e;
unicode = 101;
},
{
glyphname = h;
layers = (
{
layerId = "2AAD9DA5-3897-4AC6-A4F9-A78ECEDC2410";
name = img;
width = 603;
},
{
layerId = "50F7179F-C30E-4DB1-9C2F-C70FE433AA29";
shapes = (
{
closed = 1;
nodes = (
(61,-11,l),
(61,638,l),
(188,638,l),
(188,381,l),
(237,381,l),
(237,467,l),
(453,467,l),
(453,381,l),
(542,381,l),
(542,-11,l),
(414,-11,l),
(414,331,l),
(276,331,l),
(276,246,l),
(188,246,l),
(188,-11,l)
);
}
);
width = 603;
},
{
layerId = "1F4A5B8F-71A6-4186-92A0-28F5C6507669";
shapes = (
{
closed = 1;
nodes = (
(60,-12,l),
(60,631,l),
(161,631,l),
(161,359,l),
(241,359,l),
(241,450,l),
(433,450,l),
(433,359,l),
(525,359,l),
(525,-12,l),
(423,-12,l),
(423,350,l),
(251,350,l),
(251,260,l),
(161,260,l),
(161,-12,l)
);
}
);
width = 586;
}
);
leftKerningGroup = _f;
rightKerningGroup = _h;
unicode = 104;
},
{
glyphname = g;
layers = (
{
layerId = "5DB3F5C9-89D3-4136-B3C6-E6D99E10DBC8";
name = "#instance";
shapes = (
{
closed = 1;
nodes = (
(61,-97,l),
(61,39,l),
(188,39,l),
(188,-46,l),
(415,-46,l),
(415,74,l),
(149,74,l),
(149,160,l),
(61,160,l),
(61,381,l),
(149,381,l),
(149,467,l),
(454,467,l),
(454,381,l),
(542,381,l),
(542,-97,l),
(454,-97,l),
(454,-182,l),
(149,-182,l),
(149,-97,l)
);
},
{
closed = 1;
nodes = (
(188,211,l),
(415,211,l),
(415,331,l),
(188,331,l)
);
}
);
width = 603;
},
{
layerId = "2AAD9DA5-3897-4AC6-A4F9-A78ECEDC2410";
name = img;
width = 603;
},
{
layerId = "50F7179F-C30E-4DB1-9C2F-C70FE433AA29";
shapes = (
{
closed = 1;
nodes = (
(61,-97,l),
(61,39,l),
(188,39,l),
(188,-46,l),
(415,-46,l),
(415,74,l),
(149,74,l),
(149,160,l),
(61,160,l),
(61,381,l),
(149,381,l),
(149,467,l),
(454,467,l),
(454,381,l),
(542,381,l),
(542,-97,l),
(454,-97,l),
(454,-182,l),
(149,-182,l),
(149,-97,l)
);
},
{
closed = 1;
nodes = (
(188,211,l),
(415,211,l),
(415,331,l),
(188,331,l)
);
}
);
width = 603;
},
{
layerId = "1F4A5B8F-71A6-4186-92A0-28F5C6507669";
shapes = (
{
closed = 1;
nodes = (
(60,-103,l),
(60,-3,l),
(161,-3,l),
(161,-93,l),
(424,-93,l),
(424,78,l),
(151,78,l),
(151,169,l),
(60,169,l),
(60,359,l),
(151,359,l),
(151,450,l),
(434,450,l),
(434,359,l),
(525,359,l),
(525,-103,l),
(434,-103,l),
(434,-193,l),
(151,-193,l),
(151,-103,l)
);
},
{
closed = 1;
nodes = (
(161,179,l),
(424,179,l),
(424,350,l),
(161,350,l)
);
}
);
width = 586;
}
);
rightKerningGroup = _g;
unicode = 103;
},
{
glyphname = i;
layers = (
{
layerId = "2AAD9DA5-3897-4AC6-A4F9-A78ECEDC2410";
name = img;
width = 249;
},
{
layerId = "50F7179F-C30E-4DB1-9C2F-C70FE433AA29";
shapes = (
{
closed = 1;
nodes = (
(61,501,l),
(188,501,l),
(188,638,l),
(61,638,l)
);
},
{
closed = 1;
nodes = (
(61,-11,l),
(188,-11,l),
(188,467,l),
(61,467,l)
);
}
);
width = 249;
},
{
layerId = "1F4A5B8F-71A6-4186-92A0-28F5C6507669";
shapes = (
{
closed = 1;
nodes = (
(60,530,l),
(161,530,l),
(161,631,l),
(60,631,l)
);
},
{
closed = 1;
nodes = (
(60,-12,l),
(161,-12,l),
(161,450,l),
(60,450,l)
);
}
);
width = 222;
}
);
leftKerningGroup = _i;
rightKerningGroup = _i1;
unicode = 105;
},
{
glyphname = j;
layers = (
{
layerId = "2AAD9DA5-3897-4AC6-A4F9-A78ECEDC2410";
name = img;
width = 515;
},
{
layerId = "50F7179F-C30E-4DB1-9C2F-C70FE433AA29";
shapes = (
{
closed = 1;
nodes = (
(149,-12,l),
(149,74,l),
(61,74,l),
(61,211,l),
(188,211,l),
(188,125,l),
(326,125,l),
(326,467,l),
(454,467,l),
(454,74,l),
(365,74,l),
(365,-12,l)
);
}
);
width = 515;
},
{
layerId = "1F4A5B8F-71A6-4186-92A0-28F5C6507669";
shapes = (
{
closed = 1;
nodes = (
(151,-13,l),
(151,78,l),
(60,78,l),
(60,179,l),
(161,179,l),
(161,88,l),
(333,88,l),
(333,450,l),
(434,450,l),
(434,78,l),
(343,78,l),
(343,-13,l)
);
}
);
width = 495;
}
);
rightKerningGroup = _j;
unicode = 106;
},
{
glyphname = k;
layers = (
{
layerId = "2AAD9DA5-3897-4AC6-A4F9-A78ECEDC2410";
name = img;
width = 603;
},
{
layerId = "50F7179F-C30E-4DB1-9C2F-C70FE433AA29";
shapes = (
{
closed = 1;
nodes = (
(61,-11,l),
(61,638,l),
(188,638,l),
(188,297,l),
(237,297,l),
(237,381,l),
(414,381,l),
(414,467,l),
(542,467,l),
(542,331,l),
(453,331,l),
(453,246,l),
(276,246,l),
(276,211,l),
(453,211,l),
(453,125,l),
(542,125,l),
(542,-11,l),
(414,-11,l),
(414,74,l),
(237,74,l),
(237,160,l),
(188,160,l),
(188,-11,l)
);
}
);
width = 603;
},
{
layerId = "1F4A5B8F-71A6-4186-92A0-28F5C6507669";
shapes = (
{
closed = 1;
nodes = (
(60,-12,l),
(60,631,l),
(161,631,l),
(161,270,l),
(241,270,l),
(241,359,l),
(423,359,l),
(423,450,l),
(525,450,l),
(525,350,l),
(433,350,l),
(433,260,l),
(251,260,l),
(251,179,l),
(433,179,l),
(433,88,l),
(525,88,l),
(525,-12,l),
(423,-12,l),
(423,78,l),
(241,78,l),
(241,169,l),
(161,169,l),
(161,-12,l)
);
}
);
width = 586;
}
);
leftKerningGroup = _f;
rightKerningGroup = _k;
unicode = 107;
},
{
glyphname = l;
layers = (
{
layerId = "2AAD9DA5-3897-4AC6-A4F9-A78ECEDC2410";
name = img;
width = 249;
},
{
layerId = "50F7179F-C30E-4DB1-9C2F-C70FE433AA29";
shapes = (
{
closed = 1;
nodes = (
(61,-11,l),
(188,-11,l),
(188,638,l),
(61,638,l)
);
}
);
width = 249;
},
{
layerId = "1F4A5B8F-71A6-4186-92A0-28F5C6507669";
shapes = (
{
closed = 1;
nodes = (
(60,-12,l),
(161,-12,l),
(161,631,l),
(60,631,l)
);
}
);
width = 222;
}
);
leftKerningGroup = _f;
rightKerningGroup = _l;
unicode = 108;
},
{
glyphname = m;
layers = (
{
layerId = "2AAD9DA5-3897-4AC6-A4F9-A78ECEDC2410";
name = img;
width = 779;
},
{
layerId = "50F7179F-C30E-4DB1-9C2F-C70FE433AA29";
shapes = (
{
closed = 1;
nodes = (
(61,-11,l),
(188,-11,l),
(188,331,l),
(326,331,l),
(326,-11,l),
(453,-11,l),
(453,331,l),
(592,331,l),
(592,-11,l),
(718,-11,l),
(718,381,l),
(631,381,l),
(631,467,l),
(414,467,l),
(414,381,l),
(365,381,l),
(365,467,l),
(61,467,l)
);
}
);
width = 779;
},
{
layerId = "1F4A5B8F-71A6-4186-92A0-28F5C6507669";
shapes = (
{
closed = 1;
nodes = (
(60,-12,l),
(161,-12,l),
(161,350,l),
(333,350,l),
(333,-12,l),
(433,-12,l),
(433,350,l),
(606,350,l),
(606,-12,l),
(706,-12,l),
(706,359,l),
(616,359,l),
(616,450,l),
(423,450,l),
(423,359,l),
(343,359,l),
(343,450,l),
(60,450,l)
);
}
);
width = 767;
}
);
leftKerningGroup = _m;
rightKerningGroup = _g;
unicode = 109;
},
{
glyphname = n;
leftMetricsKey = m;
layers = (
{
layerId = "2AAD9DA5-3897-4AC6-A4F9-A78ECEDC2410";
name = img;
width = 603;
},
{
layerId = "50F7179F-C30E-4DB1-9C2F-C70FE433AA29";
shapes = (
{
closed = 1;
nodes = (
(61,-11,l),
(61,467,l),
(453,467,l),
(453,381,l),
(542,381,l),
(542,-11,l),
(414,-11,l),
(414,331,l),
(188,331,l),
(188,-11,l)
);
}
);
width = 603;
},
{
layerId = "1F4A5B8F-71A6-4186-92A0-28F5C6507669";
shapes = (
{
closed = 1;
nodes = (
(60,-12,l),
(60,450,l),
(433,450,l),
(433,359,l),
(525,359,l),
(525,-12,l),
(423,-12,l),
(423,350,l),
(161,350,l),
(161,-12,l)
);
}
);
width = 586;
}
);
leftKerningGroup = _m;
rightKerningGroup = _g;
unicode = 110;
},
{
glyphname = o;
layers = (
{
layerId = "2AAD9DA5-3897-4AC6-A4F9-A78ECEDC2410";
name = img;
width = 603;
},
{
layerId = "50F7179F-C30E-4DB1-9C2F-C70FE433AA29";
shapes = (
{
closed = 1;
nodes = (
(61,74,l),
(61,381,l),
(149,381,l),
(149,467,l),
(453,467,l),
(453,381,l),
(542,381,l),
(542,74,l),
(453,74,l),
(453,-11,l),
(149,-11,l),
(149,74,l)
);
},
{
closed = 1;
nodes = (
(188,125,l),
(414,125,l),
(414,331,l),
(188,331,l)
);
}
);
width = 603;
},
{
layerId = "1F4A5B8F-71A6-4186-92A0-28F5C6507669";
shapes = (
{
closed = 1;
nodes = (
(60,78,l),
(60,359,l),
(151,359,l),
(151,450,l),
(433,450,l),
(433,359,l),
(525,359,l),
(525,78,l),
(433,78,l),
(433,-12,l),
(151,-12,l),
(151,78,l)
);
},
{
closed = 1;
nodes = (
(161,88,l),
(423,88,l),
(423,350,l),
(161,350,l)
);
}
);
width = 586;
}
);
leftKerningGroup = _a;
rightKerningGroup = _o;
unicode = 111;
},
{
glyphname = p;
layers = (
{
layerId = "2AAD9DA5-3897-4AC6-A4F9-A78ECEDC2410";
name = img;
width = 603;
},
{
layerId = "50F7179F-C30E-4DB1-9C2F-C70FE433AA29";
shapes = (
{
closed = 1;
nodes = (
(61,-177,l),
(188,-177,l),
(188,-11,l),
(453,-11,l),
(453,74,l),
(542,74,l),
(542,381,l),
(453,381,l),
(453,467,l),
(149,467,l),
(149,381,l),
(61,381,l)
);
},
{
closed = 1;
nodes = (
(188,125,l),
(188,331,l),
(414,331,l),
(414,125,l)
);
}
);
width = 603;
},
{
layerId = "1F4A5B8F-71A6-4186-92A0-28F5C6507669";
shapes = (
{
closed = 1;
nodes = (
(60,-188,l),
(161,-188,l),
(161,-12,l),
(433,-12,l),
(433,78,l),
(525,78,l),
(525,359,l),
(433,359,l),
(433,450,l),
(151,450,l),
(151,359,l),
(60,359,l)
);
},
{
closed = 1;
nodes = (
(161,88,l),
(161,350,l),
(423,350,l),
(423,88,l)
);
}
);
width = 586;
}
);
leftKerningGroup = _p;
rightKerningGroup = _o;
unicode = 112;
},
{
glyphname = q;
layers = (
{
layerId = "2AAD9DA5-3897-4AC6-A4F9-A78ECEDC2410";
name = img;
width = 603;
},
{
layerId = "50F7179F-C30E-4DB1-9C2F-C70FE433AA29";
shapes = (
{
closed = 1;
nodes = (
(149,-11,l),
(149,74,l),
(61,74,l),
(61,381,l),
(149,381,l),
(149,467,l),
(453,467,l),
(453,381,l),
(542,381,l),
(542,-177,l),
(414,-177,l),
(414,-11,l)
);
},
{
closed = 1;
nodes = (
(188,125,l),
(414,125,l),
(414,331,l),
(188,331,l)
);
}
);
width = 603;
},
{
layerId = "1F4A5B8F-71A6-4186-92A0-28F5C6507669";
shapes = (
{
closed = 1;
nodes = (
(151,-12,l),
(151,78,l),
(60,78,l),
(60,359,l),
(151,359,l),
(151,450,l),
(433,450,l),
(433,359,l),
(525,359,l),
(525,-188,l),
(423,-188,l),
(423,-12,l)
);
},
{
closed = 1;
nodes = (
(161,88,l),
(423,88,l),
(423,350,l),
(161,350,l)
);
}
);
width = 586;
}
);
leftKerningGroup = _a;
rightKerningGroup = _g;
unicode = 113;
},
{
glyphname = r;
layers = (
{
layerId = "2AAD9DA5-3897-4AC6-A4F9-A78ECEDC2410";
name = img;
width = 603;
},
{
layerId = "50F7179F-C30E-4DB1-9C2F-C70FE433AA29";
shapes = (
{
closed = 1;
nodes = (
(61,-11,l),
(188,-11,l),
(188,331,l),
(414,331,l),
(414,246,l),
(542,246,l),
(542,381,l),
(453,381,l),
(453,467,l),
(149,467,l),
(149,381,l),
(61,381,l)
);
}
);
width = 603;
},
{
layerId = "1F4A5B8F-71A6-4186-92A0-28F5C6507669";
shapes = (
{
closed = 1;
nodes = (
(60,-12,l),
(161,-12,l),
(161,350,l),
(423,350,l),
(423,260,l),
(525,260,l),
(525,359,l),
(433,359,l),
(433,450,l),
(151,450,l),
(151,359,l),
(60,359,l)
);
}
);
width = 586;
}
);
leftKerningGroup = _p;
rightKerningGroup = _r;
unicode = 114;
},
{
glyphname = t;
layers = (
{
layerId = "2AAD9DA5-3897-4AC6-A4F9-A78ECEDC2410";
name = img;
width = 692;
},
{
layerId = "50F7179F-C30E-4DB1-9C2F-C70FE433AA29";
shapes = (
{
closed = 1;
nodes = (
(149,74,l),
(237,74,l),
(237,-11,l),
(542,-11,l),
(542,74,l),
(631,74,l),
(631,211,l),
(503,211,l),
(503,125,l),
(276,125,l),
(276,331,l),
(542,331,l),
(542,467,l),
(276,467,l),
(276,638,l),
(149,638,l),
(149,467,l),
(61,467,l),
(61,331,l),
(149,331,l)
);
}
);
width = 692;
},
{
layerId = "1F4A5B8F-71A6-4186-92A0-28F5C6507669";
shapes = (
{
closed = 1;
nodes = (
(151,78,l),
(241,78,l),
(241,-12,l),
(525,-12,l),
(525,78,l),
(616,78,l),
(616,179,l),
(515,179,l),
(515,88,l),
(251,88,l),
(251,350,l),
(525,350,l),
(525,450,l),
(251,450,l),
(251,631,l),
(151,631,l),
(151,450,l),
(60,450,l),
(60,350,l),
(151,350,l)
);
}
);
width = 677;
}
);
leftKerningGroup = _t;
rightKerningGroup = _t;
unicode = 116;
},
{
glyphname = s;
layers = (
{
layerId = "2AAD9DA5-3897-4AC6-A4F9-A78ECEDC2410";
name = img;
width = 603;
},
{
layerId = "50F7179F-C30E-4DB1-9C2F-C70FE433AA29";
shapes = (
{
closed = 1;
nodes = (
(61,-11,l),
(453,-11,l),
(453,74,l),
(542,74,l),
(542,211,l),
(453,211,l),
(453,297,l),
(188,297,l),
(188,331,l),
(542,331,l),
(542,467,l),
(149,467,l),
(149,381,l),
(61,381,l),
(61,246,l),
(149,246,l),
(149,160,l),
(414,160,l),
(414,125,l),
(61,125,l)
);
}
);
width = 603;
},
{
layerId = "1F4A5B8F-71A6-4186-92A0-28F5C6507669";
shapes = (
{
closed = 1;
nodes = (
(60,-12,l),
(433,-12,l),
(433,78,l),
(525,78,l),
(525,179,l),
(433,179,l),
(433,270,l),
(161,270,l),
(161,350,l),
(525,350,l),
(525,450,l),
(151,450,l),
(151,359,l),
(60,359,l),
(60,260,l),
(151,260,l),
(151,169,l),
(423,169,l),
(423,88,l),
(60,88,l)
);
}
);
width = 586;
}
);
leftKerningGroup = _s;
rightKerningGroup = _s;
unicode = 115;
},
{
glyphname = u;
layers = (
{
layerId = "2AAD9DA5-3897-4AC6-A4F9-A78ECEDC2410";
name = img;
width = 603;
},
{
layerId = "50F7179F-C30E-4DB1-9C2F-C70FE433AA29";
shapes = (
{
closed = 1;
nodes = (
(61,74,l),
(61,467,l),
(188,467,l),
(188,125,l),
(414,125,l),
(414,467,l),
(542,467,l),
(542,74,l),
(453,74,l),
(453,-11,l),
(149,-11,l),
(149,74,l)
);
}
);
width = 603;
},
{
layerId = "1F4A5B8F-71A6-4186-92A0-28F5C6507669";
shapes = (
{
closed = 1;
nodes = (
(60,78,l),
(60,450,l),
(161,450,l),
(161,88,l),
(423,88,l),
(423,450,l),
(525,450,l),
(525,78,l),
(433,78,l),
(433,-12,l),
(151,-12,l),
(151,78,l)
);
}
);
width = 586;
}
);
leftKerningGroup = _u;
rightKerningGroup = _j;
unicode = 117;
},
{
glyphname = v;
layers = (
{
layerId = "2AAD9DA5-3897-4AC6-A4F9-A78ECEDC2410";
name = img;
width = 593;
},
{
layerId = "50F7179F-C30E-4DB1-9C2F-C70FE433AA29";
shapes = (
{
closed = 1;
nodes = (
(139,74,l),
(227,74,l),
(227,-11,l),
(354,-11,l),
(354,74,l),
(442,74,l),
(442,246,l),
(531,246,l),
(531,467,l),
(403,467,l),
(403,297,l),
(315,297,l),
(315,125,l),
(265,125,l),
(265,297,l),
(177,297,l),
(177,467,l),
(50,467,l),
(50,246,l),
(139,246,l)
);
}
);
width = 593;
},
{
layerId = "1F4A5B8F-71A6-4186-92A0-28F5C6507669";
shapes = (
{
closed = 1;
nodes = (
(141,78,l),
(232,78,l),
(232,-12,l),
(333,-12,l),
(333,78,l),
(423,78,l),
(423,260,l),
(515,260,l),
(515,450,l),
(413,450,l),
(413,270,l),
(323,270,l),
(323,88,l),
(241,88,l),
(241,270,l),
(151,270,l),
(151,450,l),
(50,450,l),
(50,260,l),
(141,260,l)
);
}
);
width = 576;
}
);
unicode = 118;
},
{
glyphname = w;
layers = (
{
layerId = "2AAD9DA5-3897-4AC6-A4F9-A78ECEDC2410";
name = img;
width = 779;
},
{
layerId = "50F7179F-C30E-4DB1-9C2F-C70FE433AA29";
shapes = (
{
closed = 1;
nodes = (
(61,-11,l),
(365,-11,l),
(365,74,l),
(414,74,l),
(414,-11,l),
(631,-11,l),
(631,74,l),
(718,74,l),
(718,467,l),
(592,467,l),
(592,125,l),
(453,125,l),
(453,467,l),
(326,467,l),
(326,125,l),
(188,125,l),
(188,467,l),
(61,467,l)
);
}
);
width = 779;
},
{
layerId = "1F4A5B8F-71A6-4186-92A0-28F5C6507669";
shapes = (
{
closed = 1;
nodes = (
(60,-12,l),
(343,-12,l),
(343,78,l),
(423,78,l),
(423,-12,l),
(616,-12,l),
(616,78,l),
(706,78,l),
(706,450,l),
(606,450,l),
(606,88,l),
(433,88,l),
(433,450,l),
(333,450,l),
(333,88,l),
(161,88,l),
(161,450,l),
(60,450,l)
);
}
);
width = 767;
}
);
leftKerningGroup = _m;
rightKerningGroup = _j;
unicode = 119;
},
{
glyphname = z;
layers = (
{
layerId = "2AAD9DA5-3897-4AC6-A4F9-A78ECEDC2410";
name = img;
width = 603;
},
{
layerId = "50F7179F-C30E-4DB1-9C2F-C70FE433AA29";
shapes = (
{
closed = 1;
nodes = (
(61,-11,l),
(542,-11,l),
(542,125,l),
(276,125,l),
(276,160,l),
(365,160,l),
(365,246,l),
(453,246,l),
(453,331,l),
(542,331,l),
(542,467,l),
(61,467,l),
(61,331,l),
(326,331,l),
(326,297,l),
(237,297,l),
(237,211,l),
(149,211,l),
(149,125,l),
(61,125,l)
);
}
);
width = 603;
},
{
layerId = "1F4A5B8F-71A6-4186-92A0-28F5C6507669";
shapes = (
{
closed = 1;
nodes = (
(60,-12,l),
(525,-12,l),
(525,88,l),
(251,88,l),
(251,169,l),
(343,169,l),
(343,260,l),
(433,260,l),
(433,350,l),
(525,350,l),
(525,450,l),
(60,450,l),
(60,350,l),
(333,350,l),
(333,270,l),
(241,270,l),
(241,179,l),
(151,179,l),
(151,88,l),
(60,88,l)
);
}
);
width = 586;
}
);
unicode = 122;
},
{
glyphname = zero;
leftMetricsKey = O;
widthMetricsKey = O;
layers = (
{
layerId = "2AAD9DA5-3897-4AC6-A4F9-A78ECEDC2410";
name = img;
width = 603;
},
{
layerId = "50F7179F-C30E-4DB1-9C2F-C70FE433AA29";
shapes = (
{
closed = 1;
nodes = (
(61,74,l),
(61,552,l),
(149,552,l),
(149,638,l),
(453,638,l),
(453,552,l),
(542,552,l),
(542,74,l),
(453,74,l),
(453,-11,l),
(149,-11,l),
(149,74,l)
);
},
{
closed = 1;
nodes = (
(188,125,l),
(414,125,l),
(414,501,l),
(188,501,l)
);
}
);
width = 603;
},
{
layerId = "1F4A5B8F-71A6-4186-92A0-28F5C6507669";
shapes = (
{
closed = 1;
nodes = (
(60,78,l),
(60,540,l),
(151,540,l),
(151,631,l),
(433,631,l),
(433,540,l),
(525,540,l),
(525,78,l),
(433,78,l),
(433,-12,l),
(151,-12,l),
(151,78,l)
);
},
{
closed = 1;
nodes = (
(161,88,l),
(423,88,l),
(423,530,l),
(161,530,l)
);
}
);
width = 586;
}
);
leftKerningGroup = _B;
rightKerningGroup = _J;
unicode = 48;
},
{
glyphname = one;
layers = (
{
layerId = "2AAD9DA5-3897-4AC6-A4F9-A78ECEDC2410";
name = img;
width = 426;
},
{
layerId = "50F7179F-C30E-4DB1-9C2F-C70FE433AA29";
shapes = (
{
closed = 1;
nodes = (
(237,-11,l),
(365,-11,l),
(365,552,l),
(276,552,l),
(276,638,l),
(149,638,l),
(149,552,l),
(61,552,l),
(61,416,l),
(188,416,l),
(188,501,l),
(237,501,l)
);
}
);
width = 426;
},
{
layerId = "1F4A5B8F-71A6-4186-92A0-28F5C6507669";
shapes = (
{
closed = 1;
nodes = (
(241,-12,l),
(343,-12,l),
(343,540,l),
(251,540,l),
(251,631,l),
(151,631,l),
(151,540,l),
(60,540,l),
(60,440,l),
(161,440,l),
(161,530,l),
(241,530,l)
);
}
);
width = 404;
}
);
leftKerningGroup = _T;
rightKerningGroup = _M;
unicode = 49;
},
{
glyphname = two;
layers = (
{
layerId = "2AAD9DA5-3897-4AC6-A4F9-A78ECEDC2410";
name = img;
width = 603;
},
{
layerId = "50F7179F-C30E-4DB1-9C2F-C70FE433AA29";
shapes = (
{
closed = 1;
nodes = (
(61,74,l),
(61,297,l),
(149,297,l),
(149,381,l),
(414,381,l),
(414,501,l),
(188,501,l),
(188,416,l),
(61,416,l),
(61,552,l),
(149,552,l),
(149,638,l),
(453,638,l),
(453,552,l),
(542,552,l),
(542,331,l),
(453,331,l),
(453,246,l),
(188,246,l),
(188,125,l),
(414,125,l),
(414,211,l),
(542,211,l),
(542,74,l),
(453,74,l),
(453,-11,l),
(149,-11,l),
(149,74,l)
);
}
);
width = 603;
},
{
layerId = "1F4A5B8F-71A6-4186-92A0-28F5C6507669";
shapes = (
{
closed = 1;
nodes = (
(60,78,l),
(60,270,l),
(151,270,l),
(151,359,l),
(423,359,l),
(423,530,l),
(161,530,l),
(161,440,l),
(60,440,l),
(60,540,l),
(151,540,l),
(151,631,l),
(433,631,l),
(433,540,l),
(525,540,l),
(525,350,l),
(433,350,l),
(433,260,l),
(161,260,l),
(161,88,l),
(423,88,l),
(423,179,l),
(525,179,l),
(525,78,l),
(433,78,l),
(433,-12,l),
(151,-12,l),
(151,78,l)
);
}
);
width = 586;
}
);
unicode = 50;
},
{
glyphname = three;
layers = (
{
layerId = "2AAD9DA5-3897-4AC6-A4F9-A78ECEDC2410";
name = img;
width = 603;
},
{
layerId = "50F7179F-C30E-4DB1-9C2F-C70FE433AA29";
shapes = (
{
closed = 1;
nodes = (
(61,74,l),
(149,74,l),
(149,-11,l),
(453,-11,l),
(453,74,l),
(542,74,l),
(542,297,l),
(453,297,l),
(453,331,l),
(542,331,l),
(542,552,l),
(453,552,l),
(453,638,l),
(149,638,l),
(149,552,l),
(61,552,l),
(61,416,l),
(188,416,l),
(188,501,l),
(414,501,l),
(414,381,l),
(149,381,l),
(149,246,l),
(414,246,l),
(414,125,l),
(188,125,l),
(188,211,l),
(61,211,l)
);
}
);
width = 603;
},
{
layerId = "1F4A5B8F-71A6-4186-92A0-28F5C6507669";
shapes = (
{
closed = 1;
nodes = (
(60,78,l),
(151,78,l),
(151,-12,l),
(433,-12,l),
(433,78,l),
(525,78,l),
(525,270,l),
(433,270,l),
(433,350,l),
(525,350,l),
(525,540,l),
(433,540,l),
(433,631,l),
(151,631,l),
(151,540,l),
(60,540,l),
(60,440,l),
(161,440,l),
(161,530,l),
(423,530,l),
(423,359,l),
(151,359,l),
(151,260,l),
(423,260,l),
(423,88,l),
(161,88,l),
(161,179,l),
(60,179,l)
);
}
);
width = 586;
}
);
rightKerningGroup = _B1;
unicode = 51;
},
{
glyphname = four;
layers = (
{
layerId = "2AAD9DA5-3897-4AC6-A4F9-A78ECEDC2410";
name = img;
width = 603;
},
{
layerId = "50F7179F-C30E-4DB1-9C2F-C70FE433AA29";
shapes = (
{
closed = 1;
nodes = (
(61,160,l),
(414,160,l),
(414,-11,l),
(542,-11,l),
(542,638,l),
(326,638,l),
(326,552,l),
(237,552,l),
(237,467,l),
(149,467,l),
(149,381,l),
(61,381,l)
);
},
{
closed = 1;
nodes = (
(188,297,l),
(188,331,l),
(276,331,l),
(276,416,l),
(365,416,l),
(365,501,l),
(414,501,l),
(414,297,l)
);
}
);
width = 603;
},
{
layerId = "1F4A5B8F-71A6-4186-92A0-28F5C6507669";
shapes = (
{
closed = 1;
nodes = (
(60,169,l),
(423,169,l),
(423,-12,l),
(525,-12,l),
(525,631,l),
(333,631,l),
(333,540,l),
(241,540,l),
(241,450,l),
(151,450,l),
(151,359,l),
(60,359,l)
);
},
{
closed = 1;
nodes = (
(161,270,l),
(161,350,l),
(251,350,l),
(251,440,l),
(343,440,l),
(343,530,l),
(423,530,l),
(423,270,l)
);
}
);
width = 586;
}
);
rightKerningGroup = _H;
unicode = 52;
},
{
glyphname = six;
layers = (
{
layerId = "2AAD9DA5-3897-4AC6-A4F9-A78ECEDC2410";
name = img;
width = 603;
},
{
layerId = "50F7179F-C30E-4DB1-9C2F-C70FE433AA29";
shapes = (
{
closed = 1;
nodes = (
(61,74,l),
(149,74,l),
(149,-11,l),
(453,-11,l),
(453,74,l),
(542,74,l),
(542,297,l),
(453,297,l),
(453,381,l),
(188,381,l),
(188,501,l),
(414,501,l),
(414,416,l),
(542,416,l),
(542,552,l),
(453,552,l),
(453,638,l),
(149,638,l),
(149,552,l),
(61,552,l)
);
},
{
closed = 1;
nodes = (
(188,125,l),
(188,246,l),
(414,246,l),
(414,125,l)
);
}
);
width = 603;
},
{
layerId = "1F4A5B8F-71A6-4186-92A0-28F5C6507669";
shapes = (
{
closed = 1;
nodes = (
(60,78,l),
(151,78,l),
(151,-12,l),
(433,-12,l),
(433,78,l),
(525,78,l),
(525,270,l),
(433,270,l),
(433,359,l),
(161,359,l),
(161,530,l),
(423,530,l),
(423,440,l),
(525,440,l),
(525,540,l),
(433,540,l),
(433,631,l),
(151,631,l),
(151,540,l),
(60,540,l)
);
},
{
closed = 1;
nodes = (
(161,88,l),
(161,260,l),
(423,260,l),
(423,88,l)
);
}
);
width = 586;
}
);
leftKerningGroup = _B;
rightKerningGroup = _S1;
unicode = 54;
},
{
glyphname = seven;
layers = (
{
layerId = "2AAD9DA5-3897-4AC6-A4F9-A78ECEDC2410";
name = img;
width = 603;
},
{
layerId = "50F7179F-C30E-4DB1-9C2F-C70FE433AA29";
shapes = (
{
closed = 1;
nodes = (
(414,-11,l),
(542,-11,l),
(542,552,l),
(453,552,l),
(453,638,l),
(149,638,l),
(149,552,l),
(61,552,l),
(61,416,l),
(188,416,l),
(188,501,l),
(414,501,l)
);
}
);
width = 603;
},
{
layerId = "1F4A5B8F-71A6-4186-92A0-28F5C6507669";
shapes = (
{
closed = 1;
nodes = (
(423,-12,l),
(525,-12,l),
(525,540,l),
(433,540,l),
(433,631,l),
(151,631,l),
(151,540,l),
(60,540,l),
(60,440,l),
(161,440,l),
(161,530,l),
(423,530,l)
);
}
);
width = 586;
}
);
rightKerningGroup = _M;
unicode = 55;
},
{
glyphname = eight;
layers = (
{
layerId = "2AAD9DA5-3897-4AC6-A4F9-A78ECEDC2410";
name = img;
width = 603;
},
{
layerId = "50F7179F-C30E-4DB1-9C2F-C70FE433AA29";
shapes = (
{
closed = 1;
nodes = (
(61,74,l),
(149,74,l),
(149,-11,l),
(453,-11,l),
(453,74,l),
(542,74,l),
(542,297,l),
(453,297,l),
(453,331,l),
(542,331,l),
(542,552,l),
(453,552,l),
(453,638,l),
(149,638,l),
(149,552,l),
(61,552,l),
(61,331,l),
(149,331,l),
(149,297,l),
(61,297,l)
);
},
{
closed = 1;
nodes = (
(188,381,l),
(188,501,l),
(414,501,l),
(414,381,l)
);
},
{
closed = 1;
nodes = (
(188,125,l),
(188,246,l),
(414,246,l),
(414,125,l)
);
}
);
width = 603;
},
{
layerId = "1F4A5B8F-71A6-4186-92A0-28F5C6507669";
shapes = (
{
closed = 1;
nodes = (
(60,78,l),
(151,78,l),
(151,-12,l),
(433,-12,l),
(433,78,l),
(525,78,l),
(525,270,l),
(433,270,l),
(433,350,l),
(525,350,l),
(525,540,l),
(433,540,l),
(433,631,l),
(151,631,l),
(151,540,l),
(60,540,l),
(60,350,l),
(151,350,l),
(151,270,l),
(60,270,l)
);
},
{
closed = 1;
nodes = (
(161,359,l),
(161,530,l),
(423,530,l),
(423,359,l)
);
},
{
closed = 1;
nodes = (
(161,88,l),
(161,260,l),
(423,260,l),
(423,88,l)
);
}
);
width = 586;
}
);
leftKerningGroup = _eight;
rightKerningGroup = _B1;
unicode = 56;
},
{
glyphname = nine;
layers = (
{
layerId = "2AAD9DA5-3897-4AC6-A4F9-A78ECEDC2410";
name = img;
width = 603;
},
{
layerId = "50F7179F-C30E-4DB1-9C2F-C70FE433AA29";
shapes = (
{
closed = 1;
nodes = (
(61,74,l),
(149,74,l),
(149,-11,l),
(453,-11,l),
(453,74,l),
(542,74,l),
(542,552,l),
(453,552,l),
(453,638,l),
(149,638,l),
(149,552,l),
(61,552,l),
(61,331,l),
(149,331,l),
(149,246,l),
(414,246,l),
(414,125,l),
(188,125,l),
(188,211,l),
(61,211,l)
);
},
{
closed = 1;
nodes = (
(188,381,l),
(188,501,l),
(414,501,l),
(414,381,l)
);
}
);
width = 603;
},
{
layerId = "1F4A5B8F-71A6-4186-92A0-28F5C6507669";
shapes = (
{
closed = 1;
nodes = (
(60,78,l),
(151,78,l),
(151,-12,l),
(433,-12,l),
(433,78,l),
(525,78,l),
(525,540,l),
(433,540,l),
(433,631,l),
(151,631,l),
(151,540,l),
(60,540,l),
(60,350,l),
(151,350,l),
(151,260,l),
(423,260,l),
(423,88,l),
(161,88,l),
(161,179,l),
(60,179,l)
);
},
{
closed = 1;
nodes = (
(161,359,l),
(161,530,l),
(423,530,l),
(423,359,l)
);
}
);
width = 586;
}
);
leftKerningGroup = _S;
rightKerningGroup = _J;
unicode = 57;
},
{
glyphname = S;
layers = (
{
layerId = "2AAD9DA5-3897-4AC6-A4F9-A78ECEDC2410";
name = img;
width = 603;
},
{
layerId = "50F7179F-C30E-4DB1-9C2F-C70FE433AA29";
shapes = (
{
closed = 1;
nodes = (
(61,74,l),
(61,211,l),
(188,211,l),
(188,125,l),
(414,125,l),
(414,246,l),
(149,246,l),
(149,331,l),
(61,331,l),
(61,552,l),
(149,552,l),
(149,638,l),
(453,638,l),
(453,552,l),
(542,552,l),
(542,416,l),
(414,416,l),
(414,501,l),
(188,501,l),
(188,381,l),
(453,381,l),
(453,297,l),
(542,297,l),
(542,74,l),
(453,74,l),
(453,-11,l),
(149,-11,l),
(149,74,l)
);
}
);
width = 603;
},
{
layerId = "1F4A5B8F-71A6-4186-92A0-28F5C6507669";
shapes = (
{
closed = 1;
nodes = (
(60,78,l),
(60,179,l),
(161,179,l),
(161,88,l),
(423,88,l),
(423,260,l),
(151,260,l),
(151,350,l),
(60,350,l),
(60,540,l),
(151,540,l),
(151,631,l),
(433,631,l),
(433,540,l),
(525,540,l),
(525,440,l),
(423,440,l),
(423,530,l),
(161,530,l),
(161,359,l),
(433,359,l),
(433,270,l),
(525,270,l),
(525,78,l),
(433,78,l),
(433,-12,l),
(151,-12,l),
(151,78,l)
);
}
);
width = 586;
}
);
leftKerningGroup = _S;
rightKerningGroup = _S1;
unicode = 83;
},
{
glyphname = five;
layers = (
{
layerId = "2AAD9DA5-3897-4AC6-A4F9-A78ECEDC2410";
name = img;
width = 603;
},
{
layerId = "50F7179F-C30E-4DB1-9C2F-C70FE433AA29";
shapes = (
{
closed = 1;
nodes = (
(61,74,l),
(149,74,l),
(149,-11,l),
(453,-11,l),
(453,74,l),
(542,74,l),
(542,211,l),
(453,211,l),
(453,297,l),
(276,297,l),
(276,381,l),
(188,381,l),
(188,501,l),
(414,501,l),
(414,331,l),
(542,331,l),
(542,552,l),
(453,552,l),
(453,638,l),
(149,638,l),
(149,552,l),
(61,552,l),
(61,331,l),
(149,331,l),
(149,246,l),
(237,246,l),
(237,160,l),
(414,160,l),
(414,125,l),
(188,125,l),
(188,211,l),
(61,211,l)
);
}
);
width = 603;
},
{
layerId = "1F4A5B8F-71A6-4186-92A0-28F5C6507669";
shapes = (
{
closed = 1;
nodes = (
(60,78,l),
(151,78,l),
(151,-12,l),
(433,-12,l),
(433,78,l),
(525,78,l),
(525,179,l),
(433,179,l),
(433,270,l),
(251,270,l),
(251,359,l),
(161,359,l),
(161,530,l),
(423,530,l),
(423,350,l),
(525,350,l),
(525,540,l),
(433,540,l),
(433,631,l),
(151,631,l),
(151,540,l),
(60,540,l),
(60,350,l),
(151,350,l),
(151,260,l),
(241,260,l),
(241,169,l),
(423,169,l),
(423,88,l),
(161,88,l),
(161,179,l),
(60,179,l)
);
}
);
width = 586;
}
);
unicode = 53;
},
{
glyphname = equal;
layers = (
{
layerId = "2AAD9DA5-3897-4AC6-A4F9-A78ECEDC2410";
name = img;
width = 451;
},
{
layerId = "50F7179F-C30E-4DB1-9C2F-C70FE433AA29";
shapes = (
{
closed = 1;
nodes = (
(60,101,l),
(60,222,l),
(368,222,l),
(368,101,l)
);
},
{
closed = 1;
nodes = (
(60,281,l),
(60,402,l),
(368,402,l),
(368,281,l)
);
}
);
width = 451;
},
{
layerId = "1F4A5B8F-71A6-4186-92A0-28F5C6507669";
shapes = (
{
closed = 1;
nodes = (
(60,155,l),
(60,255,l),
(342,255,l),
(342,155,l)
);
},
{
closed = 1;
nodes = (
(60,290,l),
(60,391,l),
(342,391,l),
(342,290,l)
);
}
);
width = 403;
}
);
unicode = 61;
},
{
glyphname = exclam;
layers = (
{
layerId = "2AAD9DA5-3897-4AC6-A4F9-A78ECEDC2410";
name = img;
width = 249;
},
{
layerId = "50F7179F-C30E-4DB1-9C2F-C70FE433AA29";
shapes = (
{
closed = 1;
nodes = (
(61,-11,l),
(61,125,l),
(188,125,l),
(188,-11,l)
);
},
{
closed = 1;
nodes = (
(61,160,l),
(61,638,l),
(188,638,l),
(188,160,l)
);
}
);
width = 249;
},
{
layerId = "1F4A5B8F-71A6-4186-92A0-28F5C6507669";
shapes = (
{
closed = 1;
nodes = (
(60,-12,l),
(60,88,l),
(161,88,l),
(161,-12,l)
);
},
{
closed = 1;
nodes = (
(60,169,l),
(60,631,l),
(161,631,l),
(161,169,l)
);
}
);
width = 222;
}
);
unicode = 33;
},
{
glyphname = quotedbl;
layers = (
{
layerId = "2AAD9DA5-3897-4AC6-A4F9-A78ECEDC2410";
name = img;
width = 486;
},
{
layerId = "50F7179F-C30E-4DB1-9C2F-C70FE433AA29";
shapes = (
{
closed = 1;
nodes = (
(105,416,l),
(105,480,l),
(105,480,l),
(105,501,l),
(61,501,l),
(61,638,l),
(188,638,l),
(188,552,l),
(232,552,l),
(232,459,l),
(188,459,l),
(188,416,l)
);
},
{
closed = 1;
nodes = (
(298,416,l),
(298,480,l),
(298,480,l),
(298,501,l),
(253,501,l),
(253,638,l),
(382,638,l),
(382,552,l),
(424,552,l),
(424,459,l),
(382,459,l),
(382,416,l)
);
}
);
width = 486;
},
{
layerId = "1F4A5B8F-71A6-4186-92A0-28F5C6507669";
shapes = (
{
closed = 1;
nodes = (
(105,440,l),
(105,496,l),
(151,496,l),
(151,530,l),
(60,530,l),
(60,631,l),
(161,631,l),
(161,540,l),
(206,540,l),
(206,486,l),
(161,486,l),
(161,440,l)
);
},
{
closed = 1;
nodes = (
(304,440,l),
(304,496,l),
(350,496,l),
(350,530,l),
(258,530,l),
(258,631,l),
(360,631,l),
(360,540,l),
(404,540,l),
(404,486,l),
(360,486,l),
(360,440,l)
);
}
);
width = 465;
}
);
leftKerningGroup = _quotedbl;
rightKerningGroup = _quotedbl;
unicode = 34;
},
{
glyphname = numbersign;
layers = (
{
layerId = "2AAD9DA5-3897-4AC6-A4F9-A78ECEDC2410";
name = img;
width = 692;
},
{
layerId = "50F7179F-C30E-4DB1-9C2F-C70FE433AA29";
shapes = (
{
closed = 1;
nodes = (
(61,74,l),
(61,211,l),
(149,211,l),
(149,331,l),
(61,331,l),
(61,467,l),
(149,467,l),
(149,638,l),
(276,638,l),
(276,467,l),
(414,467,l),
(414,638,l),
(542,638,l),
(542,467,l),
(631,467,l),
(631,331,l),
(542,331,l),
(542,211,l),
(631,211,l),
(631,74,l),
(542,74,l),
(542,-11,l),
(414,-11,l),
(414,74,l),
(276,74,l),
(276,-11,l),
(149,-11,l),
(149,74,l)
);
},
{
closed = 1;
nodes = (
(276,211,l),
(414,211,l),
(414,331,l),
(276,331,l)
);
}
);
width = 692;
},
{
layerId = "1F4A5B8F-71A6-4186-92A0-28F5C6507669";
shapes = (
{
closed = 1;
nodes = (
(60,78,l),
(60,179,l),
(151,179,l),
(151,350,l),
(60,350,l),
(60,450,l),
(151,450,l),
(151,631,l),
(251,631,l),
(251,450,l),
(423,450,l),
(423,631,l),
(525,631,l),
(525,450,l),
(616,450,l),
(616,350,l),
(525,350,l),
(525,179,l),
(616,179,l),
(616,78,l),
(525,78,l),
(525,-12,l),
(423,-12,l),
(423,78,l),
(251,78,l),
(251,-12,l),
(151,-12,l),
(151,78,l)
);
},
{
closed = 1;
nodes = (
(251,179,l),
(423,179,l),
(423,350,l),
(251,350,l)
);
}
);
width = 677;
}
);
unicode = 35;
},
{
glyphname = dollar;
layers = (
{
layerId = "2AAD9DA5-3897-4AC6-A4F9-A78ECEDC2410";
name = img;
width = 603;
},
{
layerId = "50F7179F-C30E-4DB1-9C2F-C70FE433AA29";
shapes = (
{
closed = 1;
nodes = (
(149,-11,l),
(246,-11,l),
(246,-97,l),
(374,-97,l),
(374,-11,l),
(453,-11,l),
(453,74,l),
(542,74,l),
(542,297,l),
(453,297,l),
(453,381,l),
(188,381,l),
(188,501,l),
(414,501,l),
(414,416,l),
(542,416,l),
(542,552,l),
(453,552,l),
(453,638,l),
(374,638,l),
(374,724,l),
(246,724,l),
(246,638,l),
(149,638,l),
(149,552,l),
(61,552,l),
(61,331,l),
(149,331,l),
(149,246,l),
(414,246,l),
(414,125,l),
(188,125,l),
(188,211,l),
(61,211,l),
(61,74,l),
(149,74,l)
);
}
);
width = 603;
},
{
layerId = "1F4A5B8F-71A6-4186-92A0-28F5C6507669";
shapes = (
{
closed = 1;
nodes = (
(151,-12,l),
(250,-12,l),
(250,-103,l),
(352,-103,l),
(352,-12,l),
(433,-12,l),
(433,78,l),
(525,78,l),
(525,270,l),
(433,270,l),
(433,359,l),
(161,359,l),
(161,530,l),
(423,530,l),
(423,440,l),
(525,440,l),
(525,540,l),
(433,540,l),
(433,631,l),
(352,631,l),
(352,722,l),
(250,722,l),
(250,631,l),
(151,631,l),
(151,540,l),
(60,540,l),
(60,350,l),
(151,350,l),
(151,260,l),
(423,260,l),
(423,88,l),
(161,88,l),
(161,179,l),
(60,179,l),
(60,78,l),
(151,78,l)
);
}
);
width = 586;
}
);
unicode = 36;
},
{
glyphname = percent;
layers = (
{
layerId = "2AAD9DA5-3897-4AC6-A4F9-A78ECEDC2410";
name = img;
width = 876;
},
{
layerId = "50F7179F-C30E-4DB1-9C2F-C70FE433AA29";
shapes = (
{
closed = 1;
nodes = (
(61,416,l),
(61,552,l),
(149,552,l),
(149,638,l),
(276,638,l),
(276,552,l),
(365,552,l),
(365,416,l),
(276,416,l),
(276,331,l),
(149,331,l),
(149,416,l)
);
},
{
closed = 1;
nodes = (
(511,74,l),
(511,211,l),
(599,211,l),
(599,297,l),
(727,297,l),
(727,211,l),
(815,211,l),
(815,74,l),
(727,74,l),
(727,-11,l),
(599,-11,l),
(599,74,l)
);
},
{
closed = 1;
nodes = (
(108,-11,l),
(108,125,l),
(198,125,l),
(198,211,l),
(285,211,l),
(285,297,l),
(375,297,l),
(375,381,l),
(462,381,l),
(462,467,l),
(551,467,l),
(551,552,l),
(640,552,l),
(640,638,l),
(767,638,l),
(767,501,l),
(679,501,l),
(679,416,l),
(590,416,l),
(590,331,l),
(501,331,l),
(501,246,l),
(414,246,l),
(414,160,l),
(324,160,l),
(324,74,l),
(237,74,l),
(237,-11,l)
);
}
);
width = 876;
},
{
layerId = "1F4A5B8F-71A6-4186-92A0-28F5C6507669";
shapes = (
{
closed = 1;
nodes = (
(60,440,l),
(60,540,l),
(151,540,l),
(151,631,l),
(251,631,l),
(251,540,l),
(343,540,l),
(343,440,l),
(251,440,l),
(251,350,l),
(151,350,l),
(151,440,l)
);
},
{
closed = 1;
nodes = (
(523,78,l),
(523,179,l),
(614,179,l),
(614,270,l),
(715,270,l),
(715,179,l),
(806,179,l),
(806,78,l),
(715,78,l),
(715,-12,l),
(614,-12,l),
(614,78,l)
);
},
{
closed = 1;
nodes = (
(109,-12,l),
(109,88,l),
(201,88,l),
(201,179,l),
(291,179,l),
(291,270,l),
(383,270,l),
(383,359,l),
(473,359,l),
(473,450,l),
(564,450,l),
(564,540,l),
(656,540,l),
(656,631,l),
(756,631,l),
(756,530,l),
(666,530,l),
(666,440,l),
(574,440,l),
(574,350,l),
(483,350,l),
(483,260,l),
(393,260,l),
(393,169,l),
(301,169,l),
(301,78,l),
(211,78,l),
(211,-12,l)
);
}
);
width = 867;
}
);
unicode = 37;
},
{
glyphname = ampersand;
layers = (
{
layerId = "2AAD9DA5-3897-4AC6-A4F9-A78ECEDC2410";
name = img;
width = 692;
},
{
layerId = "50F7179F-C30E-4DB1-9C2F-C70FE433AA29";
shapes = (
{
closed = 1;
nodes = (
(61,74,l),
(149,74,l),
(149,-11,l),
(453,-11,l),
(453,74,l),
(503,74,l),
(503,-11,l),
(631,-11,l),
(631,125,l),
(542,125,l),
(542,211,l),
(453,211,l),
(453,297,l),
(365,297,l),
(365,331,l),
(453,331,l),
(453,416,l),
(542,416,l),
(542,552,l),
(453,552,l),
(453,638,l),
(149,638,l),
(149,552,l),
(61,552,l),
(61,416,l),
(149,416,l),
(149,331,l),
(237,331,l),
(237,297,l),
(149,297,l),
(149,211,l),
(61,211,l)
);
},
{
closed = 1;
nodes = (
(276,381,l),
(276,467,l),
(188,467,l),
(188,501,l),
(414,501,l),
(414,467,l),
(326,467,l),
(326,381,l)
);
},
{
closed = 1;
nodes = (
(188,125,l),
(188,160,l),
(276,160,l),
(276,246,l),
(326,246,l),
(326,160,l),
(414,160,l),
(414,125,l)
);
}
);
width = 692;
},
{
layerId = "1F4A5B8F-71A6-4186-92A0-28F5C6507669";
shapes = (
{
closed = 1;
nodes = (
(60,78,l),
(151,78,l),
(151,-12,l),
(433,-12,l),
(433,78,l),
(515,78,l),
(515,-12,l),
(616,-12,l),
(616,88,l),
(525,88,l),
(525,179,l),
(433,179,l),
(433,270,l),
(343,270,l),
(343,350,l),
(433,350,l),
(433,440,l),
(525,440,l),
(525,540,l),
(433,540,l),
(433,631,l),
(151,631,l),
(151,540,l),
(60,540,l),
(60,440,l),
(151,440,l),
(151,350,l),
(241,350,l),
(241,270,l),
(151,270,l),
(151,179,l),
(60,179,l)
);
},
{
closed = 1;
nodes = (
(251,359,l),
(251,450,l),
(161,450,l),
(161,530,l),
(423,530,l),
(423,450,l),
(333,450,l),
(333,359,l)
);
},
{
closed = 1;
nodes = (
(161,88,l),
(161,169,l),
(251,169,l),
(251,260,l),
(333,260,l),
(333,169,l),
(423,169,l),
(423,88,l)
);
}
);
width = 677;
}
);
unicode = 38;
},
{
glyphname = parenleft;
layers = (
{
layerId = "2AAD9DA5-3897-4AC6-A4F9-A78ECEDC2410";
name = img;
width = 396;
},
{
layerId = "50F7179F-C30E-4DB1-9C2F-C70FE433AA29";
shapes = (
{
closed = 1;
nodes = (
(237,-151,l),
(365,-151,l),
(365,71,l),
(276,71,l),
(276,244,l),
(188,244,l),
(188,364,l),
(276,364,l),
(276,536,l),
(365,536,l),
(365,757,l),
(237,757,l),
(237,587,l),
(149,587,l),
(149,415,l),
(61,415,l),
(61,193,l),
(149,193,l),
(149,23,l),
(237,23,l)
);
}
);
width = 396;
},
{
layerId = "1F4A5B8F-71A6-4186-92A0-28F5C6507669";
shapes = (
{
closed = 1;
nodes = (
(241,-160,l),
(343,-160,l),
(343,31,l),
(251,31,l),
(251,214,l),
(161,214,l),
(161,385,l),
(251,385,l),
(251,567,l),
(343,567,l),
(343,757,l),
(241,757,l),
(241,577,l),
(151,577,l),
(151,395,l),
(60,395,l),
(60,204,l),
(151,204,l),
(151,24,l),
(241,24,l)
);
}
);
width = 374;
}
);
unicode = 40;
},
{
glyphname = asterisk;
layers = (
{
layerId = "2AAD9DA5-3897-4AC6-A4F9-A78ECEDC2410";
name = img;
width = 293;
},
{
layerId = "50F7179F-C30E-4DB1-9C2F-C70FE433AA29";
shapes = (
{
closed = 1;
nodes = (
(61,416,l),
(61,510,l),
(61,510,l),
(61,510,l),
(61,510,l),
(61,594,l),
(105,594,l),
(105,638,l),
(188,638,l),
(188,594,l),
(232,594,l),
(232,510,l),
(232,501,l),
(232,501,l),
(232,467,l),
(232,416,l),
(149,416,l),
(149,459,l),
(143,459,l),
(143,416,l)
);
}
);
width = 293;
},
{
layerId = "1F4A5B8F-71A6-4186-92A0-28F5C6507669";
shapes = (
{
closed = 1;
nodes = (
(60,440,l),
(60,496,l),
(105,496,l),
(105,530,l),
(60,530,l),
(60,585,l),
(105,585,l),
(105,631,l),
(161,631,l),
(161,585,l),
(206,585,l),
(206,530,l),
(161,530,l),
(161,496,l),
(206,496,l),
(206,440,l),
(151,440,l),
(151,486,l),
(115,486,l),
(115,440,l)
);
}
);
width = 267;
}
);
unicode = 42;
},
{
glyphname = plus;
layers = (
{
layerId = "2AAD9DA5-3897-4AC6-A4F9-A78ECEDC2410";
name = img;
width = 603;
},
{
layerId = "50F7179F-C30E-4DB1-9C2F-C70FE433AA29";
shapes = (
{
closed = 1;
nodes = (
(61,243,l),
(237,243,l),
(237,82,l),
(365,82,l),
(365,243,l),
(542,243,l),
(542,379,l),
(365,379,l),
(365,560,l),
(237,560,l),
(237,379,l),
(61,379,l)
);
}
);
width = 603;
},
{
layerId = "1F4A5B8F-71A6-4186-92A0-28F5C6507669";
shapes = (
{
closed = 1;
nodes = (
(60,257,l),
(241,257,l),
(241,87,l),
(343,87,l),
(343,257,l),
(525,257,l),
(525,357,l),
(343,357,l),
(343,549,l),
(241,549,l),
(241,357,l),
(60,357,l)
);
}
);
width = 586;
}
);
unicode = 43;
},
{
glyphname = hyphen;
leftMetricsKey = emdash;
layers = (
{
layerId = "2AAD9DA5-3897-4AC6-A4F9-A78ECEDC2410";
name = img;
width = 425;
},
{
layerId = "50F7179F-C30E-4DB1-9C2F-C70FE433AA29";
shapes = (
{
closed = 1;
nodes = (
(61,228,l),
(61,365,l),
(364,365,l),
(364,228,l)
);
}
);
width = 425;
},
{
layerId = "1F4A5B8F-71A6-4186-92A0-28F5C6507669";
shapes = (
{
closed = 1;
nodes = (
(60,241,l),
(60,342,l),
(342,342,l),
(342,241,l)
);
}
);
width = 403;
}
);
leftKerningGroup = _emdash;
rightKerningGroup = _emdash;
unicode = 45;
},
{
glyphname = slash;
layers = (
{
layerId = "2AAD9DA5-3897-4AC6-A4F9-A78ECEDC2410";
name = img;
width = 548;
},
{
layerId = "50F7179F-C30E-4DB1-9C2F-C70FE433AA29";
shapes = (
{
closed = 1;
nodes = (
(61,-11,l),
(176,-11,l),
(176,138,l),
(254,138,l),
(254,213,l),
(331,213,l),
(331,362,l),
(410,362,l),
(410,438,l),
(487,438,l),
(487,638,l),
(371,638,l),
(371,563,l),
(292,563,l),
(292,413,l),
(215,413,l),
(215,338,l),
(138,338,l),
(138,189,l),
(61,189,l)
);
}
);
width = 548;
},
{
layerId = "1F4A5B8F-71A6-4186-92A0-28F5C6507669";
shapes = (
{
closed = 1;
nodes = (
(60,-12,l),
(149,-12,l),
(149,146,l),
(229,146,l),
(229,225,l),
(308,225,l),
(308,383,l),
(389,383,l),
(389,463,l),
(468,463,l),
(468,631,l),
(379,631,l),
(379,552,l),
(298,552,l),
(298,393,l),
(219,393,l),
(219,314,l),
(139,314,l),
(139,156,l),
(60,156,l)
);
}
);
width = 529;
}
);
unicode = 47;
},
{
glyphname = parenright;
layers = (
{
layerId = "2AAD9DA5-3897-4AC6-A4F9-A78ECEDC2410";
name = img;
width = 396;
},
{
layerId = "50F7179F-C30E-4DB1-9C2F-C70FE433AA29";
shapes = (
{
closed = 1;
nodes = (
(31,-151,l),
(31,71,l),
(119,71,l),
(119,244,l),
(208,244,l),
(208,364,l),
(119,364,l),
(119,536,l),
(31,536,l),
(31,757,l),
(158,757,l),
(158,587,l),
(246,587,l),
(246,415,l),
(335,415,l),
(335,193,l),
(246,193,l),
(246,23,l),
(158,23,l),
(158,-151,l)
);
}
);
width = 396;
},
{
layerId = "1F4A5B8F-71A6-4186-92A0-28F5C6507669";
shapes = (
{
closed = 1;
nodes = (
(30,-160,l),
(30,31,l),
(121,31,l),
(121,214,l),
(212,214,l),
(212,385,l),
(121,385,l),
(121,567,l),
(30,567,l),
(30,757,l),
(131,757,l),
(131,577,l),
(222,577,l),
(222,395,l),
(313,395,l),
(313,204,l),
(222,204,l),
(222,24,l),
(131,24,l),
(131,-160,l)
);
}
);
width = 374;
}
);
unicode = 41;
},
{
glyphname = backslash;
layers = (
{
layerId = "2AAD9DA5-3897-4AC6-A4F9-A78ECEDC2410";
name = img;
width = 548;
},
{
layerId = "50F7179F-C30E-4DB1-9C2F-C70FE433AA29";
shapes = (
{
closed = 1;
nodes = (
(216,213,l),
(216,362,l),
(138,362,l),
(138,438,l),
(61,438,l),
(61,638,l),
(176,638,l),
(176,563,l),
(255,563,l),
(255,413,l),
(332,413,l),
(332,338,l),
(410,338,l),
(410,189,l),
(487,189,l),
(487,-11,l),
(371,-11,l),
(371,138,l),
(293,138,l),
(293,213,l)
);
}
);
width = 548;
},
{
layerId = "1F4A5B8F-71A6-4186-92A0-28F5C6507669";
shapes = (
{
closed = 1;
nodes = (
(220,225,l),
(220,383,l),
(139,383,l),
(139,463,l),
(60,463,l),
(60,631,l),
(149,631,l),
(149,552,l),
(230,552,l),
(230,393,l),
(309,393,l),
(309,314,l),
(389,314,l),
(389,156,l),
(468,156,l),
(468,-12,l),
(379,-12,l),
(379,146,l),
(299,146,l),
(299,225,l)
);
}
);
width = 529;
}
);
unicode = 92;
},
{
glyphname = quotesingle;
leftMetricsKey = quotedbl;
layers = (
{
layerId = "2AAD9DA5-3897-4AC6-A4F9-A78ECEDC2410";
name = img;
width = 293;
},
{
layerId = "50F7179F-C30E-4DB1-9C2F-C70FE433AA29";
shapes = (
{
closed = 1;
nodes = (
(105,416,l),
(105,480,l),
(105,480,l),
(105,501,l),
(61,501,l),
(61,638,l),
(188,638,l),
(188,552,l),
(232,552,l),
(232,459,l),
(188,459,l),
(188,416,l)
);
}
);
width = 293;
},
{
layerId = "1F4A5B8F-71A6-4186-92A0-28F5C6507669";
shapes = (
{
closed = 1;
nodes = (
(105,440,l),
(105,496,l),
(151,496,l),
(151,530,l),
(60,530,l),
(60,631,l),
(161,631,l),
(161,540,l),
(206,540,l),
(206,486,l),
(161,486,l),
(161,440,l)
);
}
);
width = 267;
}
);
leftKerningGroup = _quotedbl;
rightKerningGroup = _quotedbl;
unicode = 39;
},
{
glyphname = comma;
layers = (
{
layerId = "2AAD9DA5-3897-4AC6-A4F9-A78ECEDC2410";
name = img;
width = 293;
},
{
layerId = "50F7179F-C30E-4DB1-9C2F-C70FE433AA29";
shapes = (
{
closed = 1;
nodes = (
(105,-85,l),
(105,-21,l),
(105,-21,l),
(105,0,l),
(61,0,l),
(61,137,l),
(188,137,l),
(188,51,l),
(232,51,l),
(232,-41,l),
(188,-41,l),
(188,-85,l)
);
}
);
width = 293;
},
{
layerId = "1F4A5B8F-71A6-4186-92A0-28F5C6507669";
shapes = (
{
closed = 1;
nodes = (
(105,-90,l),
(105,-34,l),
(151,-34,l),
(151,0,l),
(60,0,l),
(60,101,l),
(161,101,l),
(161,10,l),
(206,10,l),
(206,-44,l),
(161,-44,l),
(161,-90,l)
);
}
);
width = 267;
}
);
leftKerningGroup = _comma;
rightKerningGroup = _comma1;
unicode = 44;
},
{
glyphname = period;
layers = (
{
layerId = "2AAD9DA5-3897-4AC6-A4F9-A78ECEDC2410";
name = img;
width = 249;
},
{
layerId = "50F7179F-C30E-4DB1-9C2F-C70FE433AA29";
shapes = (
{
closed = 1;
nodes = (
(61,0,l),
(61,137,l),
(188,137,l),
(188,0,l)
);
}
);
width = 249;
},
{
layerId = "1F4A5B8F-71A6-4186-92A0-28F5C6507669";
shapes = (
{
closed = 1;
nodes = (
(60,0,l),
(60,101,l),
(161,101,l),
(161,0,l)
);
}
);
width = 222;
}
);
leftKerningGroup = _comma;
rightKerningGroup = _period;
unicode = 46;
},
{
glyphname = colon;
layers = (
{
layerId = "2AAD9DA5-3897-4AC6-A4F9-A78ECEDC2410";
name = img;
width = 249;
},
{
layerId = "50F7179F-C30E-4DB1-9C2F-C70FE433AA29";
shapes = (
{
closed = 1;
nodes = (
(61,77,l),
(61,214,l),
(188,214,l),
(188,77,l)
);
},
{
closed = 1;
nodes = (
(61,245,l),
(61,381,l),
(188,381,l),
(188,245,l)
);
}
);
width = 249;
},
{
layerId = "1F4A5B8F-71A6-4186-92A0-28F5C6507669";
shapes = (
{
closed = 1;
nodes = (
(60,81,l),
(60,182,l),
(161,182,l),
(161,81,l)
);
},
{
closed = 1;
nodes = (
(60,259,l),
(60,359,l),
(161,359,l),
(161,259,l)
);
}
);
width = 222;
}
);
unicode = 58;
},
{
glyphname = semicolon;
layers = (
{
layerId = "2AAD9DA5-3897-4AC6-A4F9-A78ECEDC2410";
name = img;
width = 293;
},
{
layerId = "50F7179F-C30E-4DB1-9C2F-C70FE433AA29";
shapes = (
{
closed = 1;
nodes = (
(105,-8,l),
(105,56,l),
(105,56,l),
(105,77,l),
(61,77,l),
(61,214,l),
(188,214,l),
(188,128,l),
(232,128,l),
(232,35,l),
(188,35,l),
(188,-8,l)
);
},
{
closed = 1;
nodes = (
(61,245,l),
(61,381,l),
(188,381,l),
(188,245,l)
);
}
);
width = 293;
},
{
layerId = "1F4A5B8F-71A6-4186-92A0-28F5C6507669";
shapes = (
{
closed = 1;
nodes = (
(105,-9,l),
(105,46,l),
(151,46,l),
(151,81,l),
(60,81,l),
(60,182,l),
(161,182,l),
(161,91,l),
(206,91,l),
(206,37,l),
(161,37,l),
(161,-9,l)
);
},
{
closed = 1;
nodes = (
(60,259,l),
(60,359,l),
(161,359,l),
(161,259,l)
);
}
);
width = 267;
}
);
unicode = 59;
},
{
glyphname = question;
layers = (
{
layerId = "2AAD9DA5-3897-4AC6-A4F9-A78ECEDC2410";
name = img;
width = 603;
},
{
layerId = "50F7179F-C30E-4DB1-9C2F-C70FE433AA29";
shapes = (
{
closed = 1;
nodes = (
(237,-11,l),
(237,125,l),
(365,125,l),
(365,-11,l)
);
},
{
closed = 1;
nodes = (
(237,160,l),
(237,381,l),
(414,381,l),
(414,501,l),
(188,501,l),
(188,331,l),
(61,331,l),
(61,552,l),
(149,552,l),
(149,638,l),
(453,638,l),
(453,552,l),
(542,552,l),
(542,331,l),
(453,331,l),
(453,246,l),
(365,246,l),
(365,160,l)
);
}
);
width = 603;
},
{
layerId = "1F4A5B8F-71A6-4186-92A0-28F5C6507669";
shapes = (
{
closed = 1;
nodes = (
(241,-12,l),
(241,88,l),
(343,88,l),
(343,-12,l)
);
},
{
closed = 1;
nodes = (
(241,169,l),
(241,359,l),
(423,359,l),
(423,530,l),
(161,530,l),
(161,350,l),
(60,350,l),
(60,540,l),
(151,540,l),
(151,631,l),
(433,631,l),
(433,540,l),
(525,540,l),
(525,350,l),
(433,350,l),
(433,260,l),
(343,260,l),
(343,169,l)
);
}
);
width = 586;
}
);
unicode = 63;
},
{
glyphname = at;
layers = (
{
layerId = "2AAD9DA5-3897-4AC6-A4F9-A78ECEDC2410";
name = img;
width = 649;
},
{
layerId = "50F7179F-C30E-4DB1-9C2F-C70FE433AA29";
shapes = (
{
closed = 1;
nodes = (
(249,217,l),
(249,293,l),
(336,293,l),
(336,217,l)
);
},
{
closed = 1;
nodes = (
(105,124,l),
(150,124,l),
(150,79,l),
(369,79,l),
(369,118,l),
(189,118,l),
(189,161,l),
(144,161,l),
(144,367,l),
(160,367,l),
(160,411,l),
(393,411,l),
(393,367,l),
(438,367,l),
(438,323,l),
(473,323,l),
(473,268,l),
(428,268,l),
(428,217,l),
(396,217,l),
(396,326,l),
(376,326,l),
(376,345,l),
(210,345,l),
(210,326,l),
(188,326,l),
(188,185,l),
(210,185,l),
(210,167,l),
(356,167,l),
(356,185,l),
(377,185,l),
(377,167,l),
(467,167,l),
(467,191,l),
(493,191,l),
(493,235,l),
(538,235,l),
(538,356,l),
(483,356,l),
(483,400,l),
(438,400,l),
(438,443,l),
(413,443,l),
(413,468,l),
(150,468,l),
(150,443,l),
(105,443,l),
(105,400,l),
(80,400,l),
(80,148,l),
(105,148,l)
);
}
);
width = 673;
},
{
layerId = "1F4A5B8F-71A6-4186-92A0-28F5C6507669";
shapes = (
{
closed = 1;
nodes = (
(222,200,l),
(222,303,l),
(340,303,l),
(340,200,l)
);
},
{
closed = 1;
nodes = (
(105,108,l),
(151,108,l),
(151,62,l),
(343,62,l),
(343,118,l),
(161,118,l),
(161,163,l),
(115,163,l),
(115,379,l),
(161,379,l),
(161,424,l),
(378,424,l),
(378,379,l),
(423,379,l),
(423,334,l),
(469,334,l),
(469,253,l),
(423,253,l),
(423,200,l),
(391,200,l),
(391,313,l),
(350,313,l),
(350,352,l),
(212,352,l),
(212,313,l),
(170,313,l),
(170,191,l),
(212,191,l),
(212,153,l),
(350,153,l),
(350,191,l),
(381,191,l),
(381,153,l),
(433,153,l),
(433,198,l),
(479,198,l),
(479,243,l),
(525,243,l),
(525,344,l),
(479,344,l),
(479,389,l),
(433,389,l),
(433,433,l),
(388,433,l),
(388,479,l),
(151,479,l),
(151,433,l),
(105,433,l),
(105,389,l),
(60,389,l),
(60,153,l),
(105,153,l)
);
}
);
width = 586;
}
);
unicode = 64;
},
{
glyphname = less;
layers = (
{
layerId = "2AAD9DA5-3897-4AC6-A4F9-A78ECEDC2410";
name = img;
width = 573;
},
{
layerId = "50F7179F-C30E-4DB1-9C2F-C70FE433AA29";
shapes = (
{
closed = 1;
nodes = (
(237,71,l),
(326,71,l),
(326,-15,l),
(414,-15,l),
(414,-101,l),
(542,-101,l),
(542,36,l),
(453,36,l),
(453,122,l),
(365,122,l),
(365,207,l),
(276,207,l),
(276,293,l),
(188,293,l),
(188,327,l),
(276,327,l),
(276,412,l),
(365,412,l),
(365,498,l),
(453,498,l),
(453,583,l),
(542,583,l),
(542,720,l),
(414,720,l),
(414,634,l),
(326,634,l),
(326,549,l),
(237,549,l),
(237,463,l),
(149,463,l),
(149,377,l),
(61,377,l),
(61,242,l),
(149,242,l),
(149,156,l),
(237,156,l)
);
}
);
width = 573;
},
{
layerId = "1F4A5B8F-71A6-4186-92A0-28F5C6507669";
shapes = (
{
closed = 1;
nodes = (
(241,75,l),
(333,75,l),
(333,-16,l),
(423,-16,l),
(423,-107,l),
(525,-107,l),
(525,-6,l),
(433,-6,l),
(433,85,l),
(343,85,l),
(343,175,l),
(251,175,l),
(251,266,l),
(161,266,l),
(161,346,l),
(251,346,l),
(251,436,l),
(343,436,l),
(343,527,l),
(433,527,l),
(433,617,l),
(525,617,l),
(525,718,l),
(423,718,l),
(423,627,l),
(333,627,l),
(333,537,l),
(241,537,l),
(241,446,l),
(151,446,l),
(151,355,l),
(60,355,l),
(60,256,l),
(151,256,l),
(151,165,l),
(241,165,l)
);
}
);
width = 556;
}
);
leftKerningGroup = _less;
rightKerningGroup = _less1;
unicode = 60;
},
{
glyphname = greater;
layers = (
{
layerId = "2AAD9DA5-3897-4AC6-A4F9-A78ECEDC2410";
name = img;
width = 573;
},
{
layerId = "50F7179F-C30E-4DB1-9C2F-C70FE433AA29";
shapes = (
{
closed = 1;
nodes = (
(31,-101,l),
(31,36,l),
(119,36,l),
(119,122,l),
(208,122,l),
(208,207,l),
(296,207,l),
(296,293,l),
(385,293,l),
(385,327,l),
(296,327,l),
(296,412,l),
(208,412,l),
(208,498,l),
(119,498,l),
(119,583,l),
(31,583,l),
(31,720,l),
(158,720,l),
(158,634,l),
(246,634,l),
(246,549,l),
(335,549,l),
(335,463,l),
(422,463,l),
(422,377,l),
(512,377,l),
(512,242,l),
(422,242,l),
(422,156,l),
(335,156,l),
(335,71,l),
(246,71,l),
(246,-15,l),
(158,-15,l),
(158,-101,l)
);
}
);
width = 573;
},
{
layerId = "1F4A5B8F-71A6-4186-92A0-28F5C6507669";
shapes = (
{
closed = 1;
nodes = (
(30,-107,l),
(30,-6,l),
(121,-6,l),
(121,85,l),
(212,85,l),
(212,175,l),
(303,175,l),
(303,266,l),
(394,266,l),
(394,346,l),
(303,346,l),
(303,436,l),
(212,436,l),
(212,527,l),
(121,527,l),
(121,617,l),
(30,617,l),
(30,718,l),
(131,718,l),
(131,627,l),
(222,627,l),
(222,537,l),
(313,537,l),
(313,446,l),
(403,446,l),
(403,355,l),
(495,355,l),
(495,256,l),
(403,256,l),
(403,165,l),
(313,165,l),
(313,75,l),
(222,75,l),
(222,-16,l),
(131,-16,l),
(131,-107,l)
);
}
);
width = 556;
}
);
leftKerningGroup = _greater;
rightKerningGroup = _greater1;
unicode = 62;
},
{
glyphname = bracketleft;
layers = (
{
layerId = "2AAD9DA5-3897-4AC6-A4F9-A78ECEDC2410";
name = img;
width = 396;
},
{
layerId = "50F7179F-C30E-4DB1-9C2F-C70FE433AA29";
shapes = (
{
closed = 1;
nodes = (
(61,29,l),
(149,29,l),
(149,-57,l),
(365,-57,l),
(365,80,l),
(188,80,l),
(188,541,l),
(365,541,l),
(365,677,l),
(149,677,l),
(149,592,l),
(61,592,l)
);
}
);
width = 396;
},
{
layerId = "1F4A5B8F-71A6-4186-92A0-28F5C6507669";
shapes = (
{
closed = 1;
nodes = (
(60,30,l),
(151,30,l),
(151,-61,l),
(343,-61,l),
(343,40,l),
(161,40,l),
(161,572,l),
(343,572,l),
(343,672,l),
(151,672,l),
(151,582,l),
(60,582,l)
);
}
);
width = 374;
}
);
unicode = 91;
},
{
glyphname = bracketright;
layers = (
{
layerId = "2AAD9DA5-3897-4AC6-A4F9-A78ECEDC2410";
name = img;
width = 396;
},
{
layerId = "50F7179F-C30E-4DB1-9C2F-C70FE433AA29";
shapes = (
{
closed = 1;
nodes = (
(31,-57,l),
(31,80,l),
(208,80,l),
(208,541,l),
(31,541,l),
(31,677,l),
(246,677,l),
(246,592,l),
(335,592,l),
(335,29,l),
(246,29,l),
(246,-57,l)
);
}
);
width = 396;
},
{
layerId = "1F4A5B8F-71A6-4186-92A0-28F5C6507669";
shapes = (
{
closed = 1;
nodes = (
(30,-61,l),
(30,40,l),
(212,40,l),
(212,572,l),
(30,572,l),
(30,672,l),
(222,672,l),
(222,582,l),
(313,582,l),
(313,30,l),
(222,30,l),
(222,-61,l)
);
}
);
width = 374;
}
);
unicode = 93;
},
{
glyphname = asciicircum;
layers = (
{
layerId = "2AAD9DA5-3897-4AC6-A4F9-A78ECEDC2410";
name = img;
width = 293;
},
{
layerId = "50F7179F-C30E-4DB1-9C2F-C70FE433AA29";
shapes = (
{
closed = 1;
nodes = (
(61,501,l),
(143,501,l),
(143,544,l),
(149,544,l),
(149,501,l),
(232,501,l),
(232,594,l),
(188,594,l),
(188,638,l),
(105,638,l),
(105,594,l),
(61,594,l)
);
}
);
width = 293;
},
{
layerId = "1F4A5B8F-71A6-4186-92A0-28F5C6507669";
shapes = (
{
closed = 1;
nodes = (
(60,530,l),
(115,530,l),
(115,576,l),
(151,576,l),
(151,530,l),
(206,530,l),
(206,585,l),
(161,585,l),
(161,631,l),
(105,631,l),
(105,585,l),
(60,585,l)
);
}
);
width = 267;
}
);
unicode = 94;
},
{
glyphname = underscore;
leftMetricsKey = period;
layers = (
{
layerId = "2AAD9DA5-3897-4AC6-A4F9-A78ECEDC2410";
name = img;
width = 463;
},
{
layerId = "50F7179F-C30E-4DB1-9C2F-C70FE433AA29";
shapes = (
{
closed = 1;
nodes = (
(61,0,l),
(61,137,l),
(403,137,l),
(403,0,l)
);
}
);
width = 463;
},
{
layerId = "1F4A5B8F-71A6-4186-92A0-28F5C6507669";
shapes = (
{
closed = 1;
nodes = (
(60,0,l),
(60,101,l),
(382,101,l),
(382,0,l)
);
}
);
width = 442;
}
);
leftKerningGroup = _comma;
rightKerningGroup = _period;
unicode = 95;
},
{
glyphname = grave;
layers = (
{
layerId = "2AAD9DA5-3897-4AC6-A4F9-A78ECEDC2410";
name = img;
width = 293;
},
{
layerId = "50F7179F-C30E-4DB1-9C2F-C70FE433AA29";
shapes = (
{
closed = 1;
nodes = (
(105,501,l),
(149,501,l),
(149,459,l),
(232,459,l),
(232,552,l),
(188,552,l),
(188,594,l),
(143,594,l),
(143,638,l),
(61,638,l),
(61,544,l),
(105,544,l)
);
}
);
width = 293;
},
{
layerId = "1F4A5B8F-71A6-4186-92A0-28F5C6507669";
shapes = (
{
closed = 1;
nodes = (
(105,530,l),
(151,530,l),
(151,486,l),
(206,486,l),
(206,540,l),
(161,540,l),
(161,585,l),
(115,585,l),
(115,631,l),
(60,631,l),
(60,576,l),
(105,576,l)
);
}
);
width = 267;
}
);
unicode = 96;
},
{
glyphname = braceleft;
layers = (
{
layerId = "2AAD9DA5-3897-4AC6-A4F9-A78ECEDC2410";
name = img;
width = 484;
},
{
layerId = "50F7179F-C30E-4DB1-9C2F-C70FE433AA29";
shapes = (
{
closed = 1;
nodes = (
(119,-15,l),
(208,-15,l),
(208,-101,l),
(335,-101,l),
(335,-15,l),
(422,-15,l),
(422,122,l),
(296,122,l),
(296,36,l),
(246,36,l),
(246,293,l),
(158,293,l),
(158,327,l),
(246,327,l),
(246,583,l),
(296,583,l),
(296,498,l),
(422,498,l),
(422,634,l),
(335,634,l),
(335,720,l),
(208,720,l),
(208,634,l),
(119,634,l),
(119,377,l),
(31,377,l),
(31,242,l),
(119,242,l)
);
}
);
width = 484;
},
{
layerId = "1F4A5B8F-71A6-4186-92A0-28F5C6507669";
shapes = (
{
closed = 1;
nodes = (
(121,-16,l),
(212,-16,l),
(212,-107,l),
(313,-107,l),
(313,-16,l),
(403,-16,l),
(403,85,l),
(303,85,l),
(303,-6,l),
(222,-6,l),
(222,266,l),
(131,266,l),
(131,346,l),
(222,346,l),
(222,617,l),
(303,617,l),
(303,527,l),
(403,527,l),
(403,627,l),
(313,627,l),
(313,718,l),
(212,718,l),
(212,627,l),
(121,627,l),
(121,355,l),
(30,355,l),
(30,256,l),
(121,256,l)
);
}
);
width = 464;
}
);
unicode = 123;
},
{
glyphname = braceright;
layers = (
{
layerId = "2AAD9DA5-3897-4AC6-A4F9-A78ECEDC2410";
name = img;
width = 484;
},
{
layerId = "50F7179F-C30E-4DB1-9C2F-C70FE433AA29";
shapes = (
{
closed = 1;
nodes = (
(118,-101,l),
(118,-15,l),
(31,-15,l),
(31,122,l),
(157,122,l),
(157,36,l),
(208,36,l),
(208,293,l),
(295,293,l),
(295,327,l),
(208,327,l),
(208,583,l),
(157,583,l),
(157,498,l),
(31,498,l),
(31,634,l),
(118,634,l),
(118,720,l),
(246,720,l),
(246,634,l),
(334,634,l),
(334,377,l),
(422,377,l),
(422,242,l),
(334,242,l),
(334,-15,l),
(246,-15,l),
(246,-101,l)
);
}
);
width = 484;
},
{
layerId = "1F4A5B8F-71A6-4186-92A0-28F5C6507669";
shapes = (
{
closed = 1;
nodes = (
(120,-107,l),
(120,-16,l),
(30,-16,l),
(30,85,l),
(130,85,l),
(130,-6,l),
(212,-6,l),
(212,266,l),
(302,266,l),
(302,346,l),
(212,346,l),
(212,617,l),
(130,617,l),
(130,527,l),
(30,527,l),
(30,627,l),
(120,627,l),
(120,718,l),
(222,718,l),
(222,627,l),
(312,627,l),
(312,355,l),
(403,355,l),
(403,256,l),
(312,256,l),
(312,-16,l),
(222,-16,l),
(222,-107,l)
);
}
);
width = 464;
}
);
unicode = 125;
},
{
glyphname = bar;
leftMetricsKey = H;
rightMetricsKey = H;
layers = (
{
layerId = "2AAD9DA5-3897-4AC6-A4F9-A78ECEDC2410";
name = img;
width = 603;
},
{
layerId = "50F7179F-C30E-4DB1-9C2F-C70FE433AA29";
shapes = (
{
closed = 1;
nodes = (
(61,-11,l),
(188,-11,l),
(188,638,l),
(61,638,l)
);
}
);
width = 249;
},
{
layerId = "1F4A5B8F-71A6-4186-92A0-28F5C6507669";
shapes = (
{
closed = 1;
nodes = (
(60,-12,l),
(161,-12,l),
(161,631,l),
(60,631,l)
);
}
);
width = 222;
}
);
leftKerningGroup = _D;
rightKerningGroup = _H;
unicode = 124;
},
{
glyphname = asciitilde;
layers = (
{
layerId = "2AAD9DA5-3897-4AC6-A4F9-A78ECEDC2410";
name = img;
width = 391;
},
{
layerId = "50F7179F-C30E-4DB1-9C2F-C70FE433AA29";
shapes = (
{
closed = 1;
nodes = (
(61,186,l),
(145,186,l),
(145,231,l),
(152,231,l),
(152,186,l),
(330,186,l),
(330,325,l),
(245,325,l),
(245,282,l),
(238,282,l),
(238,325,l),
(61,325,l)
);
}
);
width = 391;
},
{
layerId = "1F4A5B8F-71A6-4186-92A0-28F5C6507669";
shapes = (
{
closed = 1;
nodes = (
(60,197,l),
(117,197,l),
(117,244,l),
(154,244,l),
(154,197,l),
(307,197,l),
(307,300,l),
(249,300,l),
(249,254,l),
(212,254,l),
(212,300,l),
(60,300,l)
);
}
);
width = 368;
}
);
unicode = 126;
},
{
glyphname = Euro;
layers = (
{
layerId = "2AAD9DA5-3897-4AC6-A4F9-A78ECEDC2410";
name = img;
width = 603;
},
{
layerId = "50F7179F-C30E-4DB1-9C2F-C70FE433AA29";
shapes = (
{
closed = 1;
nodes = (
(61,74,l),
(149,74,l),
(149,-11,l),
(453,-11,l),
(453,74,l),
(542,74,l),
(542,297,l),
(414,297,l),
(414,125,l),
(188,125,l),
(188,168,l),
(366,168,l),
(366,304,l),
(188,304,l),
(188,309,l),
(366,309,l),
(366,446,l),
(188,446,l),
(188,501,l),
(414,501,l),
(414,331,l),
(542,331,l),
(542,552,l),
(453,552,l),
(453,638,l),
(149,638,l),
(149,552,l),
(61,552,l)
);
}
);
width = 603;
},
{
layerId = "1F4A5B8F-71A6-4186-92A0-28F5C6507669";
shapes = (
{
closed = 1;
nodes = (
(60,78,l),
(151,78,l),
(151,-12,l),
(433,-12,l),
(433,78,l),
(525,78,l),
(525,270,l),
(423,270,l),
(423,88,l),
(161,88,l),
(161,178,l),
(344,178,l),
(344,278,l),
(161,278,l),
(161,327,l),
(344,327,l),
(344,428,l),
(161,428,l),
(161,530,l),
(423,530,l),
(423,350,l),
(525,350,l),
(525,540,l),
(433,540,l),
(433,631,l),
(151,631,l),
(151,540,l),
(60,540,l)
);
}
);
width = 586;
}
);
leftKerningGroup = _B;
unicode = 8364;
},
{
glyphname = section;
layers = (
{
layerId = "2AAD9DA5-3897-4AC6-A4F9-A78ECEDC2410";
name = img;
width = 603;
},
{
layerId = "50F7179F-C30E-4DB1-9C2F-C70FE433AA29";
shapes = (
{
closed = 1;
nodes = (
(61,74,l),
(149,74,l),
(149,-11,l),
(542,-11,l),
(542,125,l),
(188,125,l),
(188,160,l),
(542,160,l),
(542,297,l),
(453,297,l),
(453,381,l),
(188,381,l),
(188,501,l),
(414,501,l),
(414,416,l),
(542,416,l),
(542,552,l),
(453,552,l),
(453,638,l),
(149,638,l),
(149,552,l),
(61,552,l),
(61,331,l),
(149,331,l),
(149,297,l),
(61,297,l)
);
}
);
width = 603;
},
{
layerId = "1F4A5B8F-71A6-4186-92A0-28F5C6507669";
shapes = (
{
closed = 1;
nodes = (
(60,78,l),
(151,78,l),
(151,-12,l),
(525,-12,l),
(525,88,l),
(161,88,l),
(161,169,l),
(525,169,l),
(525,270,l),
(433,270,l),
(433,359,l),
(161,359,l),
(161,530,l),
(423,530,l),
(423,440,l),
(525,440,l),
(525,540,l),
(433,540,l),
(433,631,l),
(151,631,l),
(151,540,l),
(60,540,l),
(60,350,l),
(151,350,l),
(151,270,l),
(60,270,l)
);
}
);
width = 586;
}
);
leftKerningGroup = _eight;
unicode = 167;
},
{
glyphname = copyright;
layers = (
{
layerId = "2AAD9DA5-3897-4AC6-A4F9-A78ECEDC2410";
name = img;
width = 432;
},
{
layerId = "50F7179F-C30E-4DB1-9C2F-C70FE433AA29";
shapes = (
{
closed = 1;
nodes = (
(124,420,l),
(124,548,l),
(309,548,l),
(309,420,l)
);
},
{
closed = 1;
nodes = (
(70,387,l),
(115,387,l),
(115,372,l),
(318,372,l),
(318,387,l),
(364,387,l),
(364,581,l),
(318,581,l),
(318,596,l),
(115,596,l),
(115,581,l),
(70,581,l)
);
},
{
closed = 1;
nodes = (
(166,441,l),
(174,441,l),
(174,434,l),
(264,434,l),
(264,441,l),
(271,441,l),
(271,482,l),
(235,482,l),
(235,474,l),
(203,474,l),
(203,491,l),
(235,491,l),
(235,485,l),
(271,485,l),
(271,524,l),
(264,524,l),
(264,533,l),
(174,533,l),
(174,524,l),
(166,524,l)
);
}
);
width = 458;
},
{
layerId = "1F4A5B8F-71A6-4186-92A0-28F5C6507669";
shapes = (
{
closed = 1;
nodes = (
(125,410,l),
(125,566,l),
(282,566,l),
(282,410,l)
);
},
{
closed = 1;
nodes = (
(70,400,l),
(115,400,l),
(115,354,l),
(292,354,l),
(292,400,l),
(338,400,l),
(338,576,l),
(292,576,l),
(292,621,l),
(115,621,l),
(115,576,l),
(70,576,l)
);
},
{
closed = 1;
nodes = (
(157,455,l),
(175,455,l),
(175,438,l),
(237,438,l),
(237,455,l),
(254,455,l),
(254,484,l),
(227,484,l),
(227,465,l),
(185,465,l),
(185,507,l),
(227,507,l),
(227,491,l),
(254,491,l),
(254,517,l),
(237,517,l),
(237,536,l),
(175,536,l),
(175,517,l),
(157,517,l)
);
}
);
width = 409;
}
);
leftKerningGroup = _copyright;
rightKerningGroup = _copyright;
unicode = 169;
},
{
glyphname = minus;
layers = (
{
layerId = "2AAD9DA5-3897-4AC6-A4F9-A78ECEDC2410";
name = img;
width = 522;
},
{
layerId = "50F7179F-C30E-4DB1-9C2F-C70FE433AA29";
shapes = (
{
closed = 1;
nodes = (
(61,228,l),
(61,365,l),
(460,365,l),
(460,228,l)
);
}
);
width = 522;
},
{
layerId = "1F4A5B8F-71A6-4186-92A0-28F5C6507669";
shapes = (
{
closed = 1;
nodes = (
(60,241,l),
(60,342,l),
(441,342,l),
(441,241,l)
);
}
);
width = 502;
}
);
unicode = 8722;
},
{
glyphname = currency;
layers = (
{
layerId = "2AAD9DA5-3897-4AC6-A4F9-A78ECEDC2410";
name = img;
width = 578;
},
{
layerId = "50F7179F-C30E-4DB1-9C2F-C70FE433AA29";
shapes = (
{
closed = 1;
nodes = (
(432,403,l),
(517,403,l),
(517,481,l),
(432,481,l)
);
},
{
closed = 1;
nodes = (
(60,403,l),
(145,403,l),
(145,481,l),
(60,481,l)
);
},
{
closed = 1;
nodes = (
(432,135,l),
(517,135,l),
(517,213,l),
(432,213,l)
);
},
{
closed = 1;
nodes = (
(240,257,l),
(240,358,l),
(337,358,l),
(337,257,l)
);
},
{
closed = 1;
nodes = (
(200,180,l),
(377,180,l),
(377,224,l),
(422,224,l),
(422,391,l),
(377,391,l),
(377,436,l),
(200,436,l),
(200,391,l),
(155,391,l),
(155,224,l),
(200,224,l)
);
},
{
closed = 1;
nodes = (
(60,135,l),
(145,135,l),
(145,213,l),
(60,213,l)
);
}
);
width = 578;
},
{
layerId = "1F4A5B8F-71A6-4186-92A0-28F5C6507669";
shapes = (
{
closed = 1;
nodes = (
(337,416,l),
(394,416,l),
(394,472,l),
(337,472,l)
);
},
{
closed = 1;
nodes = (
(60,416,l),
(116,416,l),
(116,472,l),
(60,472,l)
);
},
{
closed = 1;
nodes = (
(337,140,l),
(394,140,l),
(394,196,l),
(337,196,l)
);
},
{
closed = 1;
nodes = (
(162,242,l),
(162,370,l),
(291,370,l),
(291,242,l)
);
},
{
closed = 1;
nodes = (
(152,186,l),
(301,186,l),
(301,232,l),
(347,232,l),
(347,380,l),
(301,380,l),
(301,426,l),
(152,426,l),
(152,380,l),
(106,380,l),
(106,232,l),
(152,232,l)
);
},
{
closed = 1;
nodes = (
(60,140,l),
(116,140,l),
(116,196,l),
(60,196,l)
);
}
);
width = 454;
}
);
unicode = 164;
},
{
glyphname = exclamdown;
layers = (
{
layerId = "2AAD9DA5-3897-4AC6-A4F9-A78ECEDC2410";
name = img;
width = 249;
},
{
layerId = "50F7179F-C30E-4DB1-9C2F-C70FE433AA29";
shapes = (
{
closed = 1;
nodes = (
(61,502,l),
(61,638,l),
(188,638,l),
(188,502,l)
);
},
{
closed = 1;
nodes = (
(61,-11,l),
(61,467,l),
(188,467,l),
(188,-11,l)
);
}
);
width = 249;
},
{
layerId = "1F4A5B8F-71A6-4186-92A0-28F5C6507669";
shapes = (
{
closed = 1;
nodes = (
(60,531,l),
(60,631,l),
(161,631,l),
(161,531,l)
);
},
{
closed = 1;
nodes = (
(60,-12,l),
(60,450,l),
(161,450,l),
(161,-12,l)
);
}
);
width = 222;
}
);
unicode = 161;
},
{
glyphname = questiondown;
layers = (
{
layerId = "2AAD9DA5-3897-4AC6-A4F9-A78ECEDC2410";
name = img;
width = 603;
},
{
layerId = "50F7179F-C30E-4DB1-9C2F-C70FE433AA29";
shapes = (
{
closed = 1;
nodes = (
(149,-11,l),
(149,75,l),
(61,75,l),
(61,297,l),
(149,297,l),
(149,381,l),
(237,381,l),
(237,467,l),
(365,467,l),
(365,246,l),
(188,246,l),
(188,126,l),
(414,126,l),
(414,297,l),
(542,297,l),
(542,75,l),
(453,75,l),
(453,-11,l)
);
},
{
closed = 1;
nodes = (
(237,502,l),
(237,638,l),
(365,638,l),
(365,502,l)
);
}
);
width = 603;
},
{
layerId = "1F4A5B8F-71A6-4186-92A0-28F5C6507669";
shapes = (
{
closed = 1;
nodes = (
(151,-12,l),
(151,79,l),
(60,79,l),
(60,270,l),
(151,270,l),
(151,359,l),
(241,359,l),
(241,450,l),
(343,450,l),
(343,260,l),
(161,260,l),
(161,89,l),
(423,89,l),
(423,270,l),
(525,270,l),
(525,79,l),
(433,79,l),
(433,-12,l)
);
},
{
closed = 1;
nodes = (
(241,531,l),
(241,631,l),
(343,631,l),
(343,531,l)
);
}
);
width = 586;
}
);
unicode = 191;
},
{
glyphname = sterling;
layers = (
{
layerId = "2AAD9DA5-3897-4AC6-A4F9-A78ECEDC2410";
name = img;
width = 691;
},
{
layerId = "50F7179F-C30E-4DB1-9C2F-C70FE433AA29";
shapes = (
{
closed = 1;
nodes = (
(61,-11,l),
(61,125,l),
(149,125,l),
(149,552,l),
(237,552,l),
(237,638,l),
(542,638,l),
(542,552,l),
(630,552,l),
(630,416,l),
(503,416,l),
(503,501,l),
(276,501,l),
(276,381,l),
(453,381,l),
(453,246,l),
(276,246,l),
(276,125,l),
(503,125,l),
(503,211,l),
(630,211,l),
(630,74,l),
(542,74,l),
(542,-11,l)
);
}
);
width = 691;
},
{
layerId = "1F4A5B8F-71A6-4186-92A0-28F5C6507669";
shapes = (
{
closed = 1;
nodes = (
(60,-12,l),
(60,88,l),
(151,88,l),
(151,540,l),
(241,540,l),
(241,631,l),
(525,631,l),
(525,540,l),
(615,540,l),
(615,440,l),
(515,440,l),
(515,530,l),
(251,530,l),
(251,359,l),
(433,359,l),
(433,260,l),
(251,260,l),
(251,88,l),
(515,88,l),
(515,179,l),
(615,179,l),
(615,78,l),
(525,78,l),
(525,-12,l)
);
}
);
width = 676;
}
);
leftKerningGroup = _lira;
unicode = 163;
},
{
glyphname = yen;
layers = (
{
layerId = "2AAD9DA5-3897-4AC6-A4F9-A78ECEDC2410";
name = img;
width = 626;
},
{
layerId = "50F7179F-C30E-4DB1-9C2F-C70FE433AA29";
shapes = (
{
closed = 1;
nodes = (
(150,58,l),
(239,58,l),
(239,-12,l),
(369,-12,l),
(369,58,l),
(457,58,l),
(457,139,l),
(369,139,l),
(369,189,l),
(457,189,l),
(457,271,l),
(369,271,l),
(369,339,l),
(457,339,l),
(457,426,l),
(548,426,l),
(548,635,l),
(418,635,l),
(418,459,l),
(329,459,l),
(329,371,l),
(278,371,l),
(278,459,l),
(189,459,l),
(189,635,l),
(60,635,l),
(60,426,l),
(150,426,l),
(150,339,l),
(239,339,l),
(239,271,l),
(150,271,l),
(150,189,l),
(239,189,l),
(239,139,l),
(150,139,l)
);
}
);
width = 626;
},
{
layerId = "1F4A5B8F-71A6-4186-92A0-28F5C6507669";
shapes = (
{
closed = 1;
nodes = (
(151,70,l),
(241,70,l),
(241,-12,l),
(343,-12,l),
(343,70,l),
(433,70,l),
(433,170,l),
(343,170,l),
(343,205,l),
(433,205,l),
(433,306,l),
(343,306,l),
(343,350,l),
(433,350,l),
(433,440,l),
(525,440,l),
(525,631,l),
(423,631,l),
(423,450,l),
(333,450,l),
(333,359,l),
(251,359,l),
(251,450,l),
(161,450,l),
(161,631,l),
(60,631,l),
(60,440,l),
(151,440,l),
(151,350,l),
(241,350,l),
(241,306,l),
(151,306,l),
(151,205,l),
(241,205,l),
(241,170,l),
(151,170,l)
);
}
);
width = 586;
}
);
unicode = 165;
},
{
glyphname = quotedblright;
leftMetricsKey = quotedbl;
layers = (
{
layerId = "2AAD9DA5-3897-4AC6-A4F9-A78ECEDC2410";
name = img;
width = 486;
},
{
layerId = "50F7179F-C30E-4DB1-9C2F-C70FE433AA29";
shapes = (
{
closed = 1;
nodes = (
(105,416,l),
(105,480,l),
(105,480,l),
(105,501,l),
(61,501,l),
(61,638,l),
(188,638,l),
(188,552,l),
(232,552,l),
(232,459,l),
(188,459,l),
(188,416,l)
);
},
{
closed = 1;
nodes = (
(298,416,l),
(298,480,l),
(298,480,l),
(298,501,l),
(253,501,l),
(253,638,l),
(382,638,l),
(382,552,l),
(424,552,l),
(424,459,l),
(382,459,l),
(382,416,l)
);
}
);
width = 486;
},
{
layerId = "1F4A5B8F-71A6-4186-92A0-28F5C6507669";
shapes = (
{
closed = 1;
nodes = (
(105,440,l),
(105,496,l),
(151,496,l),
(151,530,l),
(60,530,l),
(60,631,l),
(161,631,l),
(161,540,l),
(206,540,l),
(206,486,l),
(161,486,l),
(161,440,l)
);
},
{
closed = 1;
nodes = (
(304,440,l),
(304,496,l),
(350,496,l),
(350,530,l),
(258,530,l),
(258,631,l),
(360,631,l),
(360,540,l),
(404,540,l),
(404,486,l),
(360,486,l),
(360,440,l)
);
}
);
width = 465;
}
);
leftKerningGroup = _quotedbl;
rightKerningGroup = _quotedbl;
unicode = 8221;
},
{
glyphname = quotedblleft;
leftMetricsKey = quoteleft;
layers = (
{
layerId = "2AAD9DA5-3897-4AC6-A4F9-A78ECEDC2410";
name = img;
width = 486;
},
{
layerId = "50F7179F-C30E-4DB1-9C2F-C70FE433AA29";
shapes = (
{
closed = 1;
nodes = (
(104,416,l),
(104,502,l),
(61,502,l),
(61,594,l),
(104,594,l),
(104,638,l),
(187,638,l),
(187,574,l),
(187,574,l),
(187,553,l),
(232,553,l),
(232,416,l)
);
},
{
closed = 1;
nodes = (
(297,416,l),
(297,502,l),
(253,502,l),
(253,594,l),
(297,594,l),
(297,638,l),
(381,638,l),
(381,574,l),
(381,574,l),
(381,553,l),
(424,553,l),
(424,416,l)
);
}
);
width = 486;
},
{
layerId = "1F4A5B8F-71A6-4186-92A0-28F5C6507669";
shapes = (
{
closed = 1;
nodes = (
(104,440,l),
(104,531,l),
(60,531,l),
(60,585,l),
(104,585,l),
(104,631,l),
(160,631,l),
(160,576,l),
(114,576,l),
(114,541,l),
(206,541,l),
(206,440,l)
);
},
{
closed = 1;
nodes = (
(303,440,l),
(303,531,l),
(258,531,l),
(258,585,l),
(303,585,l),
(303,631,l),
(359,631,l),
(359,576,l),
(313,576,l),
(313,541,l),
(404,541,l),
(404,440,l)
);
}
);
width = 465;
}
);
leftKerningGroup = _quoteleft;
rightKerningGroup = _quoteleft;
unicode = 8220;
},
{
glyphname = quoteright;
leftMetricsKey = quotedbl;
layers = (
{
layerId = "2AAD9DA5-3897-4AC6-A4F9-A78ECEDC2410";
name = img;
width = 293;
},
{
layerId = "50F7179F-C30E-4DB1-9C2F-C70FE433AA29";
shapes = (
{
closed = 1;
nodes = (
(105,416,l),
(105,480,l),
(105,480,l),
(105,501,l),
(61,501,l),
(61,638,l),
(188,638,l),
(188,552,l),
(232,552,l),
(232,459,l),
(188,459,l),
(188,416,l)
);
}
);
width = 293;
},
{
layerId = "1F4A5B8F-71A6-4186-92A0-28F5C6507669";
shapes = (
{
closed = 1;
nodes = (
(105,440,l),
(105,496,l),
(151,496,l),
(151,530,l),
(60,530,l),
(60,631,l),
(161,631,l),
(161,540,l),
(206,540,l),
(206,486,l),
(161,486,l),
(161,440,l)
);
}
);
width = 267;
}
);
leftKerningGroup = _quotedbl;
rightKerningGroup = _quotedbl;
unicode = 8217;
},
{
glyphname = quoteleft;
layers = (
{
layerId = "2AAD9DA5-3897-4AC6-A4F9-A78ECEDC2410";
name = img;
width = 293;
},
{
layerId = "50F7179F-C30E-4DB1-9C2F-C70FE433AA29";
shapes = (
{
closed = 1;
nodes = (
(104,416,l),
(104,502,l),
(61,502,l),
(61,594,l),
(104,594,l),
(104,638,l),
(187,638,l),
(187,574,l),
(187,574,l),
(187,553,l),
(232,553,l),
(232,416,l)
);
}
);
width = 293;
},
{
layerId = "1F4A5B8F-71A6-4186-92A0-28F5C6507669";
shapes = (
{
closed = 1;
nodes = (
(104,440,l),
(104,531,l),
(60,531,l),
(60,585,l),
(104,585,l),
(104,631,l),
(160,631,l),
(160,576,l),
(114,576,l),
(114,541,l),
(206,541,l),
(206,440,l)
);
}
);
width = 267;
}
);
leftKerningGroup = _quoteleft;
rightKerningGroup = _quoteleft;
unicode = 8216;
},
{
glyphname = dagger;
layers = (
{
layerId = "2AAD9DA5-3897-4AC6-A4F9-A78ECEDC2410";
name = img;
width = 425;
},
{
layerId = "50F7179F-C30E-4DB1-9C2F-C70FE433AA29";
shapes = (
{
closed = 1;
nodes = (
(148,-11,l),
(276,-11,l),
(276,381,l),
(364,381,l),
(364,518,l),
(276,518,l),
(276,638,l),
(148,638,l),
(148,518,l),
(61,518,l),
(61,381,l),
(148,381,l)
);
}
);
width = 425;
},
{
layerId = "1F4A5B8F-71A6-4186-92A0-28F5C6507669";
shapes = (
{
closed = 1;
nodes = (
(150,-12,l),
(251,-12,l),
(251,403,l),
(342,403,l),
(342,504,l),
(251,504,l),
(251,631,l),
(150,631,l),
(150,504,l),
(60,504,l),
(60,403,l),
(150,403,l)
);
}
);
width = 403;
}
);
unicode = 8224;
},
{
glyphname = quotesinglbase;
leftMetricsKey = comma;
layers = (
{
layerId = "2AAD9DA5-3897-4AC6-A4F9-A78ECEDC2410";
name = img;
width = 293;
},
{
layerId = "50F7179F-C30E-4DB1-9C2F-C70FE433AA29";
shapes = (
{
closed = 1;
nodes = (
(105,-85,l),
(105,-21,l),
(105,-21,l),
(105,0,l),
(61,0,l),
(61,137,l),
(188,137,l),
(188,51,l),
(232,51,l),
(232,-41,l),
(188,-41,l),
(188,-85,l)
);
}
);
width = 293;
},
{
layerId = "1F4A5B8F-71A6-4186-92A0-28F5C6507669";
shapes = (
{
closed = 1;
nodes = (
(105,-90,l),
(105,-34,l),
(151,-34,l),
(151,0,l),
(60,0,l),
(60,101,l),
(161,101,l),
(161,10,l),
(206,10,l),
(206,-44,l),
(161,-44,l),
(161,-90,l)
);
}
);
width = 267;
}
);
leftKerningGroup = _comma;
rightKerningGroup = _comma1;
unicode = 8218;
},
{
glyphname = quotedblbase;
leftMetricsKey = comma;
layers = (
{
layerId = "2AAD9DA5-3897-4AC6-A4F9-A78ECEDC2410";
name = img;
width = 486;
},
{
layerId = "50F7179F-C30E-4DB1-9C2F-C70FE433AA29";
shapes = (
{
closed = 1;
nodes = (
(105,-85,l),
(105,-21,l),
(105,-21,l),
(105,0,l),
(61,0,l),
(61,137,l),
(188,137,l),
(188,51,l),
(232,51,l),
(232,-41,l),
(188,-41,l),
(188,-85,l)
);
},
{
closed = 1;
nodes = (
(298,-85,l),
(298,-21,l),
(298,-21,l),
(298,0,l),
(253,0,l),
(253,137,l),
(382,137,l),
(382,51,l),
(424,51,l),
(424,-41,l),
(382,-41,l),
(382,-85,l)
);
}
);
width = 486;
},
{
layerId = "1F4A5B8F-71A6-4186-92A0-28F5C6507669";
shapes = (
{
closed = 1;
nodes = (
(105,-90,l),
(105,-34,l),
(151,-34,l),
(151,0,l),
(60,0,l),
(60,101,l),
(161,101,l),
(161,10,l),
(206,10,l),
(206,-44,l),
(161,-44,l),
(161,-90,l)
);
},
{
closed = 1;
nodes = (
(304,-90,l),
(304,-34,l),
(350,-34,l),
(350,0,l),
(258,0,l),
(258,101,l),
(360,101,l),
(360,10,l),
(404,10,l),
(404,-44,l),
(360,-44,l),
(360,-90,l)
);
}
);
width = 465;
}
);
leftKerningGroup = _comma;
rightKerningGroup = _comma1;
unicode = 8222;
},
{
glyphname = guilsinglleft;
layers = (
{
layerId = "2AAD9DA5-3897-4AC6-A4F9-A78ECEDC2410";
name = img;
width = 573;
},
{
layerId = "50F7179F-C30E-4DB1-9C2F-C70FE433AA29";
shapes = (
{
closed = 1;
nodes = (
(237,71,l),
(326,71,l),
(326,-15,l),
(414,-15,l),
(414,-101,l),
(542,-101,l),
(542,36,l),
(453,36,l),
(453,122,l),
(365,122,l),
(365,207,l),
(276,207,l),
(276,293,l),
(188,293,l),
(188,327,l),
(276,327,l),
(276,412,l),
(365,412,l),
(365,498,l),
(453,498,l),
(453,583,l),
(542,583,l),
(542,720,l),
(414,720,l),
(414,634,l),
(326,634,l),
(326,549,l),
(237,549,l),
(237,463,l),
(149,463,l),
(149,377,l),
(61,377,l),
(61,242,l),
(149,242,l),
(149,156,l),
(237,156,l)
);
}
);
width = 573;
},
{
layerId = "1F4A5B8F-71A6-4186-92A0-28F5C6507669";
shapes = (
{
closed = 1;
nodes = (
(241,75,l),
(333,75,l),
(333,-16,l),
(423,-16,l),
(423,-107,l),
(525,-107,l),
(525,-6,l),
(433,-6,l),
(433,85,l),
(343,85,l),
(343,175,l),
(251,175,l),
(251,266,l),
(161,266,l),
(161,346,l),
(251,346,l),
(251,436,l),
(343,436,l),
(343,527,l),
(433,527,l),
(433,617,l),
(525,617,l),
(525,718,l),
(423,718,l),
(423,627,l),
(333,627,l),
(333,537,l),
(241,537,l),
(241,446,l),
(151,446,l),
(151,355,l),
(60,355,l),
(60,256,l),
(151,256,l),
(151,165,l),
(241,165,l)
);
}
);
width = 556;
}
);
leftKerningGroup = _less;
unicode = 8249;
},
{
glyphname = guilsinglright;
layers = (
{
layerId = "2AAD9DA5-3897-4AC6-A4F9-A78ECEDC2410";
name = img;
width = 573;
},
{
layerId = "50F7179F-C30E-4DB1-9C2F-C70FE433AA29";
shapes = (
{
closed = 1;
nodes = (
(31,-101,l),
(31,36,l),
(119,36,l),
(119,122,l),
(208,122,l),
(208,207,l),
(296,207,l),
(296,293,l),
(385,293,l),
(385,327,l),
(296,327,l),
(296,412,l),
(208,412,l),
(208,498,l),
(119,498,l),
(119,583,l),
(31,583,l),
(31,720,l),
(158,720,l),
(158,634,l),
(246,634,l),
(246,549,l),
(335,549,l),
(335,463,l),
(422,463,l),
(422,377,l),
(512,377,l),
(512,242,l),
(422,242,l),
(422,156,l),
(335,156,l),
(335,71,l),
(246,71,l),
(246,-15,l),
(158,-15,l),
(158,-101,l)
);
}
);
width = 573;
},
{
layerId = "1F4A5B8F-71A6-4186-92A0-28F5C6507669";
shapes = (
{
closed = 1;
nodes = (
(30,-107,l),
(30,-6,l),
(121,-6,l),
(121,85,l),
(212,85,l),
(212,175,l),
(303,175,l),
(303,266,l),
(394,266,l),
(394,346,l),
(303,346,l),
(303,436,l),
(212,436,l),
(212,527,l),
(121,527,l),
(121,617,l),
(30,617,l),
(30,718,l),
(131,718,l),
(131,627,l),
(222,627,l),
(222,537,l),
(313,537,l),
(313,446,l),
(403,446,l),
(403,355,l),
(495,355,l),
(495,256,l),
(403,256,l),
(403,165,l),
(313,165,l),
(313,75,l),
(222,75,l),
(222,-16,l),
(131,-16,l),
(131,-107,l)
);
}
);
width = 556;
}
);
leftKerningGroup = _greater;
unicode = 8250;
},
{
glyphname = bullet;
layers = (
{
layerId = "2AAD9DA5-3897-4AC6-A4F9-A78ECEDC2410";
name = img;
width = 284;
},
{
layerId = "50F7179F-C30E-4DB1-9C2F-C70FE433AA29";
shapes = (
{
closed = 1;
nodes = (
(61,235,l),
(61,405,l),
(223,405,l),
(223,235,l)
);
}
);
width = 284;
},
{
layerId = "1F4A5B8F-71A6-4186-92A0-28F5C6507669";
shapes = (
{
closed = 1;
nodes = (
(60,248,l),
(60,384,l),
(197,384,l),
(197,248,l)
);
}
);
width = 258;
}
);
unicode = 8226;
},
{
glyphname = periodcentered;
layers = (
{
layerId = "2AAD9DA5-3897-4AC6-A4F9-A78ECEDC2410";
name = img;
width = 249;
},
{
layerId = "50F7179F-C30E-4DB1-9C2F-C70FE433AA29";
shapes = (
{
closed = 1;
nodes = (
(61,252,l),
(61,388,l),
(188,388,l),
(188,252,l)
);
}
);
width = 249;
},
{
layerId = "1F4A5B8F-71A6-4186-92A0-28F5C6507669";
shapes = (
{
closed = 1;
nodes = (
(60,266,l),
(60,366,l),
(161,366,l),
(161,266,l)
);
}
);
width = 222;
}
);
unicode = 183;
},
{
glyphname = endash;
leftMetricsKey = emdash;
layers = (
{
layerId = "2AAD9DA5-3897-4AC6-A4F9-A78ECEDC2410";
name = img;
width = 425;
},
{
layerId = "50F7179F-C30E-4DB1-9C2F-C70FE433AA29";
shapes = (
{
closed = 1;
nodes = (
(61,228,l),
(61,365,l),
(364,365,l),
(364,228,l)
);
}
);
width = 425;
},
{
layerId = "1F4A5B8F-71A6-4186-92A0-28F5C6507669";
shapes = (
{
closed = 1;
nodes = (
(60,241,l),
(60,342,l),
(342,342,l),
(342,241,l)
);
}
);
width = 403;
}
);
leftKerningGroup = _emdash;
rightKerningGroup = _emdash;
unicode = 8211;
},
{
glyphname = emdash;
layers = (
{
layerId = "2AAD9DA5-3897-4AC6-A4F9-A78ECEDC2410";
name = img;
width = 522;
},
{
layerId = "50F7179F-C30E-4DB1-9C2F-C70FE433AA29";
shapes = (
{
closed = 1;
nodes = (
(61,228,l),
(61,365,l),
(460,365,l),
(460,228,l)
);
}
);
width = 522;
},
{
layerId = "1F4A5B8F-71A6-4186-92A0-28F5C6507669";
shapes = (
{
closed = 1;
nodes = (
(60,241,l),
(60,342,l),
(441,342,l),
(441,241,l)
);
}
);
width = 502;
}
);
leftKerningGroup = _emdash;
rightKerningGroup = _emdash;
unicode = 8212;
},
{
glyphname = trademark;
layers = (
{
layerId = "2AAD9DA5-3897-4AC6-A4F9-A78ECEDC2410";
name = img;
width = 801;
},
{
layerId = "50F7179F-C30E-4DB1-9C2F-C70FE433AA29";
shapes = (
{
closed = 1;
nodes = (
(151,281,l),
(235,281,l),
(235,543,l),
(242,543,l),
(242,499,l),
(325,499,l),
(325,593,l),
(281,593,l),
(281,638,l),
(105,638,l),
(105,593,l),
(61,593,l),
(61,499,l),
(144,499,l),
(144,543,l),
(151,543,l)
);
},
{
closed = 1;
nodes = (
(385,281,l),
(469,281,l),
(469,543,l),
(475,543,l),
(475,457,l),
(520,457,l),
(520,325,l),
(604,325,l),
(604,457,l),
(649,457,l),
(649,543,l),
(657,543,l),
(657,281,l),
(739,281,l),
(739,593,l),
(696,593,l),
(696,638,l),
(610,638,l),
(610,593,l),
(565,593,l),
(565,508,l),
(559,508,l),
(559,593,l),
(514,593,l),
(514,638,l),
(430,638,l),
(430,593,l),
(385,593,l)
);
}
);
width = 801;
},
{
layerId = "1F4A5B8F-71A6-4186-92A0-28F5C6507669";
shapes = (
{
closed = 1;
nodes = (
(153,297,l),
(209,297,l),
(209,575,l),
(246,575,l),
(246,528,l),
(302,528,l),
(302,584,l),
(256,584,l),
(256,631,l),
(106,631,l),
(106,584,l),
(60,584,l),
(60,528,l),
(116,528,l),
(116,575,l),
(153,575,l)
);
},
{
closed = 1;
nodes = (
(393,297,l),
(450,297,l),
(450,575,l),
(486,575,l),
(486,483,l),
(532,483,l),
(532,344,l),
(589,344,l),
(589,483,l),
(635,483,l),
(635,575,l),
(673,575,l),
(673,297,l),
(728,297,l),
(728,584,l),
(683,584,l),
(683,631,l),
(625,631,l),
(625,584,l),
(579,584,l),
(579,493,l),
(542,493,l),
(542,584,l),
(496,584,l),
(496,631,l),
(440,631,l),
(440,584,l),
(393,584,l)
);
}
);
width = 789;
}
);
leftKerningGroup = _trademark;
rightKerningGroup = _trademark1;
unicode = 8482;
},
{
glyphname = registered;
widthMetricsKey = copyright;
layers = (
{
layerId = "2AAD9DA5-3897-4AC6-A4F9-A78ECEDC2410";
name = img;
width = 432;
},
{
layerId = "50F7179F-C30E-4DB1-9C2F-C70FE433AA29";
shapes = (
{
closed = 1;
nodes = (
(153,430,l),
(153,531,l),
(306,531,l),
(306,430,l)
);
},
{
closed = 1;
nodes = (
(70,375,l),
(115,375,l),
(115,360,l),
(344,360,l),
(344,375,l),
(389,375,l),
(389,586,l),
(344,586,l),
(344,601,l),
(115,601,l),
(115,586,l),
(70,586,l)
);
},
{
closed = 1;
nodes = (
(189,437,l),
(243,437,l),
(243,474,l),
(257,474,l),
(257,462,l),
(300,462,l),
(300,498,l),
(288,498,l),
(288,519,l),
(201,519,l),
(201,488,l),
(189,488,l)
);
}
);
width = 458;
},
{
layerId = "1F4A5B8F-71A6-4186-92A0-28F5C6507669";
shapes = (
{
closed = 1;
nodes = (
(125,410,l),
(125,566,l),
(282,566,l),
(282,410,l)
);
},
{
closed = 1;
nodes = (
(70,400,l),
(115,400,l),
(115,354,l),
(292,354,l),
(292,400,l),
(338,400,l),
(338,576,l),
(292,576,l),
(292,621,l),
(115,621,l),
(115,576,l),
(70,576,l)
);
},
{
closed = 1;
nodes = (
(171,451,l),
(185,451,l),
(185,499,l),
(220,499,l),
(220,487,l),
(233,487,l),
(233,500,l),
(221,500,l),
(221,512,l),
(183,512,l),
(183,500,l),
(171,500,l)
);
}
);
width = 409;
}
);
leftKerningGroup = _copyright;
rightKerningGroup = _copyright;
unicode = 174;
},
{
glyphname = plusminus;
layers = (
{
layerId = "2AAD9DA5-3897-4AC6-A4F9-A78ECEDC2410";
name = img;
width = 603;
},
{
layerId = "50F7179F-C30E-4DB1-9C2F-C70FE433AA29";
shapes = (
{
closed = 1;
nodes = (
(147,29,l),
(451,29,l),
(451,165,l),
(365,165,l),
(365,243,l),
(542,243,l),
(542,379,l),
(365,379,l),
(365,592,l),
(237,592,l),
(237,379,l),
(61,379,l),
(61,243,l),
(237,243,l),
(237,165,l),
(147,165,l)
);
}
);
width = 603;
},
{
layerId = "1F4A5B8F-71A6-4186-92A0-28F5C6507669";
shapes = (
{
closed = 1;
nodes = (
(149,30,l),
(431,30,l),
(431,130,l),
(343,130,l),
(343,257,l),
(525,257,l),
(525,357,l),
(343,357,l),
(343,582,l),
(241,582,l),
(241,357,l),
(60,357,l),
(60,257,l),
(241,257,l),
(241,130,l),
(149,130,l)
);
}
);
width = 586;
}
);
unicode = 177;
},
{
glyphname = ellipsis;
leftMetricsKey = period;
layers = (
{
layerId = "2AAD9DA5-3897-4AC6-A4F9-A78ECEDC2410";
name = img;
width = 659;
},
{
layerId = "50F7179F-C30E-4DB1-9C2F-C70FE433AA29";
shapes = (
{
closed = 1;
nodes = (
(470,0,l),
(470,137,l),
(597,137,l),
(597,0,l)
);
},
{
closed = 1;
nodes = (
(265,0,l),
(265,137,l),
(393,137,l),
(393,0,l)
);
},
{
closed = 1;
nodes = (
(61,0,l),
(61,137,l),
(188,137,l),
(188,0,l)
);
}
);
width = 659;
},
{
layerId = "1F4A5B8F-71A6-4186-92A0-28F5C6507669";
shapes = (
{
closed = 1;
nodes = (
(481,0,l),
(481,101,l),
(582,101,l),
(582,0,l)
);
},
{
closed = 1;
nodes = (
(270,0,l),
(270,101,l),
(372,101,l),
(372,0,l)
);
},
{
closed = 1;
nodes = (
(60,0,l),
(60,101,l),
(161,101,l),
(161,0,l)
);
}
);
width = 643;
}
);
leftKerningGroup = _comma;
rightKerningGroup = _period;
unicode = 8230;
},
{
glyphname = multiply;
layers = (
{
layerId = "2AAD9DA5-3897-4AC6-A4F9-A78ECEDC2410";
name = img;
width = 571;
},
{
layerId = "50F7179F-C30E-4DB1-9C2F-C70FE433AA29";
shapes = (
{
closed = 1;
nodes = (
(68,194,l),
(163,101,l),
(289,222,l),
(406,109,l),
(502,201,l),
(385,314,l),
(509,435,l),
(414,527,l),
(289,406,l),
(156,534,l),
(61,441,l),
(193,314,l)
);
}
);
width = 571;
},
{
layerId = "1F4A5B8F-71A6-4186-92A0-28F5C6507669";
shapes = (
{
closed = 1;
nodes = (
(67,183,l),
(138,112,l),
(267,239,l),
(388,120,l),
(459,191,l),
(339,310,l),
(467,438,l),
(396,509,l),
(267,381,l),
(131,516,l),
(60,445,l),
(196,310,l)
);
}
);
width = 528;
}
);
unicode = 215;
},
{
glyphname = divide;
layers = (
{
layerId = "2AAD9DA5-3897-4AC6-A4F9-A78ECEDC2410";
name = img;
width = 425;
},
{
layerId = "50F7179F-C30E-4DB1-9C2F-C70FE433AA29";
shapes = (
{
closed = 1;
nodes = (
(148,77,l),
(148,214,l),
(276,214,l),
(276,77,l)
);
},
{
closed = 1;
nodes = (
(148,385,l),
(148,521,l),
(276,521,l),
(276,385,l)
);
},
{
closed = 1;
nodes = (
(61,228,l),
(61,365,l),
(364,365,l),
(364,228,l)
);
}
);
width = 425;
},
{
layerId = "1F4A5B8F-71A6-4186-92A0-28F5C6507669";
shapes = (
{
closed = 1;
nodes = (
(150,81,l),
(150,182,l),
(251,182,l),
(251,81,l)
);
},
{
closed = 1;
nodes = (
(150,407,l),
(150,507,l),
(251,507,l),
(251,407,l)
);
},
{
closed = 1;
nodes = (
(60,241,l),
(60,342,l),
(342,342,l),
(342,241,l)
);
}
);
width = 403;
}
);
unicode = 247;
},
{
glyphname = degree;
layers = (
{
layerId = "2AAD9DA5-3897-4AC6-A4F9-A78ECEDC2410";
name = img;
width = 338;
},
{
layerId = "50F7179F-C30E-4DB1-9C2F-C70FE433AA29";
shapes = (
{
closed = 1;
nodes = (
(96,371,l),
(242,371,l),
(242,405,l),
(277,405,l),
(277,559,l),
(242,559,l),
(242,593,l),
(96,593,l),
(96,559,l),
(61,559,l),
(61,405,l),
(96,405,l)
);
},
{
closed = 1;
nodes = (
(135,456,l),
(135,508,l),
(203,508,l),
(203,456,l)
);
}
);
width = 338;
},
{
layerId = "1F4A5B8F-71A6-4186-92A0-28F5C6507669";
shapes = (
{
closed = 1;
nodes = (
(96,392,l),
(216,392,l),
(216,429,l),
(252,429,l),
(252,547,l),
(216,547,l),
(216,584,l),
(96,584,l),
(96,547,l),
(60,547,l),
(60,429,l),
(96,429,l)
);
},
{
closed = 1;
nodes = (
(106,438,l),
(106,537,l),
(206,537,l),
(206,438,l)
);
}
);
width = 313;
}
);
unicode = 176;
},
{
glyphname = guillemotright;
layers = (
{
layerId = "2AAD9DA5-3897-4AC6-A4F9-A78ECEDC2410";
name = img;
width = 861;
},
{
layerId = "50F7179F-C30E-4DB1-9C2F-C70FE433AA29";
shapes = (
{
closed = 1;
nodes = (
(319,-101,l),
(319,36,l),
(408,36,l),
(408,122,l),
(496,122,l),
(496,207,l),
(585,207,l),
(585,293,l),
(673,293,l),
(673,327,l),
(585,327,l),
(585,412,l),
(496,412,l),
(496,498,l),
(408,498,l),
(408,583,l),
(319,583,l),
(319,720,l),
(447,720,l),
(447,634,l),
(535,634,l),
(535,549,l),
(624,549,l),
(624,463,l),
(712,463,l),
(712,377,l),
(801,377,l),
(801,242,l),
(712,242,l),
(712,156,l),
(624,156,l),
(624,71,l),
(535,71,l),
(535,-15,l),
(447,-15,l),
(447,-101,l)
);
},
{
closed = 1;
nodes = (
(10,-101,l),
(10,36,l),
(99,36,l),
(99,122,l),
(187,122,l),
(187,207,l),
(276,207,l),
(276,293,l),
(364,293,l),
(364,327,l),
(276,327,l),
(276,412,l),
(187,412,l),
(187,498,l),
(99,498,l),
(99,583,l),
(10,583,l),
(10,720,l),
(138,720,l),
(138,634,l),
(226,634,l),
(226,549,l),
(314,549,l),
(314,463,l),
(403,463,l),
(403,377,l),
(491,377,l),
(491,242,l),
(403,242,l),
(403,156,l),
(314,156,l),
(314,71,l),
(226,71,l),
(226,-15,l),
(138,-15,l),
(138,-101,l)
);
}
);
width = 861;
},
{
layerId = "1F4A5B8F-71A6-4186-92A0-28F5C6507669";
shapes = (
{
closed = 1;
nodes = (
(328,-107,l),
(328,-6,l),
(419,-6,l),
(419,85,l),
(510,85,l),
(510,175,l),
(601,175,l),
(601,266,l),
(692,266,l),
(692,346,l),
(601,346,l),
(601,436,l),
(510,436,l),
(510,527,l),
(419,527,l),
(419,617,l),
(328,617,l),
(328,718,l),
(429,718,l),
(429,627,l),
(520,627,l),
(520,537,l),
(611,537,l),
(611,446,l),
(702,446,l),
(702,355,l),
(793,355,l),
(793,256,l),
(702,256,l),
(702,165,l),
(611,165,l),
(611,75,l),
(520,75,l),
(520,-16,l),
(429,-16,l),
(429,-107,l)
);
},
{
closed = 1;
nodes = (
(10,-107,l),
(10,-6,l),
(101,-6,l),
(101,85,l),
(192,85,l),
(192,175,l),
(283,175,l),
(283,266,l),
(374,266,l),
(374,346,l),
(283,346,l),
(283,436,l),
(192,436,l),
(192,527,l),
(101,527,l),
(101,617,l),
(10,617,l),
(10,718,l),
(111,718,l),
(111,627,l),
(202,627,l),
(202,537,l),
(293,537,l),
(293,446,l),
(384,446,l),
(384,355,l),
(475,355,l),
(475,256,l),
(384,256,l),
(384,165,l),
(293,165,l),
(293,75,l),
(202,75,l),
(202,-16,l),
(111,-16,l),
(111,-107,l)
);
}
);
width = 853;
}
);
leftKerningGroup = _greater;
rightKerningGroup = _greater1;
unicode = 187;
},
{
glyphname = guillemotleft;
layers = (
{
layerId = "2AAD9DA5-3897-4AC6-A4F9-A78ECEDC2410";
name = img;
width = 881;
},
{
layerId = "50F7179F-C30E-4DB1-9C2F-C70FE433AA29";
shapes = (
{
closed = 1;
nodes = (
(517,71,l),
(605,71,l),
(605,-15,l),
(693,-15,l),
(693,-101,l),
(821,-101,l),
(821,36,l),
(732,36,l),
(732,122,l),
(644,122,l),
(644,207,l),
(556,207,l),
(556,293,l),
(467,293,l),
(467,327,l),
(556,327,l),
(556,412,l),
(644,412,l),
(644,498,l),
(732,498,l),
(732,583,l),
(821,583,l),
(821,720,l),
(693,720,l),
(693,634,l),
(605,634,l),
(605,549,l),
(517,549,l),
(517,463,l),
(428,463,l),
(428,377,l),
(340,377,l),
(340,242,l),
(428,242,l),
(428,156,l),
(517,156,l)
);
},
{
closed = 1;
nodes = (
(208,71,l),
(296,71,l),
(296,-15,l),
(385,-15,l),
(385,-101,l),
(512,-101,l),
(512,36,l),
(422,36,l),
(422,122,l),
(335,122,l),
(335,207,l),
(246,207,l),
(246,293,l),
(158,293,l),
(158,327,l),
(246,327,l),
(246,412,l),
(335,412,l),
(335,498,l),
(422,498,l),
(422,583,l),
(512,583,l),
(512,720,l),
(385,720,l),
(385,634,l),
(296,634,l),
(296,549,l),
(208,549,l),
(208,463,l),
(119,463,l),
(119,377,l),
(31,377,l),
(31,242,l),
(119,242,l),
(119,156,l),
(208,156,l)
);
}
);
width = 881;
},
{
layerId = "1F4A5B8F-71A6-4186-92A0-28F5C6507669";
shapes = (
{
closed = 1;
nodes = (
(530,75,l),
(621,75,l),
(621,-16,l),
(711,-16,l),
(711,-107,l),
(813,-107,l),
(813,-6,l),
(721,-6,l),
(721,85,l),
(631,85,l),
(631,175,l),
(540,175,l),
(540,266,l),
(449,266,l),
(449,346,l),
(540,346,l),
(540,436,l),
(631,436,l),
(631,527,l),
(721,527,l),
(721,617,l),
(813,617,l),
(813,718,l),
(711,718,l),
(711,627,l),
(621,627,l),
(621,537,l),
(530,537,l),
(530,446,l),
(439,446,l),
(439,355,l),
(348,355,l),
(348,256,l),
(439,256,l),
(439,165,l),
(530,165,l)
);
},
{
closed = 1;
nodes = (
(212,75,l),
(303,75,l),
(303,-16,l),
(394,-16,l),
(394,-107,l),
(495,-107,l),
(495,-6,l),
(403,-6,l),
(403,85,l),
(313,85,l),
(313,175,l),
(222,175,l),
(222,266,l),
(131,266,l),
(131,346,l),
(222,346,l),
(222,436,l),
(313,436,l),
(313,527,l),
(403,527,l),
(403,617,l),
(495,617,l),
(495,718,l),
(394,718,l),
(394,627,l),
(303,627,l),
(303,537,l),
(212,537,l),
(212,446,l),
(121,446,l),
(121,355,l),
(30,355,l),
(30,256,l),
(121,256,l),
(121,165,l),
(212,165,l)
);
}
);
width = 873;
}
);
leftKerningGroup = _less;
rightKerningGroup = _less1;
unicode = 171;
},
{
glyphname = mu;
layers = (
{
layerId = "2AAD9DA5-3897-4AC6-A4F9-A78ECEDC2410";
name = img;
width = 603;
},
{
layerId = "50F7179F-C30E-4DB1-9C2F-C70FE433AA29";
shapes = (
{
closed = 1;
nodes = (
(61,-177,l),
(188,-177,l),
(188,-11,l),
(453,-11,l),
(453,74,l),
(542,74,l),
(542,467,l),
(414,467,l),
(414,125,l),
(188,125,l),
(188,467,l),
(61,467,l)
);
}
);
width = 603;
},
{
layerId = "1F4A5B8F-71A6-4186-92A0-28F5C6507669";
shapes = (
{
closed = 1;
nodes = (
(60,-188,l),
(161,-188,l),
(161,-12,l),
(433,-12,l),
(433,78,l),
(525,78,l),
(525,450,l),
(423,450,l),
(423,88,l),
(161,88,l),
(161,450,l),
(60,450,l)
);
}
);
width = 586;
}
);
unicode = 181;
},
{
glyphname = logicalnot;
layers = (
{
layerId = "2AAD9DA5-3897-4AC6-A4F9-A78ECEDC2410";
name = img;
width = 522;
},
{
layerId = "50F7179F-C30E-4DB1-9C2F-C70FE433AA29";
shapes = (
{
closed = 1;
nodes = (
(61,228,l),
(61,365,l),
(460,365,l),
(460,142,l),
(333,142,l),
(333,228,l)
);
}
);
width = 522;
},
{
layerId = "1F4A5B8F-71A6-4186-92A0-28F5C6507669";
shapes = (
{
closed = 1;
nodes = (
(60,241,l),
(60,342,l),
(441,342,l),
(441,150,l),
(340,150,l),
(340,241,l)
);
}
);
width = 502;
}
);
unicode = 172;
},
{
glyphname = paragraph;
layers = (
{
layerId = "2AAD9DA5-3897-4AC6-A4F9-A78ECEDC2410";
name = img;
width = 778;
},
{
layerId = "50F7179F-C30E-4DB1-9C2F-C70FE433AA29";
shapes = (
{
closed = 1;
nodes = (
(414,-182,l),
(493,-182,l),
(493,501,l),
(589,501,l),
(589,-182,l),
(668,-182,l),
(668,501,l),
(717,501,l),
(717,638,l),
(149,638,l),
(149,552,l),
(61,552,l),
(61,247,l),
(149,247,l),
(149,162,l),
(414,162,l)
);
}
);
width = 778;
},
{
layerId = "1F4A5B8F-71A6-4186-92A0-28F5C6507669";
shapes = (
{
closed = 1;
nodes = (
(423,-193,l),
(475,-193,l),
(475,530,l),
(603,530,l),
(603,-193,l),
(655,-193,l),
(655,530,l),
(705,530,l),
(705,631,l),
(151,631,l),
(151,540,l),
(60,540,l),
(60,261,l),
(151,261,l),
(151,171,l),
(423,171,l)
);
}
);
width = 766;
}
);
unicode = 182;
},
{
glyphname = Thorn;
layers = (
{
layerId = "2AAD9DA5-3897-4AC6-A4F9-A78ECEDC2410";
name = img;
width = 603;
},
{
layerId = "50F7179F-C30E-4DB1-9C2F-C70FE433AA29";
shapes = (
{
closed = 1;
nodes = (
(61,-11,l),
(188,-11,l),
(188,64,l),
(453,64,l),
(453,149,l),
(542,149,l),
(542,456,l),
(453,456,l),
(453,542,l),
(188,542,l),
(188,638,l),
(61,638,l)
);
},
{
closed = 1;
nodes = (
(188,200,l),
(188,405,l),
(414,405,l),
(414,200,l)
);
}
);
width = 603;
},
{
layerId = "1F4A5B8F-71A6-4186-92A0-28F5C6507669";
shapes = (
{
closed = 1;
nodes = (
(60,-12,l),
(161,-12,l),
(161,67,l),
(433,67,l),
(433,157,l),
(525,157,l),
(525,438,l),
(433,438,l),
(433,529,l),
(161,529,l),
(161,631,l),
(60,631,l)
);
},
{
closed = 1;
nodes = (
(161,167,l),
(161,429,l),
(423,429,l),
(423,167,l)
);
}
);
width = 586;
}
);
leftKerningGroup = _D;
unicode = 222;
},
{
glyphname = thorn;
layers = (
{
layerId = "2AAD9DA5-3897-4AC6-A4F9-A78ECEDC2410";
name = img;
width = 603;
},
{
layerId = "50F7179F-C30E-4DB1-9C2F-C70FE433AA29";
shapes = (
{
closed = 1;
nodes = (
(61,-11,l),
(188,-11,l),
(188,40,l),
(453,40,l),
(453,124,l),
(542,124,l),
(542,432,l),
(453,432,l),
(453,518,l),
(188,518,l),
(188,638,l),
(61,638,l)
);
},
{
closed = 1;
nodes = (
(188,175,l),
(188,381,l),
(414,381,l),
(414,175,l)
);
}
);
width = 603;
},
{
layerId = "1F4A5B8F-71A6-4186-92A0-28F5C6507669";
shapes = (
{
closed = 1;
nodes = (
(60,-12,l),
(161,-12,l),
(161,42,l),
(433,42,l),
(433,131,l),
(525,131,l),
(525,413,l),
(433,413,l),
(433,504,l),
(161,504,l),
(161,631,l),
(60,631,l)
);
},
{
closed = 1;
nodes = (
(161,141,l),
(161,403,l),
(423,403,l),
(423,141,l)
);
}
);
width = 586;
}
);
leftKerningGroup = _f;
unicode = 254;
},
{
glyphname = oslash;
layers = (
{
layerId = "2AAD9DA5-3897-4AC6-A4F9-A78ECEDC2410";
name = img;
width = 603;
},
{
layerId = "50F7179F-C30E-4DB1-9C2F-C70FE433AA29";
shapes = (
{
closed = 1;
nodes = (
(273,381,l),
(323,381,l),
(323,416,l),
(273,416,l)
);
},
{
closed = 1;
nodes = (
(362,125,l),
(414,125,l),
(414,331,l),
(362,331,l)
);
},
{
closed = 1;
nodes = (
(273,40,l),
(323,40,l),
(323,74,l),
(273,74,l)
);
},
{
closed = 1;
nodes = (
(188,125,l),
(234,125,l),
(234,331,l),
(188,331,l)
);
},
{
closed = 1;
nodes = (
(149,-11,l),
(149,74,l),
(61,74,l),
(61,381,l),
(149,381,l),
(149,467,l),
(234,467,l),
(234,563,l),
(362,563,l),
(362,467,l),
(453,467,l),
(453,381,l),
(542,381,l),
(542,74,l),
(453,74,l),
(453,-11,l),
(362,-11,l),
(362,-86,l),
(234,-86,l),
(234,-11,l)
);
}
);
width = 603;
},
{
layerId = "1F4A5B8F-71A6-4186-92A0-28F5C6507669";
shapes = (
{
closed = 1;
nodes = (
(248,359,l),
(330,359,l),
(330,440,l),
(248,440,l)
);
},
{
closed = 1;
nodes = (
(340,88,l),
(423,88,l),
(423,350,l),
(340,350,l)
);
},
{
closed = 1;
nodes = (
(248,-2,l),
(330,-2,l),
(330,78,l),
(248,78,l)
);
},
{
closed = 1;
nodes = (
(161,88,l),
(238,88,l),
(238,350,l),
(161,350,l)
);
},
{
closed = 1;
nodes = (
(151,-12,l),
(151,78,l),
(60,78,l),
(60,359,l),
(151,359,l),
(151,450,l),
(238,450,l),
(238,552,l),
(340,552,l),
(340,450,l),
(433,450,l),
(433,359,l),
(525,359,l),
(525,78,l),
(433,78,l),
(433,-12,l),
(340,-12,l),
(340,-91,l),
(238,-91,l),
(238,-12,l)
);
}
);
width = 586;
}
);
leftKerningGroup = _oslash;
rightKerningGroup = _oslash;
unicode = 248;
},
{
glyphname = Eth;
widthMetricsKey = D;
layers = (
{
layerId = "2AAD9DA5-3897-4AC6-A4F9-A78ECEDC2410";
name = img;
width = 603;
},
{
layerId = "50F7179F-C30E-4DB1-9C2F-C70FE433AA29";
shapes = (
{
closed = 1;
nodes = (
(60,-11,l),
(364,-11,l),
(364,74,l),
(452,74,l),
(452,160,l),
(541,160,l),
(541,467,l),
(452,467,l),
(452,552,l),
(364,552,l),
(364,638,l),
(60,638,l),
(60,365,l),
(23,365,l),
(23,228,l),
(60,228,l)
);
},
{
closed = 1;
nodes = (
(187,125,l),
(187,228,l),
(278,228,l),
(278,365,l),
(187,365,l),
(187,501,l),
(325,501,l),
(325,416,l),
(413,416,l),
(413,211,l),
(325,211,l),
(325,125,l)
);
}
);
width = 603;
},
{
layerId = "1F4A5B8F-71A6-4186-92A0-28F5C6507669";
shapes = (
{
closed = 1;
nodes = (
(60,-12,l),
(343,-12,l),
(343,78,l),
(433,78,l),
(433,169,l),
(525,169,l),
(525,450,l),
(433,450,l),
(433,540,l),
(343,540,l),
(343,631,l),
(60,631,l),
(60,342,l),
(22,342,l),
(22,241,l),
(60,241,l)
);
},
{
closed = 1;
nodes = (
(161,88,l),
(161,241,l),
(254,241,l),
(254,342,l),
(161,342,l),
(161,530,l),
(333,530,l),
(333,440,l),
(423,440,l),
(423,179,l),
(333,179,l),
(333,88,l)
);
}
);
width = 586;
}
);
leftKerningGroup = _D;
rightKerningGroup = _D1;
unicode = 208;
},
{
glyphname = eth;
layers = (
{
layerId = "2AAD9DA5-3897-4AC6-A4F9-A78ECEDC2410";
name = img;
width = 601;
},
{
layerId = "50F7179F-C30E-4DB1-9C2F-C70FE433AA29";
shapes = (
{
closed = 1;
nodes = (
(149,-11,l),
(453,-11,l),
(453,74,l),
(542,74,l),
(543,468,l),
(568,468,l),
(568,604,l),
(543,604,l),
(543,638,l),
(415,638,l),
(415,604,l),
(314,604,l),
(314,474,l),
(415,474,l),
(415,467,l),
(149,467,l),
(149,381,l),
(61,381,l),
(61,75,l),
(149,74,l)
);
},
{
closed = 1;
nodes = (
(188,125,l),
(188,331,l),
(415,331,l),
(414,125,l)
);
}
);
width = 601;
},
{
layerId = "1F4A5B8F-71A6-4186-92A0-28F5C6507669";
shapes = (
{
closed = 1;
nodes = (
(151,-12,l),
(433,-12,l),
(433,78,l),
(525,78,l),
(526,495,l),
(552,495,l),
(552,595,l),
(526,595,l),
(526,631,l),
(424,631,l),
(424,595,l),
(320,595,l),
(320,495,l),
(424,495,l),
(424,450,l),
(151,450,l),
(151,359,l),
(60,359,l),
(60,79,l),
(151,78,l)
);
},
{
closed = 1;
nodes = (
(161,88,l),
(161,350,l),
(424,350,l),
(423,88,l)
);
}
);
width = 585;
}
);
leftKerningGroup = _d;
rightKerningGroup = _eth;
unicode = 240;
},
{
glyphname = AE;
layers = (
{
layerId = "2AAD9DA5-3897-4AC6-A4F9-A78ECEDC2410";
name = img;
width = 956;
},
{
layerId = "50F7179F-C30E-4DB1-9C2F-C70FE433AA29";
shapes = (
{
closed = 1;
nodes = (
(188,297,l),
(414,297,l),
(414,416,l),
(326,416,l),
(326,501,l),
(276,501,l),
(276,416,l),
(188,416,l)
);
},
{
closed = 1;
nodes = (
(61,-11,l),
(61,467,l),
(149,467,l),
(149,552,l),
(237,552,l),
(237,638,l),
(365,638,l),
(365,552,l),
(503,552,l),
(503,638,l),
(807,638,l),
(807,552,l),
(895,552,l),
(895,416,l),
(768,416,l),
(768,501,l),
(542,501,l),
(542,381,l),
(718,381,l),
(718,246,l),
(542,246,l),
(542,125,l),
(768,125,l),
(768,211,l),
(895,211,l),
(895,74,l),
(807,74,l),
(807,-11,l),
(414,-11,l),
(414,160,l),
(188,160,l),
(188,-11,l)
);
}
);
width = 956;
},
{
layerId = "1F4A5B8F-71A6-4186-92A0-28F5C6507669";
shapes = (
{
closed = 1;
nodes = (
(161,270,l),
(423,270,l),
(423,440,l),
(333,440,l),
(333,530,l),
(251,530,l),
(251,440,l),
(161,440,l)
);
},
{
closed = 1;
nodes = (
(60,-12,l),
(60,450,l),
(151,450,l),
(151,540,l),
(241,540,l),
(241,631,l),
(343,631,l),
(343,540,l),
(515,540,l),
(515,631,l),
(797,631,l),
(797,540,l),
(888,540,l),
(888,440,l),
(787,440,l),
(787,530,l),
(525,530,l),
(525,359,l),
(706,359,l),
(706,260,l),
(525,260,l),
(525,88,l),
(787,88,l),
(787,179,l),
(888,179,l),
(888,78,l),
(797,78,l),
(797,-12,l),
(423,-12,l),
(423,169,l),
(161,169,l),
(161,-12,l)
);
}
);
width = 949;
}
);
leftKerningGroup = _A;
rightKerningGroup = _E;
unicode = 198;
},
{
glyphname = ae;
leftMetricsKey = e;
rightMetricsKey = e;
layers = (
{
layerId = "2AAD9DA5-3897-4AC6-A4F9-A78ECEDC2410";
name = img;
width = 603;
},
{
layerId = "50F7179F-C30E-4DB1-9C2F-C70FE433AA29";
shapes = (
{
closed = 1;
nodes = (
(61,74,l),
(61,381,l),
(149,381,l),
(149,467,l),
(453,467,l),
(453,381,l),
(542,381,l),
(542,125,l),
(592,125,l),
(592,381,l),
(681,381,l),
(681,467,l),
(984,467,l),
(984,381,l),
(1073,381,l),
(1073,246,l),
(946,246,l),
(946,331,l),
(719,331,l),
(719,297,l),
(896,297,l),
(896,160,l),
(719,160,l),
(719,125,l),
(946,125,l),
(946,212,l),
(1073,212,l),
(1073,75,l),
(984,75,l),
(984,-11,l),
(681,-11,l),
(681,74,l),
(631,74,l),
(631,-11,l),
(503,-11,l),
(503,74,l),
(453,74,l),
(453,-11,l),
(149,-11,l),
(149,74,l)
);
},
{
closed = 1;
nodes = (
(188,125,l),
(414,125,l),
(414,331,l),
(188,331,l)
);
}
);
width = 1134;
},
{
layerId = "1F4A5B8F-71A6-4186-92A0-28F5C6507669";
shapes = (
{
closed = 1;
nodes = (
(60,78,l),
(60,359,l),
(151,359,l),
(151,450,l),
(433,450,l),
(433,359,l),
(525,359,l),
(525,88,l),
(606,88,l),
(606,359,l),
(698,359,l),
(698,450,l),
(980,450,l),
(980,359,l),
(1071,359,l),
(1071,260,l),
(970,260,l),
(970,350,l),
(707,350,l),
(707,270,l),
(889,270,l),
(889,169,l),
(707,169,l),
(707,88,l),
(970,88,l),
(970,180,l),
(1071,180,l),
(1071,79,l),
(980,79,l),
(980,-12,l),
(698,-12,l),
(698,78,l),
(616,78,l),
(616,-12,l),
(515,-12,l),
(515,78,l),
(433,78,l),
(433,-12,l),
(151,-12,l),
(151,78,l)
);
},
{
closed = 1;
nodes = (
(161,88,l),
(423,88,l),
(423,350,l),
(161,350,l)
);
}
);
width = 1132;
}
);
leftKerningGroup = _a;
rightKerningGroup = _e;
unicode = 230;
},
{
glyphname = OE;
leftMetricsKey = E;
rightMetricsKey = E;
layers = (
{
layerId = "2AAD9DA5-3897-4AC6-A4F9-A78ECEDC2410";
name = img;
width = 603;
},
{
layerId = "50F7179F-C30E-4DB1-9C2F-C70FE433AA29";
shapes = (
{
closed = 1;
nodes = (
(61,74,l),
(149,74,l),
(149,-11,l),
(453,-11,l),
(453,74,l),
(503,74,l),
(503,-11,l),
(807,-11,l),
(807,74,l),
(895,74,l),
(895,211,l),
(768,211,l),
(768,125,l),
(542,125,l),
(542,246,l),
(718,246,l),
(718,381,l),
(542,381,l),
(542,501,l),
(768,501,l),
(768,416,l),
(895,416,l),
(895,552,l),
(807,552,l),
(807,638,l),
(503,638,l),
(503,552,l),
(453,552,l),
(453,638,l),
(149,638,l),
(149,552,l),
(61,552,l)
);
},
{
closed = 1;
nodes = (
(188,125,l),
(188,501,l),
(414,501,l),
(414,125,l)
);
}
);
width = 956;
},
{
layerId = "1F4A5B8F-71A6-4186-92A0-28F5C6507669";
shapes = (
{
closed = 1;
nodes = (
(60,78,l),
(151,78,l),
(151,-12,l),
(433,-12,l),
(433,78,l),
(515,78,l),
(515,-12,l),
(797,-12,l),
(797,78,l),
(888,78,l),
(888,179,l),
(787,179,l),
(787,88,l),
(525,88,l),
(525,260,l),
(706,260,l),
(706,359,l),
(525,359,l),
(525,530,l),
(787,530,l),
(787,440,l),
(888,440,l),
(888,540,l),
(797,540,l),
(797,631,l),
(515,631,l),
(515,540,l),
(433,540,l),
(433,631,l),
(151,631,l),
(151,540,l),
(60,540,l)
);
},
{
closed = 1;
nodes = (
(161,88,l),
(161,530,l),
(423,530,l),
(423,88,l)
);
}
);
width = 949;
}
);
leftKerningGroup = _B;
rightKerningGroup = _E;
unicode = 338;
},
{
glyphname = oe;
leftMetricsKey = e;
rightMetricsKey = e;
layers = (
{
layerId = "2AAD9DA5-3897-4AC6-A4F9-A78ECEDC2410";
name = img;
width = 603;
},
{
layerId = "50F7179F-C30E-4DB1-9C2F-C70FE433AA29";
shapes = (
{
closed = 1;
nodes = (
(61,74,l),
(149,74,l),
(149,-11,l),
(453,-11,l),
(453,74,l),
(503,74,l),
(503,-11,l),
(807,-11,l),
(807,75,l),
(895,75,l),
(895,212,l),
(768,212,l),
(768,125,l),
(542,125,l),
(542,160,l),
(718,160,l),
(718,297,l),
(542,297,l),
(542,331,l),
(768,331,l),
(768,246,l),
(895,246,l),
(895,381,l),
(807,381,l),
(807,467,l),
(503,467,l),
(503,381,l),
(453,381,l),
(453,467,l),
(149,467,l),
(149,381,l),
(61,381,l)
);
},
{
closed = 1;
nodes = (
(188,125,l),
(188,331,l),
(414,331,l),
(414,125,l)
);
}
);
width = 956;
},
{
layerId = "1F4A5B8F-71A6-4186-92A0-28F5C6507669";
shapes = (
{
closed = 1;
nodes = (
(60,78,l),
(151,78,l),
(151,-12,l),
(433,-12,l),
(433,78,l),
(515,78,l),
(515,-12,l),
(797,-12,l),
(797,79,l),
(888,79,l),
(888,180,l),
(787,180,l),
(787,88,l),
(525,88,l),
(525,169,l),
(706,169,l),
(706,270,l),
(525,270,l),
(525,350,l),
(787,350,l),
(787,260,l),
(888,260,l),
(888,359,l),
(797,359,l),
(797,450,l),
(515,450,l),
(515,359,l),
(433,359,l),
(433,450,l),
(151,450,l),
(151,359,l),
(60,359,l)
);
},
{
closed = 1;
nodes = (
(161,88,l),
(161,350,l),
(423,350,l),
(423,88,l)
);
}
);
width = 949;
}
);
leftKerningGroup = _a;
rightKerningGroup = _e;
unicode = 339;
},
{
glyphname = onequarter;
layers = (
{
layerId = "2AAD9DA5-3897-4AC6-A4F9-A78ECEDC2410";
name = img;
width = 886;
},
{
layerId = "50F7179F-C30E-4DB1-9C2F-C70FE433AA29";
shapes = (
{
closed = 1;
nodes = (
(213,-11,l),
(329,-11,l),
(329,138,l),
(407,138,l),
(407,213,l),
(484,213,l),
(484,362,l),
(562,362,l),
(562,438,l),
(639,438,l),
(639,638,l),
(524,638,l),
(524,563,l),
(445,563,l),
(445,413,l),
(368,413,l),
(368,338,l),
(290,338,l),
(290,189,l),
(213,189,l)
);
},
{
closed = 1;
nodes = (
(151,280,l),
(236,280,l),
(236,593,l),
(190,593,l),
(190,638,l),
(105,638,l),
(105,593,l),
(61,593,l),
(61,499,l),
(144,499,l),
(144,543,l),
(151,543,l)
);
},
{
closed = 1;
nodes = (
(559,76,l),
(740,76,l),
(740,-12,l),
(825,-12,l),
(825,346,l),
(695,346,l),
(695,302,l),
(650,302,l),
(650,258,l),
(604,258,l),
(604,215,l),
(559,215,l)
);
},
{
closed = 1;
nodes = (
(689,170,l),
(689,207,l),
(704,207,l),
(704,207,l),
(734,207,l),
(734,252,l),
(740,252,l),
(740,170,l)
);
}
);
width = 886;
},
{
layerId = "1F4A5B8F-71A6-4186-92A0-28F5C6507669";
shapes = (
{
closed = 1;
nodes = (
(217,-12,l),
(306,-12,l),
(306,146,l),
(386,146,l),
(386,225,l),
(465,225,l),
(465,383,l),
(546,383,l),
(546,463,l),
(625,463,l),
(625,631,l),
(536,631,l),
(536,552,l),
(455,552,l),
(455,393,l),
(376,393,l),
(376,314,l),
(296,314,l),
(296,156,l),
(217,156,l)
);
},
{
closed = 1;
nodes = (
(153,296,l),
(210,296,l),
(210,584,l),
(163,584,l),
(163,631,l),
(106,631,l),
(106,584,l),
(60,584,l),
(60,528,l),
(116,528,l),
(116,575,l),
(153,575,l)
);
},
{
closed = 1;
nodes = (
(572,80,l),
(759,80,l),
(759,-13,l),
(816,-13,l),
(816,322,l),
(712,322,l),
(712,275,l),
(666,275,l),
(666,229,l),
(619,229,l),
(619,183,l),
(572,183,l)
);
},
{
closed = 1;
nodes = (
(629,136,l),
(629,173,l),
(676,173,l),
(676,219,l),
(722,219,l),
(722,266,l),
(759,266,l),
(759,136,l)
);
}
);
width = 877;
}
);
leftKerningGroup = _onehalf;
rightKerningGroup = _onequarter;
unicode = 188;
},
{
glyphname = onehalf;
layers = (
{
layerId = "2AAD9DA5-3897-4AC6-A4F9-A78ECEDC2410";
name = img;
width = 809;
},
{
layerId = "50F7179F-C30E-4DB1-9C2F-C70FE433AA29";
shapes = (
{
closed = 1;
nodes = (
(152,287,l),
(238,287,l),
(238,589,l),
(191,589,l),
(191,635,l),
(106,635,l),
(106,589,l),
(60,589,l),
(60,512,l),
(145,512,l),
(145,557,l),
(152,557,l)
);
},
{
closed = 1;
nodes = (
(507,31,l),
(553,31,l),
(553,-13,l),
(730,-13,l),
(730,31,l),
(775,31,l),
(775,158,l),
(691,158,l),
(691,64,l),
(592,64,l),
(592,170,l),
(730,170,l),
(730,216,l),
(775,216,l),
(775,338,l),
(730,338,l),
(730,384,l),
(553,384,l),
(553,338,l),
(507,338,l),
(507,260,l),
(592,260,l),
(592,306,l),
(691,306,l),
(691,249,l),
(553,249,l),
(553,203,l),
(507,203,l)
);
},
{
closed = 1;
nodes = (
(166,-12,l),
(283,-12,l),
(283,141,l),
(362,141,l),
(362,218,l),
(440,218,l),
(440,371,l),
(519,371,l),
(519,449,l),
(597,449,l),
(597,635,l),
(480,635,l),
(480,558,l),
(400,558,l),
(400,404,l),
(322,404,l),
(322,327,l),
(244,327,l),
(244,174,l),
(166,174,l)
);
}
);
width = 829;
},
{
layerId = "1F4A5B8F-71A6-4186-92A0-28F5C6507669";
shapes = (
{
closed = 1;
nodes = (
(153,296,l),
(210,296,l),
(210,584,l),
(163,584,l),
(163,631,l),
(106,631,l),
(106,584,l),
(60,584,l),
(60,528,l),
(116,528,l),
(116,575,l),
(153,575,l)
);
},
{
closed = 1;
nodes = (
(513,33,l),
(560,33,l),
(560,-13,l),
(710,-13,l),
(710,33,l),
(756,33,l),
(756,140,l),
(700,140,l),
(700,43,l),
(570,43,l),
(570,176,l),
(710,176,l),
(710,223,l),
(756,223,l),
(756,325,l),
(710,325,l),
(710,372,l),
(560,372,l),
(560,325,l),
(513,325,l),
(513,269,l),
(570,269,l),
(570,316,l),
(700,316,l),
(700,233,l),
(560,233,l),
(560,186,l),
(513,186,l)
);
},
{
closed = 1;
nodes = (
(167,-12,l),
(256,-12,l),
(256,146,l),
(336,146,l),
(336,225,l),
(415,225,l),
(415,383,l),
(496,383,l),
(496,463,l),
(575,463,l),
(575,631,l),
(486,631,l),
(486,552,l),
(405,552,l),
(405,393,l),
(326,393,l),
(326,314,l),
(246,314,l),
(246,156,l),
(167,156,l)
);
}
);
width = 816;
}
);
leftKerningGroup = _onehalf;
unicode = 189;
},
{
glyphname = threequarters;
layers = (
{
layerId = "2AAD9DA5-3897-4AC6-A4F9-A78ECEDC2410";
name = img;
width = 981;
},
{
layerId = "50F7179F-C30E-4DB1-9C2F-C70FE433AA29";
shapes = (
{
closed = 1;
nodes = (
(293,-12,l),
(411,-12,l),
(411,141,l),
(489,141,l),
(489,218,l),
(568,218,l),
(568,371,l),
(646,371,l),
(646,449,l),
(725,449,l),
(725,635,l),
(607,635,l),
(607,558,l),
(528,558,l),
(528,404,l),
(449,404,l),
(449,327,l),
(372,327,l),
(372,174,l),
(293,174,l)
);
},
{
closed = 1;
nodes = (
(60,284,l),
(107,284,l),
(107,238,l),
(282,238,l),
(282,284,l),
(329,284,l),
(329,407,l),
(282,407,l),
(282,418,l),
(329,418,l),
(329,589,l),
(282,589,l),
(282,635,l),
(107,635,l),
(107,589,l),
(60,589,l),
(60,512,l),
(146,512,l),
(146,556,l),
(243,556,l),
(243,451,l),
(107,451,l),
(107,374,l),
(243,374,l),
(243,317,l),
(146,317,l),
(146,361,l),
(60,361,l)
);
},
{
closed = 1;
nodes = (
(728,155,l),
(728,167,l),
(774,167,l),
(774,212,l),
(821,212,l),
(821,257,l),
(828,257,l),
(828,155,l)
);
},
{
closed = 1;
nodes = (
(643,77,l),
(828,77,l),
(828,-13,l),
(912,-13,l),
(912,335,l),
(781,335,l),
(781,289,l),
(735,289,l),
(735,245,l),
(690,245,l),
(690,200,l),
(643,200,l)
);
}
);
width = 981;
},
{
layerId = "1F4A5B8F-71A6-4186-92A0-28F5C6507669";
shapes = (
{
closed = 1;
nodes = (
(296,-12,l),
(386,-12,l),
(386,146,l),
(465,146,l),
(465,225,l),
(545,225,l),
(545,383,l),
(625,383,l),
(625,463,l),
(705,463,l),
(705,631,l),
(615,631,l),
(615,552,l),
(535,552,l),
(535,393,l),
(455,393,l),
(455,314,l),
(376,314,l),
(376,156,l),
(296,156,l)
);
},
{
closed = 1;
nodes = (
(60,343,l),
(107,343,l),
(107,296,l),
(255,296,l),
(255,343,l),
(303,343,l),
(303,446,l),
(255,446,l),
(255,482,l),
(303,482,l),
(303,584,l),
(255,584,l),
(255,631,l),
(107,631,l),
(107,584,l),
(60,584,l),
(60,528,l),
(117,528,l),
(117,574,l),
(245,574,l),
(245,492,l),
(107,492,l),
(107,436,l),
(245,436,l),
(245,353,l),
(117,353,l),
(117,399,l),
(60,399,l)
);
},
{
closed = 1;
nodes = (
(708,136,l),
(708,173,l),
(755,173,l),
(755,219,l),
(802,219,l),
(802,266,l),
(839,266,l),
(839,136,l)
);
},
{
closed = 1;
nodes = (
(652,80,l),
(839,80,l),
(839,-13,l),
(895,-13,l),
(895,322,l),
(792,322,l),
(792,275,l),
(745,275,l),
(745,229,l),
(699,229,l),
(699,183,l),
(652,183,l)
);
}
);
width = 956;
}
);
rightKerningGroup = _onequarter;
unicode = 190;
},
{
glyphname = onesuperior;
leftMetricsKey = trademark;
layers = (
{
layerId = "2AAD9DA5-3897-4AC6-A4F9-A78ECEDC2410";
name = img;
width = 297;
},
{
layerId = "50F7179F-C30E-4DB1-9C2F-C70FE433AA29";
shapes = (
{
closed = 1;
nodes = (
(151,280,l),
(236,280,l),
(236,593,l),
(190,593,l),
(190,638,l),
(105,638,l),
(105,593,l),
(61,593,l),
(61,499,l),
(144,499,l),
(144,543,l),
(151,543,l)
);
}
);
width = 297;
},
{
layerId = "1F4A5B8F-71A6-4186-92A0-28F5C6507669";
shapes = (
{
closed = 1;
nodes = (
(153,296,l),
(210,296,l),
(210,584,l),
(163,584,l),
(163,631,l),
(106,631,l),
(106,584,l),
(60,584,l),
(60,528,l),
(116,528,l),
(116,575,l),
(153,575,l)
);
}
);
width = 271;
}
);
leftKerningGroup = _trademark;
rightKerningGroup = _trademark1;
unicode = 185;
},
{
glyphname = twosuperior;
layers = (
{
layerId = "2AAD9DA5-3897-4AC6-A4F9-A78ECEDC2410";
name = img;
width = 414;
},
{
layerId = "50F7179F-C30E-4DB1-9C2F-C70FE433AA29";
shapes = (
{
closed = 1;
nodes = (
(60,281,l),
(60,404,l),
(106,404,l),
(106,449,l),
(244,449,l),
(244,555,l),
(145,555,l),
(145,510,l),
(60,510,l),
(60,588,l),
(106,588,l),
(106,633,l),
(283,633,l),
(283,588,l),
(329,588,l),
(329,417,l),
(283,417,l),
(283,371,l),
(145,371,l),
(145,314,l),
(244,314,l),
(244,359,l),
(329,359,l),
(329,281,l),
(283,281,l),
(283,236,l),
(106,236,l),
(106,281,l)
);
}
);
width = 414;
},
{
layerId = "1F4A5B8F-71A6-4186-92A0-28F5C6507669";
shapes = (
{
closed = 1;
nodes = (
(60,340,l),
(60,443,l),
(106,443,l),
(106,490,l),
(246,490,l),
(246,573,l),
(116,573,l),
(116,526,l),
(60,526,l),
(60,583,l),
(106,583,l),
(106,629,l),
(256,629,l),
(256,583,l),
(303,583,l),
(303,480,l),
(256,480,l),
(256,433,l),
(116,433,l),
(116,350,l),
(246,350,l),
(246,397,l),
(303,397,l),
(303,340,l),
(256,340,l),
(256,294,l),
(106,294,l),
(106,340,l)
);
}
);
width = 364;
}
);
unicode = 178;
},
{
glyphname = threesuperior;
layers = (
{
layerId = "2AAD9DA5-3897-4AC6-A4F9-A78ECEDC2410";
name = img;
width = 414;
},
{
layerId = "50F7179F-C30E-4DB1-9C2F-C70FE433AA29";
shapes = (
{
closed = 1;
nodes = (
(60,284,l),
(107,284,l),
(107,238,l),
(282,238,l),
(282,284,l),
(329,284,l),
(329,407,l),
(282,407,l),
(282,418,l),
(329,418,l),
(329,589,l),
(282,589,l),
(282,635,l),
(107,635,l),
(107,589,l),
(60,589,l),
(60,512,l),
(146,512,l),
(146,556,l),
(243,556,l),
(243,451,l),
(107,451,l),
(107,374,l),
(243,374,l),
(243,317,l),
(146,317,l),
(146,361,l),
(60,361,l)
);
}
);
width = 414;
},
{
layerId = "1F4A5B8F-71A6-4186-92A0-28F5C6507669";
shapes = (
{
closed = 1;
nodes = (
(60,343,l),
(107,343,l),
(107,296,l),
(255,296,l),
(255,343,l),
(303,343,l),
(303,446,l),
(255,446,l),
(255,482,l),
(303,482,l),
(303,584,l),
(255,584,l),
(255,631,l),
(107,631,l),
(107,584,l),
(60,584,l),
(60,528,l),
(117,528,l),
(117,574,l),
(245,574,l),
(245,492,l),
(107,492,l),
(107,436,l),
(245,436,l),
(245,353,l),
(117,353,l),
(117,399,l),
(60,399,l)
);
}
);
width = 364;
}
);
rightKerningGroup = _eightsuperior;
unicode = 179;
},
{
glyphname = foursuperior;
layers = (
{
layerId = "2AAD9DA5-3897-4AC6-A4F9-A78ECEDC2410";
name = img;
width = 388;
},
{
layerId = "50F7179F-C30E-4DB1-9C2F-C70FE433AA29";
shapes = (
{
closed = 1;
nodes = (
(61,367,l),
(242,367,l),
(242,279,l),
(327,279,l),
(327,638,l),
(198,638,l),
(198,593,l),
(151,593,l),
(151,550,l),
(105,550,l),
(105,506,l),
(61,506,l)
);
},
{
closed = 1;
nodes = (
(190,462,l),
(190,499,l),
(202,499,l),
(214,499,l),
(237,499,l),
(237,543,l),
(242,543,l),
(242,462,l)
);
}
);
width = 388;
},
{
layerId = "1F4A5B8F-71A6-4186-92A0-28F5C6507669";
shapes = (
{
closed = 1;
nodes = (
(60,388,l),
(246,388,l),
(246,295,l),
(304,295,l),
(304,631,l),
(201,631,l),
(201,584,l),
(153,584,l),
(153,538,l),
(106,538,l),
(106,491,l),
(60,491,l)
);
},
{
closed = 1;
nodes = (
(116,445,l),
(116,481,l),
(163,481,l),
(163,528,l),
(211,528,l),
(211,575,l),
(246,575,l),
(246,445,l)
);
}
);
width = 365;
}
);
rightKerningGroup = _trademark1;
unicode = 8308;
},
{
glyphname = fivesuperior;
layers = (
{
layerId = "2AAD9DA5-3897-4AC6-A4F9-A78ECEDC2410";
name = img;
width = 415;
},
{
layerId = "50F7179F-C30E-4DB1-9C2F-C70FE433AA29";
shapes = (
{
closed = 1;
nodes = (
(60,283,l),
(106,283,l),
(106,237,l),
(283,237,l),
(283,283,l),
(330,283,l),
(330,360,l),
(283,360,l),
(283,406,l),
(191,406,l),
(191,450,l),
(145,450,l),
(145,557,l),
(244,557,l),
(244,466,l),
(330,466,l),
(330,589,l),
(283,589,l),
(283,635,l),
(106,635,l),
(106,589,l),
(60,589,l),
(60,417,l),
(106,417,l),
(106,373,l),
(152,373,l),
(152,327,l),
(244,327,l),
(244,316,l),
(145,316,l),
(145,360,l),
(60,360,l)
);
}
);
width = 415;
},
{
layerId = "1F4A5B8F-71A6-4186-92A0-28F5C6507669";
shapes = (
{
closed = 1;
nodes = (
(60,342,l),
(106,342,l),
(106,295,l),
(256,295,l),
(256,342,l),
(304,342,l),
(304,398,l),
(256,398,l),
(256,445,l),
(163,445,l),
(163,491,l),
(116,491,l),
(116,575,l),
(246,575,l),
(246,481,l),
(304,481,l),
(304,584,l),
(256,584,l),
(256,631,l),
(106,631,l),
(106,584,l),
(60,584,l),
(60,481,l),
(106,481,l),
(106,435,l),
(153,435,l),
(153,388,l),
(246,388,l),
(246,352,l),
(116,352,l),
(116,398,l),
(60,398,l)
);
}
);
width = 365;
}
);
unicode = 8309;
},
{
glyphname = sixsuperior;
layers = (
{
layerId = "2AAD9DA5-3897-4AC6-A4F9-A78ECEDC2410";
name = img;
width = 415;
},
{
layerId = "50F7179F-C30E-4DB1-9C2F-C70FE433AA29";
shapes = (
{
closed = 1;
nodes = (
(145,316,l),
(145,373,l),
(244,373,l),
(244,316,l)
);
},
{
closed = 1;
nodes = (
(60,283,l),
(106,283,l),
(106,237,l),
(283,237,l),
(283,283,l),
(330,283,l),
(330,406,l),
(283,406,l),
(283,450,l),
(145,450,l),
(145,557,l),
(244,557,l),
(244,512,l),
(330,512,l),
(330,589,l),
(283,589,l),
(283,635,l),
(106,635,l),
(106,589,l),
(60,589,l)
);
}
);
width = 415;
},
{
layerId = "1F4A5B8F-71A6-4186-92A0-28F5C6507669";
shapes = (
{
closed = 1;
nodes = (
(116,352,l),
(116,435,l),
(246,435,l),
(246,352,l)
);
},
{
closed = 1;
nodes = (
(60,342,l),
(106,342,l),
(106,295,l),
(256,295,l),
(256,342,l),
(304,342,l),
(304,445,l),
(256,445,l),
(256,491,l),
(116,491,l),
(116,575,l),
(246,575,l),
(246,528,l),
(304,528,l),
(304,584,l),
(256,584,l),
(256,631,l),
(106,631,l),
(106,584,l),
(60,584,l)
);
}
);
width = 365;
}
);
leftKerningGroup = _sixsuperior;
unicode = 8310;
},
{
glyphname = sevensuperior;
layers = (
{
layerId = "2AAD9DA5-3897-4AC6-A4F9-A78ECEDC2410";
name = img;
width = 388;
},
{
layerId = "50F7179F-C30E-4DB1-9C2F-C70FE433AA29";
shapes = (
{
closed = 1;
nodes = (
(242,279,l),
(327,279,l),
(327,593,l),
(281,593,l),
(281,638,l),
(105,638,l),
(105,593,l),
(61,593,l),
(61,499,l),
(144,499,l),
(144,543,l),
(242,543,l)
);
}
);
width = 388;
},
{
layerId = "1F4A5B8F-71A6-4186-92A0-28F5C6507669";
shapes = (
{
closed = 1;
nodes = (
(246,295,l),
(304,295,l),
(304,584,l),
(256,584,l),
(256,631,l),
(106,631,l),
(106,584,l),
(60,584,l),
(60,528,l),
(116,528,l),
(116,575,l),
(246,575,l)
);
}
);
width = 365;
}
);
rightKerningGroup = _trademark1;
unicode = 8311;
},
{
glyphname = eightsuperior;
layers = (
{
layerId = "2AAD9DA5-3897-4AC6-A4F9-A78ECEDC2410";
name = img;
width = 415;
},
{
layerId = "50F7179F-C30E-4DB1-9C2F-C70FE433AA29";
shapes = (
{
closed = 1;
nodes = (
(106,237,l),
(283,237,l),
(283,283,l),
(330,283,l),
(330,406,l),
(283,406,l),
(283,417,l),
(330,417,l),
(330,589,l),
(283,589,l),
(283,635,l),
(106,635,l),
(106,589,l),
(60,589,l),
(60,417,l),
(106,417,l),
(106,406,l),
(60,406,l),
(60,283,l),
(106,283,l)
);
},
{
closed = 1;
nodes = (
(145,316,l),
(145,373,l),
(244,373,l),
(244,316,l)
);
},
{
closed = 1;
nodes = (
(145,450,l),
(145,557,l),
(244,557,l),
(244,450,l)
);
}
);
width = 415;
},
{
layerId = "1F4A5B8F-71A6-4186-92A0-28F5C6507669";
shapes = (
{
closed = 1;
nodes = (
(106,295,l),
(256,295,l),
(256,342,l),
(304,342,l),
(304,445,l),
(256,445,l),
(256,481,l),
(304,481,l),
(304,584,l),
(256,584,l),
(256,631,l),
(106,631,l),
(106,584,l),
(60,584,l),
(60,481,l),
(106,481,l),
(106,445,l),
(60,445,l),
(60,342,l),
(106,342,l)
);
},
{
closed = 1;
nodes = (
(116,352,l),
(116,435,l),
(246,435,l),
(246,352,l)
);
},
{
closed = 1;
nodes = (
(116,491,l),
(116,575,l),
(246,575,l),
(246,491,l)
);
}
);
width = 365;
}
);
rightKerningGroup = _eightsuperior;
unicode = 8312;
},
{
glyphname = ninesuperior;
layers = (
{
layerId = "2AAD9DA5-3897-4AC6-A4F9-A78ECEDC2410";
name = img;
width = 415;
},
{
layerId = "50F7179F-C30E-4DB1-9C2F-C70FE433AA29";
shapes = (
{
closed = 1;
nodes = (
(145,450,l),
(145,557,l),
(244,557,l),
(244,450,l)
);
},
{
closed = 1;
nodes = (
(60,283,l),
(106,283,l),
(106,237,l),
(283,237,l),
(283,283,l),
(330,283,l),
(330,589,l),
(283,589,l),
(283,635,l),
(106,635,l),
(106,589,l),
(60,589,l),
(60,417,l),
(106,417,l),
(106,373,l),
(244,373,l),
(244,316,l),
(145,316,l),
(145,360,l),
(60,360,l)
);
}
);
width = 415;
},
{
layerId = "1F4A5B8F-71A6-4186-92A0-28F5C6507669";
shapes = (
{
closed = 1;
nodes = (
(116,491,l),
(116,575,l),
(246,575,l),
(246,491,l)
);
},
{
closed = 1;
nodes = (
(60,342,l),
(106,342,l),
(106,295,l),
(256,295,l),
(256,342,l),
(304,342,l),
(304,584,l),
(256,584,l),
(256,631,l),
(106,631,l),
(106,584,l),
(60,584,l),
(60,481,l),
(106,481,l),
(106,435,l),
(246,435,l),
(246,352,l),
(116,352,l),
(116,398,l),
(60,398,l)
);
}
);
width = 365;
}
);
rightKerningGroup = _trademark1;
unicode = 8313;
},
{
glyphname = zerosuperior;
layers = (
{
layerId = "2AAD9DA5-3897-4AC6-A4F9-A78ECEDC2410";
name = img;
width = 387;
},
{
layerId = "50F7179F-C30E-4DB1-9C2F-C70FE433AA29";
shapes = (
{
closed = 1;
nodes = (
(105,280,l),
(105,324,l),
(61,324,l),
(61,593,l),
(105,593,l),
(105,638,l),
(281,638,l),
(281,593,l),
(326,593,l),
(326,324,l),
(281,324,l),
(281,280,l)
);
},
{
closed = 1;
nodes = (
(144,375,l),
(242,375,l),
(242,543,l),
(144,543,l)
);
}
);
width = 387;
},
{
layerId = "1F4A5B8F-71A6-4186-92A0-28F5C6507669";
shapes = (
{
closed = 1;
nodes = (
(106,296,l),
(106,343,l),
(60,343,l),
(60,584,l),
(106,584,l),
(106,631,l),
(256,631,l),
(256,584,l),
(303,584,l),
(303,343,l),
(256,343,l),
(256,296,l)
);
},
{
closed = 1;
nodes = (
(116,353,l),
(246,353,l),
(246,575,l),
(116,575,l)
);
}
);
width = 364;
}
);
leftKerningGroup = _sixsuperior;
rightKerningGroup = _trademark1;
unicode = 8304;
},
{
glyphname = exclamdbl;
layers = (
{
layerId = "2AAD9DA5-3897-4AC6-A4F9-A78ECEDC2410";
name = img;
width = 453;
},
{
layerId = "50F7179F-C30E-4DB1-9C2F-C70FE433AA29";
shapes = (
{
closed = 1;
nodes = (
(263,-11,l),
(263,125,l),
(391,125,l),
(391,-11,l)
);
},
{
closed = 1;
nodes = (
(263,160,l),
(263,638,l),
(391,638,l),
(391,160,l)
);
},
{
closed = 1;
nodes = (
(61,-11,l),
(61,125,l),
(188,125,l),
(188,-11,l)
);
},
{
closed = 1;
nodes = (
(61,160,l),
(61,638,l),
(188,638,l),
(188,160,l)
);
}
);
width = 453;
},
{
layerId = "1F4A5B8F-71A6-4186-92A0-28F5C6507669";
shapes = (
{
closed = 1;
nodes = (
(268,-12,l),
(268,88,l),
(370,88,l),
(370,-12,l)
);
},
{
closed = 1;
nodes = (
(268,169,l),
(268,631,l),
(370,631,l),
(370,169,l)
);
},
{
closed = 1;
nodes = (
(60,-12,l),
(60,88,l),
(161,88,l),
(161,-12,l)
);
},
{
closed = 1;
nodes = (
(60,169,l),
(60,631,l),
(161,631,l),
(161,169,l)
);
}
);
width = 431;
}
);
unicode = 8252;
},
{
glyphname = Hbar;
leftMetricsKey = H;
rightMetricsKey = H;
layers = (
{
layerId = "2AAD9DA5-3897-4AC6-A4F9-A78ECEDC2410";
name = img;
width = 603;
},
{
layerId = "50F7179F-C30E-4DB1-9C2F-C70FE433AA29";
shapes = (
{
closed = 1;
nodes = (
(61,-11,l),
(188,-11,l),
(188,246,l),
(414,246,l),
(414,-11,l),
(542,-11,l),
(542,638,l),
(414,638,l),
(414,603,l),
(188,603,l),
(188,638,l),
(61,638,l)
);
},
{
closed = 1;
nodes = (
(188,381,l),
(188,467,l),
(414,467,l),
(414,381,l),
(365,381,l),
(365,467,l),
(237,467,l),
(237,381,l)
);
}
);
width = 603;
},
{
layerId = "1F4A5B8F-71A6-4186-92A0-28F5C6507669";
shapes = (
{
closed = 1;
nodes = (
(60,-12,l),
(161,-12,l),
(161,260,l),
(423,260,l),
(423,-12,l),
(525,-12,l),
(525,631,l),
(423,631,l),
(423,594,l),
(161,594,l),
(161,631,l),
(60,631,l)
);
},
{
closed = 1;
nodes = (
(161,359,l),
(161,494,l),
(423,494,l),
(423,359,l),
(343,359,l),
(343,450,l),
(241,450,l),
(241,359,l)
);
}
);
width = 586;
}
);
leftKerningGroup = _D;
rightKerningGroup = _H;
unicode = 294;
},
{
glyphname = Tbar;
layers = (
{
layerId = "2AAD9DA5-3897-4AC6-A4F9-A78ECEDC2410";
name = img;
width = 626;
},
{
layerId = "50F7179F-C30E-4DB1-9C2F-C70FE433AA29";
shapes = (
{
closed = 1;
nodes = (
(239,-12,l),
(369,-12,l),
(369,238,l),
(457,238,l),
(457,359,l),
(369,359,l),
(369,514,l),
(418,514,l),
(418,426,l),
(548,426,l),
(548,547,l),
(457,547,l),
(457,635,l),
(150,635,l),
(150,547,l),
(60,547,l),
(60,426,l),
(189,426,l),
(189,514,l),
(239,514,l),
(239,359,l),
(150,359,l),
(150,238,l),
(239,238,l)
);
}
);
width = 626;
},
{
layerId = "1F4A5B8F-71A6-4186-92A0-28F5C6507669";
shapes = (
{
closed = 1;
nodes = (
(241,-12,l),
(343,-12,l),
(343,296,l),
(433,296,l),
(433,397,l),
(343,397,l),
(343,530,l),
(423,530,l),
(423,440,l),
(525,440,l),
(525,540,l),
(433,540,l),
(433,631,l),
(151,631,l),
(151,540,l),
(60,540,l),
(60,440,l),
(161,440,l),
(161,530,l),
(241,530,l),
(241,397,l),
(151,397,l),
(151,296,l),
(241,296,l)
);
}
);
width = 586;
}
);
unicode = 358;
},
{
glyphname = zeroinferior;
layers = (
{
layerId = "2AAD9DA5-3897-4AC6-A4F9-A78ECEDC2410";
name = img;
width = 387;
},
{
layerId = "50F7179F-C30E-4DB1-9C2F-C70FE433AA29";
shapes = (
{
closed = 1;
nodes = (
(105,-12,l),
(105,32,l),
(61,32,l),
(61,302,l),
(105,302,l),
(105,346,l),
(281,346,l),
(281,302,l),
(326,302,l),
(326,32,l),
(281,32,l),
(281,-12,l)
);
},
{
closed = 1;
nodes = (
(144,83,l),
(242,83,l),
(242,252,l),
(144,252,l)
);
}
);
width = 387;
},
{
layerId = "1F4A5B8F-71A6-4186-92A0-28F5C6507669";
shapes = (
{
closed = 1;
nodes = (
(106,-13,l),
(106,34,l),
(60,34,l),
(60,275,l),
(106,275,l),
(106,322,l),
(256,322,l),
(256,275,l),
(303,275,l),
(303,34,l),
(256,34,l),
(256,-13,l)
);
},
{
closed = 1;
nodes = (
(116,44,l),
(246,44,l),
(246,266,l),
(116,266,l)
);
}
);
width = 364;
}
);
leftKerningGroup = _sixinferior;
rightKerningGroup = _nineinferior;
unicode = 8320;
},
{
glyphname = oneinferior;
layers = (
{
layerId = "2AAD9DA5-3897-4AC6-A4F9-A78ECEDC2410";
name = img;
width = 297;
},
{
layerId = "50F7179F-C30E-4DB1-9C2F-C70FE433AA29";
shapes = (
{
closed = 1;
nodes = (
(151,-12,l),
(236,-12,l),
(236,302,l),
(190,302,l),
(190,346,l),
(105,346,l),
(105,302,l),
(61,302,l),
(61,207,l),
(144,207,l),
(144,252,l),
(151,252,l)
);
}
);
width = 297;
},
{
layerId = "1F4A5B8F-71A6-4186-92A0-28F5C6507669";
shapes = (
{
closed = 1;
nodes = (
(153,-13,l),
(210,-13,l),
(210,275,l),
(163,275,l),
(163,322,l),
(106,322,l),
(106,275,l),
(60,275,l),
(60,219,l),
(116,219,l),
(116,266,l),
(153,266,l)
);
}
);
width = 271;
}
);
rightKerningGroup = _oneinferior;
unicode = 8321;
},
{
glyphname = twoinferior;
layers = (
{
layerId = "2AAD9DA5-3897-4AC6-A4F9-A78ECEDC2410";
name = img;
width = 414;
},
{
layerId = "50F7179F-C30E-4DB1-9C2F-C70FE433AA29";
shapes = (
{
closed = 1;
nodes = (
(60,31,l),
(60,203,l),
(106,203,l),
(106,249,l),
(244,249,l),
(244,306,l),
(145,306,l),
(145,260,l),
(60,260,l),
(60,338,l),
(106,338,l),
(106,384,l),
(283,384,l),
(283,338,l),
(329,338,l),
(329,216,l),
(283,216,l),
(283,170,l),
(145,170,l),
(145,64,l),
(244,64,l),
(244,110,l),
(329,110,l),
(329,31,l),
(283,31,l),
(283,-13,l),
(106,-13,l),
(106,31,l)
);
}
);
width = 414;
},
{
layerId = "1F4A5B8F-71A6-4186-92A0-28F5C6507669";
shapes = (
{
closed = 1;
nodes = (
(60,33,l),
(60,136,l),
(106,136,l),
(106,183,l),
(246,183,l),
(246,266,l),
(116,266,l),
(116,219,l),
(60,219,l),
(60,275,l),
(106,275,l),
(106,322,l),
(256,322,l),
(256,275,l),
(303,275,l),
(303,173,l),
(256,173,l),
(256,126,l),
(116,126,l),
(116,43,l),
(246,43,l),
(246,90,l),
(303,90,l),
(303,33,l),
(256,33,l),
(256,-13,l),
(106,-13,l),
(106,33,l)
);
}
);
width = 364;
}
);
unicode = 8322;
},
{
glyphname = threeinferior;
layers = (
{
layerId = "2AAD9DA5-3897-4AC6-A4F9-A78ECEDC2410";
name = img;
width = 414;
},
{
layerId = "50F7179F-C30E-4DB1-9C2F-C70FE433AA29";
shapes = (
{
closed = 1;
nodes = (
(60,32,l),
(107,32,l),
(107,-13,l),
(282,-13,l),
(282,32,l),
(329,32,l),
(329,204,l),
(282,204,l),
(282,216,l),
(329,216,l),
(329,338,l),
(282,338,l),
(282,384,l),
(107,384,l),
(107,338,l),
(60,338,l),
(60,260,l),
(146,260,l),
(146,305,l),
(243,305,l),
(243,249,l),
(107,249,l),
(107,171,l),
(243,171,l),
(243,65,l),
(146,65,l),
(146,110,l),
(60,110,l)
);
}
);
width = 414;
},
{
layerId = "1F4A5B8F-71A6-4186-92A0-28F5C6507669";
shapes = (
{
closed = 1;
nodes = (
(60,34,l),
(107,34,l),
(107,-13,l),
(255,-13,l),
(255,34,l),
(303,34,l),
(303,137,l),
(255,137,l),
(255,173,l),
(303,173,l),
(303,275,l),
(255,275,l),
(255,322,l),
(107,322,l),
(107,275,l),
(60,275,l),
(60,219,l),
(117,219,l),
(117,265,l),
(245,265,l),
(245,183,l),
(107,183,l),
(107,127,l),
(245,127,l),
(245,44,l),
(117,44,l),
(117,90,l),
(60,90,l)
);
}
);
width = 364;
}
);
rightKerningGroup = _eightinferior;
unicode = 8323;
},
{
glyphname = fourinferior;
layers = (
{
layerId = "2AAD9DA5-3897-4AC6-A4F9-A78ECEDC2410";
name = img;
width = 388;
},
{
layerId = "50F7179F-C30E-4DB1-9C2F-C70FE433AA29";
shapes = (
{
closed = 1;
nodes = (
(61,76,l),
(242,76,l),
(242,-12,l),
(327,-12,l),
(327,347,l),
(198,347,l),
(198,303,l),
(151,303,l),
(151,259,l),
(105,259,l),
(105,215,l),
(61,215,l)
);
},
{
closed = 1;
nodes = (
(190,171,l),
(190,208,l),
(202,208,l),
(214,208,l),
(237,208,l),
(237,252,l),
(242,252,l),
(242,171,l)
);
}
);
width = 388;
},
{
layerId = "1F4A5B8F-71A6-4186-92A0-28F5C6507669";
shapes = (
{
closed = 1;
nodes = (
(60,80,l),
(246,80,l),
(246,-13,l),
(304,-13,l),
(304,323,l),
(201,323,l),
(201,276,l),
(153,276,l),
(153,230,l),
(106,230,l),
(106,183,l),
(60,183,l)
);
},
{
closed = 1;
nodes = (
(116,137,l),
(116,173,l),
(163,173,l),
(163,220,l),
(211,220,l),
(211,267,l),
(246,267,l),
(246,137,l)
);
}
);
width = 365;
}
);
unicode = 8324;
},
{
glyphname = fiveinferior;
layers = (
{
layerId = "2AAD9DA5-3897-4AC6-A4F9-A78ECEDC2410";
name = img;
width = 415;
},
{
layerId = "50F7179F-C30E-4DB1-9C2F-C70FE433AA29";
shapes = (
{
closed = 1;
nodes = (
(60,32,l),
(106,32,l),
(106,-13,l),
(283,-13,l),
(283,32,l),
(330,32,l),
(330,158,l),
(283,158,l),
(283,204,l),
(191,204,l),
(191,249,l),
(145,249,l),
(145,307,l),
(244,307,l),
(244,216,l),
(330,216,l),
(330,339,l),
(283,339,l),
(283,384,l),
(106,384,l),
(106,339,l),
(60,339,l),
(60,216,l),
(106,216,l),
(106,171,l),
(152,171,l),
(152,125,l),
(244,125,l),
(244,65,l),
(145,65,l),
(145,110,l),
(60,110,l)
);
}
);
width = 415;
},
{
layerId = "1F4A5B8F-71A6-4186-92A0-28F5C6507669";
shapes = (
{
closed = 1;
nodes = (
(60,34,l),
(106,34,l),
(106,-13,l),
(256,-13,l),
(256,34,l),
(304,34,l),
(304,90,l),
(256,90,l),
(256,137,l),
(163,137,l),
(163,183,l),
(116,183,l),
(116,267,l),
(246,267,l),
(246,173,l),
(304,173,l),
(304,276,l),
(256,276,l),
(256,323,l),
(106,323,l),
(106,276,l),
(60,276,l),
(60,173,l),
(106,173,l),
(106,127,l),
(153,127,l),
(153,80,l),
(246,80,l),
(246,44,l),
(116,44,l),
(116,90,l),
(60,90,l)
);
}
);
width = 365;
}
);
unicode = 8325;
},
{
glyphname = sixinferior;
layers = (
{
layerId = "2AAD9DA5-3897-4AC6-A4F9-A78ECEDC2410";
name = img;
width = 415;
},
{
layerId = "50F7179F-C30E-4DB1-9C2F-C70FE433AA29";
shapes = (
{
closed = 1;
nodes = (
(145,65,l),
(145,171,l),
(244,171,l),
(244,65,l)
);
},
{
closed = 1;
nodes = (
(60,32,l),
(106,32,l),
(106,-13,l),
(283,-13,l),
(283,32,l),
(330,32,l),
(330,204,l),
(283,204,l),
(283,249,l),
(145,249,l),
(145,307,l),
(244,307,l),
(244,261,l),
(330,261,l),
(330,339,l),
(283,339,l),
(283,384,l),
(106,384,l),
(106,339,l),
(60,339,l)
);
}
);
width = 415;
},
{
layerId = "1F4A5B8F-71A6-4186-92A0-28F5C6507669";
shapes = (
{
closed = 1;
nodes = (
(116,44,l),
(116,127,l),
(246,127,l),
(246,44,l)
);
},
{
closed = 1;
nodes = (
(60,34,l),
(106,34,l),
(106,-13,l),
(256,-13,l),
(256,34,l),
(304,34,l),
(304,137,l),
(256,137,l),
(256,183,l),
(116,183,l),
(116,267,l),
(246,267,l),
(246,220,l),
(304,220,l),
(304,276,l),
(256,276,l),
(256,323,l),
(106,323,l),
(106,276,l),
(60,276,l)
);
}
);
width = 365;
}
);
leftKerningGroup = _sixinferior;
unicode = 8326;
},
{
glyphname = seveninferior;
layers = (
{
layerId = "2AAD9DA5-3897-4AC6-A4F9-A78ECEDC2410";
name = img;
width = 388;
},
{
layerId = "50F7179F-C30E-4DB1-9C2F-C70FE433AA29";
shapes = (
{
closed = 1;
nodes = (
(242,-12,l),
(327,-12,l),
(327,303,l),
(281,303,l),
(281,347,l),
(105,347,l),
(105,303,l),
(61,303,l),
(61,208,l),
(144,208,l),
(144,252,l),
(242,252,l)
);
}
);
width = 388;
},
{
layerId = "1F4A5B8F-71A6-4186-92A0-28F5C6507669";
shapes = (
{
closed = 1;
nodes = (
(246,-13,l),
(304,-13,l),
(304,276,l),
(256,276,l),
(256,323,l),
(106,323,l),
(106,276,l),
(60,276,l),
(60,220,l),
(116,220,l),
(116,267,l),
(246,267,l)
);
}
);
width = 365;
}
);
rightKerningGroup = _oneinferior;
unicode = 8327;
},
{
glyphname = eightinferior;
layers = (
{
layerId = "2AAD9DA5-3897-4AC6-A4F9-A78ECEDC2410";
name = img;
width = 388;
},
{
layerId = "50F7179F-C30E-4DB1-9C2F-C70FE433AA29";
shapes = (
{
closed = 1;
nodes = (
(105,-12,l),
(281,-12,l),
(281,32,l),
(327,32,l),
(327,142,l),
(327,164,l),
(327,164,l),
(327,171,l),
(327,303,l),
(281,303,l),
(281,347,l),
(105,347,l),
(105,303,l),
(61,303,l),
(61,193,l),
(61,171,l),
(61,171,l),
(61,164,l),
(61,32,l),
(105,32,l)
);
},
{
closed = 1;
nodes = (
(144,215,l),
(144,252,l),
(242,252,l),
(242,215,l)
);
},
{
closed = 1;
nodes = (
(144,83,l),
(144,120,l),
(242,120,l),
(242,83,l)
);
}
);
width = 388;
},
{
layerId = "1F4A5B8F-71A6-4186-92A0-28F5C6507669";
shapes = (
{
closed = 1;
nodes = (
(106,-13,l),
(256,-13,l),
(256,34,l),
(304,34,l),
(304,137,l),
(256,137,l),
(256,173,l),
(304,173,l),
(304,276,l),
(256,276,l),
(256,323,l),
(106,323,l),
(106,276,l),
(60,276,l),
(60,173,l),
(106,173,l),
(106,137,l),
(60,137,l),
(60,34,l),
(106,34,l)
);
},
{
closed = 1;
nodes = (
(116,183,l),
(116,267,l),
(246,267,l),
(246,183,l)
);
},
{
closed = 1;
nodes = (
(116,44,l),
(116,127,l),
(246,127,l),
(246,44,l)
);
}
);
width = 365;
}
);
rightKerningGroup = _eightinferior;
unicode = 8328;
},
{
glyphname = nineinferior;
layers = (
{
layerId = "2AAD9DA5-3897-4AC6-A4F9-A78ECEDC2410";
name = img;
width = 415;
},
{
layerId = "50F7179F-C30E-4DB1-9C2F-C70FE433AA29";
shapes = (
{
closed = 1;
nodes = (
(145,249,l),
(145,307,l),
(244,307,l),
(244,249,l)
);
},
{
closed = 1;
nodes = (
(60,32,l),
(106,32,l),
(106,-13,l),
(283,-13,l),
(283,32,l),
(330,32,l),
(330,339,l),
(283,339,l),
(283,384,l),
(106,384,l),
(106,339,l),
(60,339,l),
(60,216,l),
(106,216,l),
(106,171,l),
(244,171,l),
(244,65,l),
(145,65,l),
(145,110,l),
(60,110,l)
);
}
);
width = 415;
},
{
layerId = "1F4A5B8F-71A6-4186-92A0-28F5C6507669";
shapes = (
{
closed = 1;
nodes = (
(116,183,l),
(116,267,l),
(246,267,l),
(246,183,l)
);
},
{
closed = 1;
nodes = (
(60,34,l),
(106,34,l),
(106,-13,l),
(256,-13,l),
(256,34,l),
(304,34,l),
(304,276,l),
(256,276,l),
(256,323,l),
(106,323,l),
(106,276,l),
(60,276,l),
(60,173,l),
(106,173,l),
(106,127,l),
(246,127,l),
(246,44,l),
(116,44,l),
(116,90,l),
(60,90,l)
);
}
);
width = 365;
}
);
rightKerningGroup = _nineinferior;
unicode = 8329;
},
{
glyphname = onethird;
layers = (
{
layerId = "2AAD9DA5-3897-4AC6-A4F9-A78ECEDC2410";
name = img;
width = 948;
},
{
layerId = "50F7179F-C30E-4DB1-9C2F-C70FE433AA29";
shapes = (
{
closed = 1;
nodes = (
(152,287,l),
(238,287,l),
(238,589,l),
(191,589,l),
(191,635,l),
(106,635,l),
(106,589,l),
(60,589,l),
(60,512,l),
(145,512,l),
(145,557,l),
(152,557,l)
);
},
{
closed = 1;
nodes = (
(618,32,l),
(665,32,l),
(665,-13,l),
(840,-13,l),
(840,32,l),
(888,32,l),
(888,204,l),
(840,204,l),
(840,216,l),
(888,216,l),
(888,338,l),
(840,338,l),
(840,384,l),
(665,384,l),
(665,338,l),
(618,338,l),
(618,260,l),
(705,260,l),
(705,305,l),
(801,305,l),
(801,249,l),
(665,249,l),
(665,171,l),
(801,171,l),
(801,65,l),
(705,65,l),
(705,110,l),
(618,110,l)
);
},
{
closed = 1;
nodes = (
(215,-12,l),
(332,-12,l),
(332,141,l),
(411,141,l),
(411,218,l),
(489,218,l),
(489,371,l),
(569,371,l),
(569,449,l),
(646,449,l),
(646,635,l),
(529,635,l),
(529,558,l),
(449,558,l),
(449,404,l),
(372,404,l),
(372,327,l),
(293,327,l),
(293,174,l),
(215,174,l)
);
}
);
width = 948;
},
{
layerId = "1F4A5B8F-71A6-4186-92A0-28F5C6507669";
shapes = (
{
closed = 1;
nodes = (
(153,296,l),
(210,296,l),
(210,584,l),
(163,584,l),
(163,631,l),
(106,631,l),
(106,584,l),
(60,584,l),
(60,528,l),
(116,528,l),
(116,575,l),
(153,575,l)
);
},
{
closed = 1;
nodes = (
(576,34,l),
(624,34,l),
(624,-13,l),
(772,-13,l),
(772,34,l),
(820,34,l),
(820,137,l),
(772,137,l),
(772,173,l),
(820,173,l),
(820,275,l),
(772,275,l),
(772,322,l),
(624,322,l),
(624,275,l),
(576,275,l),
(576,219,l),
(634,219,l),
(634,265,l),
(762,265,l),
(762,183,l),
(624,183,l),
(624,127,l),
(762,127,l),
(762,44,l),
(634,44,l),
(634,90,l),
(576,90,l)
);
},
{
closed = 1;
nodes = (
(217,-12,l),
(306,-12,l),
(306,146,l),
(386,146,l),
(386,225,l),
(465,225,l),
(465,383,l),
(546,383,l),
(546,463,l),
(625,463,l),
(625,631,l),
(536,631,l),
(536,552,l),
(455,552,l),
(455,393,l),
(376,393,l),
(376,314,l),
(296,314,l),
(296,156,l),
(217,156,l)
);
}
);
width = 881;
}
);
unicode = 8531;
},
{
glyphname = twothirds;
layers = (
{
layerId = "2AAD9DA5-3897-4AC6-A4F9-A78ECEDC2410";
name = img;
width = 936;
},
{
layerId = "50F7179F-C30E-4DB1-9C2F-C70FE433AA29";
shapes = (
{
closed = 1;
nodes = (
(60,329,l),
(106,329,l),
(106,285,l),
(283,285,l),
(283,329,l),
(329,329,l),
(329,408,l),
(244,408,l),
(244,362,l),
(145,362,l),
(145,468,l),
(283,468,l),
(283,514,l),
(329,514,l),
(329,637,l),
(283,637,l),
(283,681,l),
(106,681,l),
(106,637,l),
(60,637,l),
(60,558,l),
(145,558,l),
(145,604,l),
(244,604,l),
(244,547,l),
(106,547,l),
(106,501,l),
(60,501,l)
);
},
{
closed = 1;
nodes = (
(647,32,l),
(695,32,l),
(695,-13,l),
(870,-13,l),
(870,32,l),
(917,32,l),
(917,204,l),
(870,204,l),
(870,216,l),
(917,216,l),
(917,338,l),
(870,338,l),
(870,384,l),
(695,384,l),
(695,338,l),
(647,338,l),
(647,260,l),
(734,260,l),
(734,305,l),
(831,305,l),
(831,249,l),
(695,249,l),
(695,171,l),
(831,171,l),
(831,65,l),
(734,65,l),
(734,110,l),
(647,110,l)
);
},
{
closed = 1;
nodes = (
(263,-12,l),
(381,-12,l),
(381,141,l),
(459,141,l),
(459,218,l),
(538,218,l),
(538,371,l),
(617,371,l),
(617,449,l),
(696,449,l),
(696,635,l),
(577,635,l),
(577,558,l),
(499,558,l),
(499,404,l),
(420,404,l),
(420,327,l),
(342,327,l),
(342,174,l),
(263,174,l)
);
}
);
width = 936;
},
{
layerId = "1F4A5B8F-71A6-4186-92A0-28F5C6507669";
shapes = (
{
closed = 1;
nodes = (
(60,340,l),
(106,340,l),
(106,294,l),
(256,294,l),
(256,340,l),
(303,340,l),
(303,397,l),
(246,397,l),
(246,350,l),
(116,350,l),
(116,433,l),
(256,433,l),
(256,480,l),
(303,480,l),
(303,583,l),
(256,583,l),
(256,629,l),
(106,629,l),
(106,583,l),
(60,583,l),
(60,526,l),
(116,526,l),
(116,573,l),
(246,573,l),
(246,490,l),
(106,490,l),
(106,443,l),
(60,443,l)
);
},
{
closed = 1;
nodes = (
(606,34,l),
(654,34,l),
(654,-13,l),
(802,-13,l),
(802,34,l),
(850,34,l),
(850,137,l),
(802,137,l),
(802,173,l),
(850,173,l),
(850,275,l),
(802,275,l),
(802,322,l),
(654,322,l),
(654,275,l),
(606,275,l),
(606,219,l),
(664,219,l),
(664,265,l),
(792,265,l),
(792,183,l),
(654,183,l),
(654,127,l),
(792,127,l),
(792,44,l),
(664,44,l),
(664,90,l),
(606,90,l)
);
},
{
closed = 1;
nodes = (
(266,-12,l),
(356,-12,l),
(356,146,l),
(435,146,l),
(435,225,l),
(515,225,l),
(515,383,l),
(595,383,l),
(595,463,l),
(675,463,l),
(675,631,l),
(585,631,l),
(585,552,l),
(505,552,l),
(505,393,l),
(425,393,l),
(425,314,l),
(346,314,l),
(346,156,l),
(266,156,l)
);
}
);
width = 910;
}
);
unicode = 8532;
},
{
glyphname = oneeighth;
layers = (
{
layerId = "2AAD9DA5-3897-4AC6-A4F9-A78ECEDC2410";
name = img;
width = 939;
},
{
layerId = "50F7179F-C30E-4DB1-9C2F-C70FE433AA29";
shapes = (
{
closed = 1;
nodes = (
(215,-12,l),
(332,-12,l),
(332,141,l),
(411,141,l),
(411,218,l),
(489,218,l),
(489,371,l),
(569,371,l),
(569,449,l),
(646,449,l),
(646,635,l),
(529,635,l),
(529,558,l),
(449,558,l),
(449,404,l),
(372,404,l),
(372,327,l),
(293,327,l),
(293,174,l),
(215,174,l)
);
},
{
closed = 1;
nodes = (
(152,287,l),
(238,287,l),
(238,589,l),
(191,589,l),
(191,635,l),
(106,635,l),
(106,589,l),
(60,589,l),
(60,512,l),
(145,512,l),
(145,557,l),
(152,557,l)
);
},
{
closed = 1;
nodes = (
(608,32,l),
(654,32,l),
(654,-13,l),
(832,-13,l),
(832,32,l),
(879,32,l),
(879,194,l),
(832,194,l),
(832,206,l),
(879,206,l),
(879,329,l),
(832,329,l),
(832,375,l),
(654,375,l),
(654,329,l),
(608,329,l),
(608,206,l),
(654,206,l),
(654,194,l),
(608,194,l)
);
},
{
closed = 1;
nodes = (
(694,239,l),
(694,297,l),
(792,297,l),
(792,239,l)
);
},
{
closed = 1;
nodes = (
(694,65,l),
(694,161,l),
(792,161,l),
(792,65,l)
);
}
);
width = 939;
},
{
layerId = "1F4A5B8F-71A6-4186-92A0-28F5C6507669";
shapes = (
{
closed = 1;
nodes = (
(217,-12,l),
(306,-12,l),
(306,146,l),
(386,146,l),
(386,225,l),
(465,225,l),
(465,383,l),
(546,383,l),
(546,463,l),
(625,463,l),
(625,631,l),
(536,631,l),
(536,552,l),
(455,552,l),
(455,393,l),
(376,393,l),
(376,314,l),
(296,314,l),
(296,156,l),
(217,156,l)
);
},
{
closed = 1;
nodes = (
(153,296,l),
(210,296,l),
(210,584,l),
(163,584,l),
(163,631,l),
(106,631,l),
(106,584,l),
(60,584,l),
(60,528,l),
(116,528,l),
(116,575,l),
(153,575,l)
);
},
{
closed = 1;
nodes = (
(566,34,l),
(613,34,l),
(613,-13,l),
(763,-13,l),
(763,34,l),
(811,34,l),
(811,137,l),
(763,137,l),
(763,173,l),
(811,173,l),
(811,276,l),
(763,276,l),
(763,323,l),
(613,323,l),
(613,276,l),
(566,276,l),
(566,173,l),
(613,173,l),
(613,137,l),
(566,137,l)
);
},
{
closed = 1;
nodes = (
(623,183,l),
(623,267,l),
(753,267,l),
(753,183,l)
);
},
{
closed = 1;
nodes = (
(623,44,l),
(623,127,l),
(753,127,l),
(753,44,l)
);
}
);
width = 872;
}
);
unicode = 8539;
},
{
glyphname = threeeighths;
layers = (
{
layerId = "2AAD9DA5-3897-4AC6-A4F9-A78ECEDC2410";
name = img;
width = 1007;
},
{
layerId = "50F7179F-C30E-4DB1-9C2F-C70FE433AA29";
shapes = (
{
closed = 1;
nodes = (
(60,284,l),
(107,284,l),
(107,238,l),
(282,238,l),
(282,284,l),
(329,284,l),
(329,407,l),
(282,407,l),
(282,418,l),
(329,418,l),
(329,589,l),
(282,589,l),
(282,635,l),
(107,635,l),
(107,589,l),
(60,589,l),
(60,512,l),
(146,512,l),
(146,556,l),
(243,556,l),
(243,451,l),
(107,451,l),
(107,374,l),
(243,374,l),
(243,317,l),
(146,317,l),
(146,361,l),
(60,361,l)
);
},
{
closed = 1;
nodes = (
(763,65,l),
(763,171,l),
(861,171,l),
(861,65,l)
);
},
{
closed = 1;
nodes = (
(763,249,l),
(763,307,l),
(861,307,l),
(861,249,l)
);
},
{
closed = 1;
nodes = (
(677,32,l),
(723,32,l),
(723,-13,l),
(901,-13,l),
(901,32,l),
(947,32,l),
(947,204,l),
(901,204,l),
(901,216,l),
(947,216,l),
(947,339,l),
(901,339,l),
(901,384,l),
(723,384,l),
(723,339,l),
(677,339,l),
(677,216,l),
(723,216,l),
(723,204,l),
(677,204,l)
);
},
{
closed = 1;
nodes = (
(283,-12,l),
(401,-12,l),
(401,141,l),
(479,141,l),
(479,218,l),
(558,218,l),
(558,371,l),
(637,371,l),
(637,449,l),
(715,449,l),
(715,635,l),
(597,635,l),
(597,558,l),
(518,558,l),
(518,404,l),
(440,404,l),
(440,327,l),
(362,327,l),
(362,174,l),
(283,174,l)
);
}
);
width = 1007;
},
{
layerId = "1F4A5B8F-71A6-4186-92A0-28F5C6507669";
shapes = (
{
closed = 1;
nodes = (
(60,343,l),
(107,343,l),
(107,296,l),
(255,296,l),
(255,343,l),
(303,343,l),
(303,446,l),
(255,446,l),
(255,482,l),
(303,482,l),
(303,584,l),
(255,584,l),
(255,631,l),
(107,631,l),
(107,584,l),
(60,584,l),
(60,528,l),
(117,528,l),
(117,574,l),
(245,574,l),
(245,492,l),
(107,492,l),
(107,436,l),
(245,436,l),
(245,353,l),
(117,353,l),
(117,399,l),
(60,399,l)
);
},
{
closed = 1;
nodes = (
(693,44,l),
(693,127,l),
(823,127,l),
(823,44,l)
);
},
{
closed = 1;
nodes = (
(693,183,l),
(693,267,l),
(823,267,l),
(823,183,l)
);
},
{
closed = 1;
nodes = (
(636,34,l),
(683,34,l),
(683,-13,l),
(833,-13,l),
(833,34,l),
(880,34,l),
(880,137,l),
(833,137,l),
(833,173,l),
(880,173,l),
(880,276,l),
(833,276,l),
(833,323,l),
(683,323,l),
(683,276,l),
(636,276,l),
(636,173,l),
(683,173,l),
(683,137,l),
(636,137,l)
);
},
{
closed = 1;
nodes = (
(286,-12,l),
(376,-12,l),
(376,146,l),
(455,146,l),
(455,225,l),
(535,225,l),
(535,383,l),
(615,383,l),
(615,463,l),
(695,463,l),
(695,631,l),
(605,631,l),
(605,552,l),
(525,552,l),
(525,393,l),
(445,393,l),
(445,314,l),
(366,314,l),
(366,156,l),
(286,156,l)
);
}
);
width = 941;
}
);
unicode = 8540;
},
{
glyphname = fiveeighths;
layers = (
{
layerId = "2AAD9DA5-3897-4AC6-A4F9-A78ECEDC2410";
name = img;
width = 1027;
},
{
layerId = "50F7179F-C30E-4DB1-9C2F-C70FE433AA29";
shapes = (
{
closed = 1;
nodes = (
(60,292,l),
(106,292,l),
(106,247,l),
(283,247,l),
(283,292,l),
(330,292,l),
(330,370,l),
(283,370,l),
(283,416,l),
(191,416,l),
(191,460,l),
(145,460,l),
(145,557,l),
(244,557,l),
(244,427,l),
(330,427,l),
(330,589,l),
(283,589,l),
(283,635,l),
(106,635,l),
(106,589,l),
(60,589,l),
(60,427,l),
(106,427,l),
(106,383,l),
(152,383,l),
(152,337,l),
(244,337,l),
(244,325,l),
(145,325,l),
(145,370,l),
(60,370,l)
);
},
{
closed = 1;
nodes = (
(781,65,l),
(781,171,l),
(881,171,l),
(881,65,l)
);
},
{
closed = 1;
nodes = (
(781,249,l),
(781,307,l),
(881,307,l),
(881,249,l)
);
},
{
closed = 1;
nodes = (
(697,32,l),
(742,32,l),
(742,-13,l),
(919,-13,l),
(919,32,l),
(967,32,l),
(967,204,l),
(919,204,l),
(919,216,l),
(967,216,l),
(967,339,l),
(919,339,l),
(919,384,l),
(742,384,l),
(742,339,l),
(697,339,l),
(697,216,l),
(742,216,l),
(742,204,l),
(697,204,l)
);
},
{
closed = 1;
nodes = (
(313,-12,l),
(430,-12,l),
(430,141,l),
(509,141,l),
(509,218,l),
(586,218,l),
(586,371,l),
(666,371,l),
(666,449,l),
(744,449,l),
(744,635,l),
(627,635,l),
(627,558,l),
(547,558,l),
(547,404,l),
(469,404,l),
(469,327,l),
(390,327,l),
(390,174,l),
(313,174,l)
);
}
);
width = 1027;
},
{
layerId = "1F4A5B8F-71A6-4186-92A0-28F5C6507669";
shapes = (
{
closed = 1;
nodes = (
(60,342,l),
(106,342,l),
(106,295,l),
(256,295,l),
(256,342,l),
(304,342,l),
(304,398,l),
(256,398,l),
(256,445,l),
(163,445,l),
(163,491,l),
(116,491,l),
(116,575,l),
(246,575,l),
(246,481,l),
(304,481,l),
(304,584,l),
(256,584,l),
(256,631,l),
(106,631,l),
(106,584,l),
(60,584,l),
(60,481,l),
(106,481,l),
(106,435,l),
(153,435,l),
(153,388,l),
(246,388,l),
(246,352,l),
(116,352,l),
(116,398,l),
(60,398,l)
);
},
{
closed = 1;
nodes = (
(722,44,l),
(722,127,l),
(853,127,l),
(853,44,l)
);
},
{
closed = 1;
nodes = (
(722,183,l),
(722,267,l),
(853,267,l),
(853,183,l)
);
},
{
closed = 1;
nodes = (
(666,34,l),
(712,34,l),
(712,-13,l),
(862,-13,l),
(862,34,l),
(910,34,l),
(910,137,l),
(862,137,l),
(862,173,l),
(910,173,l),
(910,276,l),
(862,276,l),
(862,323,l),
(712,323,l),
(712,276,l),
(666,276,l),
(666,173,l),
(712,173,l),
(712,137,l),
(666,137,l)
);
},
{
closed = 1;
nodes = (
(316,-12,l),
(405,-12,l),
(405,146,l),
(485,146,l),
(485,225,l),
(564,225,l),
(564,383,l),
(645,383,l),
(645,463,l),
(724,463,l),
(724,631,l),
(635,631,l),
(635,552,l),
(554,552,l),
(554,393,l),
(475,393,l),
(475,314,l),
(395,314,l),
(395,156,l),
(316,156,l)
);
}
);
width = 971;
}
);
unicode = 8541;
},
{
glyphname = seveneighths;
layers = (
{
layerId = "2AAD9DA5-3897-4AC6-A4F9-A78ECEDC2410";
name = img;
width = 997;
},
{
layerId = "50F7179F-C30E-4DB1-9C2F-C70FE433AA29";
shapes = (
{
closed = 1;
nodes = (
(714,-12,l),
(889,-12,l),
(889,32,l),
(936,32,l),
(936,142,l),
(936,164,l),
(936,164,l),
(936,171,l),
(936,303,l),
(889,303,l),
(889,347,l),
(714,347,l),
(714,303,l),
(669,303,l),
(669,193,l),
(669,171,l),
(669,171,l),
(669,164,l),
(669,32,l),
(714,32,l)
);
},
{
closed = 1;
nodes = (
(753,215,l),
(753,252,l),
(850,252,l),
(850,215,l)
);
},
{
closed = 1;
nodes = (
(753,83,l),
(753,120,l),
(850,120,l),
(850,83,l)
);
},
{
closed = 1;
nodes = (
(329,-11,l),
(445,-11,l),
(445,138,l),
(523,138,l),
(523,213,l),
(599,213,l),
(599,362,l),
(678,362,l),
(678,438,l),
(755,438,l),
(755,638,l),
(639,638,l),
(639,563,l),
(561,563,l),
(561,413,l),
(484,413,l),
(484,338,l),
(406,338,l),
(406,189,l),
(329,189,l)
);
},
{
closed = 1;
nodes = (
(242,279,l),
(327,279,l),
(327,593,l),
(281,593,l),
(281,638,l),
(105,638,l),
(105,593,l),
(61,593,l),
(61,499,l),
(144,499,l),
(144,543,l),
(242,543,l)
);
}
);
width = 997;
},
{
layerId = "1F4A5B8F-71A6-4186-92A0-28F5C6507669";
shapes = (
{
closed = 1;
nodes = (
(732,-13,l),
(882,-13,l),
(882,34,l),
(930,34,l),
(930,137,l),
(882,137,l),
(882,173,l),
(930,173,l),
(930,276,l),
(882,276,l),
(882,323,l),
(732,323,l),
(732,276,l),
(686,276,l),
(686,173,l),
(732,173,l),
(732,137,l),
(686,137,l),
(686,34,l),
(732,34,l)
);
},
{
closed = 1;
nodes = (
(742,183,l),
(742,267,l),
(872,267,l),
(872,183,l)
);
},
{
closed = 1;
nodes = (
(742,44,l),
(742,127,l),
(872,127,l),
(872,44,l)
);
},
{
closed = 1;
nodes = (
(336,-12,l),
(425,-12,l),
(425,146,l),
(505,146,l),
(505,225,l),
(584,225,l),
(584,383,l),
(665,383,l),
(665,463,l),
(744,463,l),
(744,631,l),
(655,631,l),
(655,552,l),
(574,552,l),
(574,393,l),
(495,393,l),
(495,314,l),
(415,314,l),
(415,156,l),
(336,156,l)
);
},
{
closed = 1;
nodes = (
(246,295,l),
(304,295,l),
(304,584,l),
(256,584,l),
(256,631,l),
(106,631,l),
(106,584,l),
(60,584,l),
(60,528,l),
(116,528,l),
(116,575,l),
(246,575,l)
);
}
);
width = 991;
}
);
unicode = 8542;
},
{
glyphname = cent;
layers = (
{
layerId = "2AAD9DA5-3897-4AC6-A4F9-A78ECEDC2410";
name = img;
width = 603;
},
{
layerId = "50F7179F-C30E-4DB1-9C2F-C70FE433AA29";
shapes = (
{
closed = 1;
nodes = (
(149,93,l),
(149,178,l),
(61,178,l),
(61,485,l),
(149,485,l),
(149,571,l),
(234,571,l),
(234,664,l),
(369,664,l),
(369,571,l),
(453,571,l),
(453,485,l),
(542,485,l),
(542,349,l),
(414,349,l),
(414,434,l),
(188,434,l),
(188,229,l),
(414,229,l),
(414,314,l),
(542,314,l),
(542,178,l),
(453,178,l),
(453,93,l),
(369,93,l),
(369,0,l),
(234,0,l),
(234,93,l)
);
}
);
width = 603;
},
{
layerId = "1F4A5B8F-71A6-4186-92A0-28F5C6507669";
shapes = (
{
closed = 1;
nodes = (
(151,98,l),
(151,188,l),
(60,188,l),
(60,469,l),
(151,469,l),
(151,560,l),
(238,560,l),
(238,659,l),
(347,659,l),
(347,560,l),
(433,560,l),
(433,469,l),
(525,469,l),
(525,369,l),
(423,369,l),
(423,459,l),
(161,459,l),
(161,198,l),
(423,198,l),
(423,288,l),
(525,288,l),
(525,188,l),
(433,188,l),
(433,98,l),
(347,98,l),
(347,0,l),
(238,0,l),
(238,98,l)
);
}
);
width = 586;
}
);
unicode = 162;
},
{
glyphname = peseta;
layers = (
{
layerId = "2AAD9DA5-3897-4AC6-A4F9-A78ECEDC2410";
name = img;
width = 1195;
},
{
layerId = "50F7179F-C30E-4DB1-9C2F-C70FE433AA29";
shapes = (
{
closed = 1;
nodes = (
(878,-11,l),
(1090,-11,l),
(1090,31,l),
(1134,31,l),
(1134,101,l),
(1134,101,l),
(1134,124,l),
(1090,124,l),
(1090,156,l),
(1134,156,l),
(1134,250,l),
(922,250,l),
(922,207,l),
(878,207,l),
(878,138,l),
(878,138,l),
(878,115,l),
(922,115,l),
(922,82,l),
(878,82,l)
);
},
{
closed = 1;
nodes = (
(604,31,l),
(648,31,l),
(648,-11,l),
(817,-11,l),
(817,31,l),
(861,31,l),
(861,124,l),
(778,124,l),
(778,82,l),
(687,82,l),
(687,156,l),
(817,156,l),
(817,250,l),
(687,250,l),
(687,333,l),
(604,333,l),
(604,250,l),
(561,250,l),
(561,156,l),
(604,156,l)
);
},
{
closed = 1;
nodes = (
(61,-11,l),
(188,-11,l),
(188,160,l),
(453,160,l),
(453,246,l),
(542,246,l),
(542,552,l),
(453,552,l),
(453,638,l),
(149,638,l),
(149,552,l),
(61,552,l)
);
},
{
closed = 1;
nodes = (
(188,297,l),
(188,501,l),
(414,501,l),
(414,297,l)
);
}
);
width = 1195;
},
{
layerId = "1F4A5B8F-71A6-4186-92A0-28F5C6507669";
shapes = (
{
closed = 1;
nodes = (
(900,-12,l),
(1089,-12,l),
(1089,33,l),
(1134,33,l),
(1134,87,l),
(1089,87,l),
(1089,131,l),
(956,131,l),
(956,165,l),
(1134,165,l),
(1134,220,l),
(946,220,l),
(946,175,l),
(900,175,l),
(900,121,l),
(946,121,l),
(946,77,l),
(1079,77,l),
(1079,43,l),
(900,43,l)
);
},
{
closed = 1;
nodes = (
(619,33,l),
(664,33,l),
(664,-12,l),
(808,-12,l),
(808,33,l),
(853,33,l),
(853,87,l),
(798,87,l),
(798,43,l),
(674,43,l),
(674,165,l),
(808,165,l),
(808,220,l),
(674,220,l),
(674,308,l),
(619,308,l),
(619,220,l),
(574,220,l),
(574,165,l),
(619,165,l)
);
},
{
closed = 1;
nodes = (
(60,-12,l),
(161,-12,l),
(161,169,l),
(433,169,l),
(433,260,l),
(525,260,l),
(525,540,l),
(433,540,l),
(433,631,l),
(151,631,l),
(151,540,l),
(60,540,l)
);
},
{
closed = 1;
nodes = (
(161,270,l),
(161,530,l),
(423,530,l),
(423,270,l)
);
}
);
width = 1195;
}
);
leftKerningGroup = _K;
unicode = 8359;
},
{
glyphname = lira;
layers = (
{
layerId = "2AAD9DA5-3897-4AC6-A4F9-A78ECEDC2410";
name = img;
width = 691;
},
{
layerId = "50F7179F-C30E-4DB1-9C2F-C70FE433AA29";
shapes = (
{
closed = 1;
nodes = (
(61,-11,l),
(542,-11,l),
(542,74,l),
(630,74,l),
(630,211,l),
(503,211,l),
(503,125,l),
(276,125,l),
(276,143,l),
(453,143,l),
(453,279,l),
(276,279,l),
(276,292,l),
(453,292,l),
(453,428,l),
(276,428,l),
(276,501,l),
(503,501,l),
(503,416,l),
(630,416,l),
(630,552,l),
(542,552,l),
(542,638,l),
(237,638,l),
(237,552,l),
(149,552,l),
(149,125,l),
(61,125,l)
);
}
);
width = 691;
},
{
layerId = "1F4A5B8F-71A6-4186-92A0-28F5C6507669";
shapes = (
{
closed = 1;
nodes = (
(60,-12,l),
(525,-12,l),
(525,78,l),
(615,78,l),
(615,179,l),
(515,179,l),
(515,88,l),
(251,88,l),
(251,151,l),
(433,151,l),
(433,251,l),
(251,251,l),
(251,309,l),
(433,309,l),
(433,409,l),
(251,409,l),
(251,530,l),
(515,530,l),
(515,440,l),
(615,440,l),
(615,540,l),
(525,540,l),
(525,631,l),
(241,631,l),
(241,540,l),
(151,540,l),
(151,88,l),
(60,88,l)
);
}
);
width = 676;
}
);
leftKerningGroup = _lira;
unicode = 8356;
},
{
glyphname = colonmonetary;
layers = (
{
layerId = "2AAD9DA5-3897-4AC6-A4F9-A78ECEDC2410";
name = img;
width = 603;
},
{
layerId = "50F7179F-C30E-4DB1-9C2F-C70FE433AA29";
shapes = (
{
closed = 1;
nodes = (
(156,-67,l),
(237,-67,l),
(246,-11,l),
(251,-11,l),
(243,-67,l),
(323,-67,l),
(332,-11,l),
(453,-11,l),
(453,74,l),
(542,74,l),
(542,297,l),
(414,297,l),
(414,125,l),
(353,125,l),
(410,501,l),
(414,501,l),
(414,331,l),
(542,331,l),
(542,552,l),
(453,552,l),
(453,638,l),
(431,638,l),
(440,694,l),
(360,694,l),
(351,638,l),
(345,638,l),
(353,694,l),
(273,694,l),
(264,638,l),
(149,638,l),
(149,552,l),
(61,552,l),
(61,74,l),
(149,74,l),
(149,74,o),
(149,10,o),
(165,-11,c),
(165,-11,l)
);
},
{
closed = 1;
nodes = (
(267,125,l),
(322,501,l),
(329,501,l),
(273,125,l)
);
},
{
closed = 1;
nodes = (
(188,139,l),
(188,211,l),
(188,501,l),
(242,501,l)
);
}
);
width = 603;
},
{
layerId = "1F4A5B8F-71A6-4186-92A0-28F5C6507669";
shapes = (
{
closed = 1;
nodes = (
(162,-71,l),
(214,-71,l),
(223,-12,l),
(260,-12,l),
(251,-71,l),
(303,-71,l),
(312,-12,l),
(433,-12,l),
(433,78,l),
(525,78,l),
(525,270,l),
(423,270,l),
(423,88,l),
(327,88,l),
(392,530,l),
(423,530,l),
(423,350,l),
(525,350,l),
(525,540,l),
(433,540,l),
(433,631,l),
(407,631,l),
(416,690,l),
(365,690,l),
(356,631,l),
(318,631,l),
(327,690,l),
(275,690,l),
(266,631,l),
(151,631,l),
(151,540,l),
(60,540,l),
(60,78,l),
(151,78,l),
(151,48,o),
(151,18,o),
(151,-12,c),
(171,-12,l)
);
},
{
closed = 1;
nodes = (
(238,88,l),
(302,530,l),
(340,530,l),
(275,88,l)
);
},
{
closed = 1;
nodes = (
(186,88,l),
(161,88,l),
(161,530,l),
(250,530,l)
);
}
);
width = 586;
}
);
unicode = 8353;
},
{
glyphname = eng;
leftMetricsKey = m;
layers = (
{
layerId = "2AAD9DA5-3897-4AC6-A4F9-A78ECEDC2410";
name = img;
width = 749;
},
{
layerId = "50F7179F-C30E-4DB1-9C2F-C70FE433AA29";
shapes = (
{
closed = 1;
nodes = (
(150,-152,l),
(240,-152,l),
(240,-240,l),
(458,-240,l),
(458,-152,l),
(549,-152,l),
(549,371,l),
(458,371,l),
(458,459,l),
(61,459,l),
(61,7,l),
(190,7,l),
(190,339,l),
(419,339,l),
(419,-119,l),
(279,-119,l),
(279,-31,l),
(150,-31,l)
);
}
);
width = 749;
},
{
layerId = "1F4A5B8F-71A6-4186-92A0-28F5C6507669";
shapes = (
{
closed = 1;
nodes = (
(150,-156,l),
(241,-156,l),
(241,-247,l),
(433,-247,l),
(433,-156,l),
(525,-156,l),
(525,359,l),
(433,359,l),
(433,450,l),
(60,450,l),
(60,-12,l),
(161,-12,l),
(161,350,l),
(423,350,l),
(423,-146,l),
(251,-146,l),
(251,-55,l),
(150,-55,l)
);
}
);
width = 586;
}
);
leftKerningGroup = _m;
rightKerningGroup = _g;
unicode = 331;
},
{
glyphname = Eng;
leftMetricsKey = H;
rightMetricsKey = H;
layers = (
{
layerId = "2AAD9DA5-3897-4AC6-A4F9-A78ECEDC2410";
name = img;
width = 603;
},
{
layerId = "50F7179F-C30E-4DB1-9C2F-C70FE433AA29";
shapes = (
{
closed = 1;
nodes = (
(148,-148,l),
(237,-148,l),
(237,-234,l),
(453,-234,l),
(453,-148,l),
(542,-148,l),
(542,638,l),
(414,638,l),
(414,211,l),
(365,211,l),
(365,467,l),
(276,467,l),
(276,552,l),
(188,552,l),
(188,638,l),
(61,638,l),
(61,-11,l),
(188,-11,l),
(188,416,l),
(237,416,l),
(237,160,l),
(326,160,l),
(326,74,l),
(414,74,l),
(414,-97,l),
(276,-97,l),
(276,-20,l),
(148,-20,l)
);
}
);
width = 603;
},
{
layerId = "1F4A5B8F-71A6-4186-92A0-28F5C6507669";
shapes = (
{
closed = 1;
nodes = (
(150,-157,l),
(241,-157,l),
(241,-248,l),
(433,-248,l),
(433,-157,l),
(525,-157,l),
(525,631,l),
(423,631,l),
(423,179,l),
(343,179,l),
(343,450,l),
(251,450,l),
(251,540,l),
(161,540,l),
(161,631,l),
(60,631,l),
(60,-12,l),
(161,-12,l),
(161,440,l),
(241,440,l),
(241,169,l),
(333,169,l),
(333,78,l),
(423,78,l),
(423,-147,l),
(251,-147,l),
(251,-56,l),
(150,-56,l)
);
}
);
width = 586;
}
);
leftKerningGroup = _D;
rightKerningGroup = _H;
unicode = 330;
},
{
glyphname = Aacute;
leftMetricsKey = Aring;
widthMetricsKey = Aring;
layers = (
{
layerId = "2AAD9DA5-3897-4AC6-A4F9-A78ECEDC2410";
name = img;
width = 603;
},
{
layerId = "50F7179F-C30E-4DB1-9C2F-C70FE433AA29";
shapes = (
{
closed = 1;
nodes = (
(188,297,l),
(414,297,l),
(414,416,l),
(326,416,l),
(326,501,l),
(276,501,l),
(276,416,l),
(188,416,l)
);
},
{
closed = 1;
nodes = (
(61,-11,l),
(61,467,l),
(149,467,l),
(149,552,l),
(237,552,l),
(237,638,l),
(365,638,l),
(365,552,l),
(453,552,l),
(453,467,l),
(542,467,l),
(542,-11,l),
(414,-11,l),
(414,160,l),
(188,160,l),
(188,-11,l)
);
},
{
closed = 1;
nodes = (
(258,653,l),
(258,747,l),
(302,747,l),
(302,790,l),
(346,790,l),
(346,833,l),
(427,833,l),
(427,739,l),
(385,739,l),
(385,696,l),
(341,696,l),
(341,653,l)
);
}
);
width = 603;
},
{
layerId = "1F4A5B8F-71A6-4186-92A0-28F5C6507669";
shapes = (
{
closed = 1;
nodes = (
(161,270,l),
(423,270,l),
(423,440,l),
(333,440,l),
(333,530,l),
(251,530,l),
(251,440,l),
(161,440,l)
);
},
{
closed = 1;
nodes = (
(60,-12,l),
(60,450,l),
(151,450,l),
(151,540,l),
(241,540,l),
(241,631,l),
(343,631,l),
(343,540,l),
(433,540,l),
(433,450,l),
(525,450,l),
(525,-12,l),
(423,-12,l),
(423,169,l),
(161,169,l),
(161,-12,l)
);
},
{
closed = 1;
nodes = (
(263,691,l),
(263,746,l),
(308,746,l),
(308,792,l),
(353,792,l),
(353,837,l),
(407,837,l),
(407,782,l),
(363,782,l),
(363,737,l),
(318,737,l),
(318,691,l)
);
}
);
width = 586;
}
);
leftKerningGroup = _Aring;
rightKerningGroup = _Aring1;
unicode = 193;
},
{
glyphname = Abreve;
layers = (
{
layerId = "2AAD9DA5-3897-4AC6-A4F9-A78ECEDC2410";
name = img;
width = 603;
},
{
layerId = "50F7179F-C30E-4DB1-9C2F-C70FE433AA29";
shapes = (
{
closed = 1;
nodes = (
(167,653,l),
(167,790,l),
(249,790,l),
(249,747,l),
(351,747,l),
(351,790,l),
(432,790,l),
(432,653,l)
);
},
{
closed = 1;
nodes = (
(61,-11,l),
(61,467,l),
(149,467,l),
(149,552,l),
(237,552,l),
(237,638,l),
(365,638,l),
(365,552,l),
(453,552,l),
(453,467,l),
(542,467,l),
(542,-11,l),
(414,-11,l),
(414,160,l),
(188,160,l),
(188,-11,l)
);
},
{
closed = 1;
nodes = (
(188,297,l),
(414,297,l),
(414,416,l),
(326,416,l),
(326,501,l),
(276,501,l),
(276,416,l),
(188,416,l)
);
}
);
width = 603;
},
{
layerId = "1F4A5B8F-71A6-4186-92A0-28F5C6507669";
shapes = (
{
closed = 1;
nodes = (
(169,691,l),
(169,792,l),
(224,792,l),
(224,746,l),
(358,746,l),
(358,792,l),
(412,792,l),
(412,691,l)
);
},
{
closed = 1;
nodes = (
(60,-12,l),
(60,450,l),
(151,450,l),
(151,540,l),
(241,540,l),
(241,631,l),
(343,631,l),
(343,540,l),
(433,540,l),
(433,450,l),
(525,450,l),
(525,-12,l),
(423,-12,l),
(423,169,l),
(161,169,l),
(161,-12,l)
);
},
{
closed = 1;
nodes = (
(161,270,l),
(423,270,l),
(423,440,l),
(333,440,l),
(333,530,l),
(251,530,l),
(251,440,l),
(161,440,l)
);
}
);
width = 586;
}
);
leftKerningGroup = _Abreve;
rightKerningGroup = _Abreve;
unicode = 258;
},
{
glyphname = Acircumflex;
leftMetricsKey = Abreve;
widthMetricsKey = Abreve;
layers = (
{
layerId = "2AAD9DA5-3897-4AC6-A4F9-A78ECEDC2410";
name = img;
width = 603;
},
{
layerId = "50F7179F-C30E-4DB1-9C2F-C70FE433AA29";
shapes = (
{
closed = 1;
nodes = (
(188,297,l),
(414,297,l),
(414,416,l),
(326,416,l),
(326,501,l),
(276,501,l),
(276,416,l),
(188,416,l)
);
},
{
closed = 1;
nodes = (
(61,-11,l),
(61,467,l),
(149,467,l),
(149,552,l),
(237,552,l),
(237,638,l),
(365,638,l),
(365,552,l),
(453,552,l),
(453,467,l),
(542,467,l),
(542,-11,l),
(414,-11,l),
(414,160,l),
(188,160,l),
(188,-11,l)
);
},
{
closed = 1;
nodes = (
(167,654,l),
(167,747,l),
(211,747,l),
(211,791,l),
(391,791,l),
(391,747,l),
(435,747,l),
(435,654,l),
(352,654,l),
(352,697,l),
(250,697,l),
(250,654,l)
);
}
);
width = 603;
},
{
layerId = "1F4A5B8F-71A6-4186-92A0-28F5C6507669";
shapes = (
{
closed = 1;
nodes = (
(161,270,l),
(423,270,l),
(423,440,l),
(333,440,l),
(333,530,l),
(251,530,l),
(251,440,l),
(161,440,l)
);
},
{
closed = 1;
nodes = (
(60,-12,l),
(60,450,l),
(151,450,l),
(151,540,l),
(241,540,l),
(241,631,l),
(343,631,l),
(343,540,l),
(433,540,l),
(433,450,l),
(525,450,l),
(525,-12,l),
(423,-12,l),
(423,169,l),
(161,169,l),
(161,-12,l)
);
},
{
closed = 1;
nodes = (
(169,692,l),
(169,747,l),
(215,747,l),
(215,793,l),
(370,793,l),
(370,747,l),
(415,747,l),
(415,692,l),
(360,692,l),
(360,738,l),
(225,738,l),
(225,692,l)
);
}
);
width = 586;
}
);
leftKerningGroup = _Abreve;
rightKerningGroup = _Abreve;
unicode = 194;
},
{
glyphname = Agrave;
layers = (
{
layerId = "2AAD9DA5-3897-4AC6-A4F9-A78ECEDC2410";
name = img;
width = 603;
},
{
layerId = "50F7179F-C30E-4DB1-9C2F-C70FE433AA29";
shapes = (
{
closed = 1;
nodes = (
(188,297,l),
(414,297,l),
(414,416,l),
(326,416,l),
(326,501,l),
(276,501,l),
(276,416,l),
(188,416,l)
);
},
{
closed = 1;
nodes = (
(61,-11,l),
(61,467,l),
(149,467,l),
(149,552,l),
(237,552,l),
(237,638,l),
(365,638,l),
(365,552,l),
(453,552,l),
(453,467,l),
(542,467,l),
(542,-11,l),
(414,-11,l),
(414,160,l),
(188,160,l),
(188,-11,l)
);
},
{
closed = 1;
nodes = (
(215,696,l),
(215,739,l),
(172,739,l),
(172,833,l),
(254,833,l),
(254,790,l),
(297,790,l),
(297,747,l),
(341,747,l),
(341,653,l),
(258,653,l),
(258,696,l)
);
}
);
width = 603;
},
{
layerId = "1F4A5B8F-71A6-4186-92A0-28F5C6507669";
shapes = (
{
closed = 1;
nodes = (
(161,270,l),
(423,270,l),
(423,440,l),
(333,440,l),
(333,530,l),
(251,530,l),
(251,440,l),
(161,440,l)
);
},
{
closed = 1;
nodes = (
(60,-12,l),
(60,450,l),
(151,450,l),
(151,540,l),
(241,540,l),
(241,631,l),
(343,631,l),
(343,540,l),
(433,540,l),
(433,450,l),
(525,450,l),
(525,-12,l),
(423,-12,l),
(423,169,l),
(161,169,l),
(161,-12,l)
);
},
{
closed = 1;
nodes = (
(219,737,l),
(219,782,l),
(174,782,l),
(174,837,l),
(229,837,l),
(229,792,l),
(273,792,l),
(273,746,l),
(318,746,l),
(318,691,l),
(263,691,l),
(263,737,l)
);
}
);
width = 586;
}
);
leftKerningGroup = _Aring;
unicode = 192;
},
{
glyphname = Adieresis;
layers = (
{
layerId = "2AAD9DA5-3897-4AC6-A4F9-A78ECEDC2410";
name = img;
width = 603;
},
{
layerId = "50F7179F-C30E-4DB1-9C2F-C70FE433AA29";
shapes = (
{
closed = 1;
nodes = (
(188,297,l),
(414,297,l),
(414,416,l),
(326,416,l),
(326,501,l),
(276,501,l),
(276,416,l),
(188,416,l)
);
},
{
closed = 1;
nodes = (
(61,-11,l),
(61,467,l),
(149,467,l),
(149,552,l),
(237,552,l),
(237,638,l),
(365,638,l),
(365,552,l),
(453,552,l),
(453,467,l),
(542,467,l),
(542,-11,l),
(414,-11,l),
(414,160,l),
(188,160,l),
(188,-11,l)
);
},
{
closed = 1;
nodes = (
(135,664,l),
(135,801,l),
(263,801,l),
(263,664,l)
);
},
{
closed = 1;
nodes = (
(342,664,l),
(342,801,l),
(469,801,l),
(469,664,l)
);
}
);
width = 603;
},
{
layerId = "1F4A5B8F-71A6-4186-92A0-28F5C6507669";
shapes = (
{
closed = 1;
nodes = (
(161,270,l),
(423,270,l),
(423,440,l),
(333,440,l),
(333,530,l),
(251,530,l),
(251,440,l),
(161,440,l)
);
},
{
closed = 1;
nodes = (
(60,-12,l),
(60,450,l),
(151,450,l),
(151,540,l),
(241,540,l),
(241,631,l),
(343,631,l),
(343,540,l),
(433,540,l),
(433,450,l),
(525,450,l),
(525,-12,l),
(423,-12,l),
(423,169,l),
(161,169,l),
(161,-12,l)
);
},
{
closed = 1;
nodes = (
(136,703,l),
(136,804,l),
(238,804,l),
(238,703,l)
);
},
{
closed = 1;
nodes = (
(349,703,l),
(349,804,l),
(450,804,l),
(450,703,l)
);
}
);
width = 586;
}
);
unicode = 196;
},
{
glyphname = Amacron;
leftMetricsKey = Atilde;
widthMetricsKey = Atilde;
layers = (
{
layerId = "2AAD9DA5-3897-4AC6-A4F9-A78ECEDC2410";
name = img;
width = 603;
},
{
layerId = "50F7179F-C30E-4DB1-9C2F-C70FE433AA29";
shapes = (
{
closed = 1;
nodes = (
(188,297,l),
(414,297,l),
(414,416,l),
(326,416,l),
(326,501,l),
(276,501,l),
(276,416,l),
(188,416,l)
);
},
{
closed = 1;
nodes = (
(61,-11,l),
(61,467,l),
(149,467,l),
(149,552,l),
(237,552,l),
(237,638,l),
(365,638,l),
(365,552,l),
(453,552,l),
(453,467,l),
(542,467,l),
(542,-11,l),
(414,-11,l),
(414,160,l),
(188,160,l),
(188,-11,l)
);
},
{
closed = 1;
nodes = (
(147,654,l),
(147,791,l),
(451,791,l),
(451,654,l)
);
}
);
width = 603;
},
{
layerId = "1F4A5B8F-71A6-4186-92A0-28F5C6507669";
shapes = (
{
closed = 1;
nodes = (
(161,270,l),
(423,270,l),
(423,440,l),
(333,440,l),
(333,530,l),
(251,530,l),
(251,440,l),
(161,440,l)
);
},
{
closed = 1;
nodes = (
(60,-12,l),
(60,450,l),
(151,450,l),
(151,540,l),
(241,540,l),
(241,631,l),
(343,631,l),
(343,540,l),
(433,540,l),
(433,450,l),
(525,450,l),
(525,-12,l),
(423,-12,l),
(423,169,l),
(161,169,l),
(161,-12,l)
);
},
{
closed = 1;
nodes = (
(149,692,l),
(149,793,l),
(431,793,l),
(431,692,l)
);
}
);
width = 586;
}
);
leftKerningGroup = _Atilde;
rightKerningGroup = _Atilde;
unicode = 256;
},
{
glyphname = Aring;
layers = (
{
layerId = "2AAD9DA5-3897-4AC6-A4F9-A78ECEDC2410";
name = img;
width = 603;
},
{
layerId = "50F7179F-C30E-4DB1-9C2F-C70FE433AA29";
shapes = (
{
closed = 1;
nodes = (
(189,654,l),
(189,791,l),
(414,791,l),
(414,654,l)
);
},
{
closed = 1;
nodes = (
(222,683,l),
(387,683,l),
(387,758,l),
(222,758,l)
);
},
{
closed = 1;
nodes = (
(61,-11,l),
(61,467,l),
(149,467,l),
(149,552,l),
(237,552,l),
(237,638,l),
(365,638,l),
(365,552,l),
(453,552,l),
(453,467,l),
(542,467,l),
(542,-11,l),
(414,-11,l),
(414,160,l),
(188,160,l),
(188,-11,l)
);
},
{
closed = 1;
nodes = (
(188,297,l),
(414,297,l),
(414,416,l),
(326,416,l),
(326,501,l),
(276,501,l),
(276,416,l),
(188,416,l)
);
}
);
width = 603;
},
{
layerId = "1F4A5B8F-71A6-4186-92A0-28F5C6507669";
shapes = (
{
closed = 1;
nodes = (
(192,692,l),
(192,793,l),
(393,793,l),
(393,692,l)
);
},
{
closed = 1;
nodes = (
(225,725,l),
(360,725,l),
(360,760,l),
(225,760,l)
);
},
{
closed = 1;
nodes = (
(60,-12,l),
(60,450,l),
(151,450,l),
(151,540,l),
(241,540,l),
(241,631,l),
(343,631,l),
(343,540,l),
(433,540,l),
(433,450,l),
(525,450,l),
(525,-12,l),
(423,-12,l),
(423,169,l),
(161,169,l),
(161,-12,l)
);
},
{
closed = 1;
nodes = (
(161,270,l),
(423,270,l),
(423,440,l),
(333,440,l),
(333,530,l),
(251,530,l),
(251,440,l),
(161,440,l)
);
}
);
width = 586;
}
);
leftKerningGroup = _Aring;
rightKerningGroup = _Aring1;
unicode = 197;
},
{
glyphname = Atilde;
layers = (
{
layerId = "2AAD9DA5-3897-4AC6-A4F9-A78ECEDC2410";
name = img;
width = 603;
},
{
layerId = "50F7179F-C30E-4DB1-9C2F-C70FE433AA29";
shapes = (
{
closed = 1;
nodes = (
(188,297,l),
(414,297,l),
(414,416,l),
(326,416,l),
(326,501,l),
(276,501,l),
(276,416,l),
(188,416,l)
);
},
{
closed = 1;
nodes = (
(61,-11,l),
(61,467,l),
(149,467,l),
(149,552,l),
(237,552,l),
(237,638,l),
(365,638,l),
(365,552,l),
(453,552,l),
(453,467,l),
(542,467,l),
(542,-11,l),
(414,-11,l),
(414,160,l),
(188,160,l),
(188,-11,l)
);
},
{
closed = 1;
nodes = (
(112,653,l),
(112,793,l),
(338,793,l),
(338,748,l),
(393,748,l),
(393,793,l),
(479,793,l),
(479,653,l),
(252,653,l),
(252,698,l),
(198,698,l),
(198,653,l)
);
}
);
width = 603;
},
{
layerId = "1F4A5B8F-71A6-4186-92A0-28F5C6507669";
shapes = (
{
closed = 1;
nodes = (
(161,270,l),
(423,270,l),
(423,440,l),
(333,440,l),
(333,530,l),
(251,530,l),
(251,440,l),
(161,440,l)
);
},
{
closed = 1;
nodes = (
(60,-12,l),
(60,450,l),
(151,450,l),
(151,540,l),
(241,540,l),
(241,631,l),
(343,631,l),
(343,540,l),
(433,540,l),
(433,450,l),
(525,450,l),
(525,-12,l),
(423,-12,l),
(423,169,l),
(161,169,l),
(161,-12,l)
);
},
{
closed = 1;
nodes = (
(113,691,l),
(113,795,l),
(315,795,l),
(315,748,l),
(402,748,l),
(402,795,l),
(460,795,l),
(460,691,l),
(257,691,l),
(257,739,l),
(171,739,l),
(171,691,l)
);
}
);
width = 586;
}
);
leftKerningGroup = _Atilde;
rightKerningGroup = _Atilde;
unicode = 195;
},
{
glyphname = AEacute;
layers = (
{
layerId = "2AAD9DA5-3897-4AC6-A4F9-A78ECEDC2410";
name = img;
width = 956;
},
{
layerId = "50F7179F-C30E-4DB1-9C2F-C70FE433AA29";
shapes = (
{
closed = 1;
nodes = (
(188,297,l),
(414,297,l),
(414,416,l),
(326,416,l),
(326,501,l),
(276,501,l),
(276,416,l),
(188,416,l)
);
},
{
closed = 1;
nodes = (
(61,-11,l),
(61,467,l),
(149,467,l),
(149,552,l),
(237,552,l),
(237,638,l),
(365,638,l),
(365,552,l),
(503,552,l),
(503,638,l),
(807,638,l),
(807,552,l),
(895,552,l),
(895,416,l),
(768,416,l),
(768,501,l),
(542,501,l),
(542,381,l),
(718,381,l),
(718,246,l),
(542,246,l),
(542,125,l),
(768,125,l),
(768,211,l),
(895,211,l),
(895,74,l),
(807,74,l),
(807,-11,l),
(414,-11,l),
(414,160,l),
(188,160,l),
(188,-11,l)
);
},
{
closed = 1;
nodes = (
(403,653,l),
(403,747,l),
(447,747,l),
(447,790,l),
(491,790,l),
(491,833,l),
(572,833,l),
(572,739,l),
(529,739,l),
(529,696,l),
(486,696,l),
(486,653,l)
);
}
);
width = 956;
},
{
layerId = "1F4A5B8F-71A6-4186-92A0-28F5C6507669";
shapes = (
{
closed = 1;
nodes = (
(161,270,l),
(423,270,l),
(423,440,l),
(333,440,l),
(333,530,l),
(251,530,l),
(251,440,l),
(161,440,l)
);
},
{
closed = 1;
nodes = (
(60,-12,l),
(60,450,l),
(151,450,l),
(151,540,l),
(241,540,l),
(241,631,l),
(343,631,l),
(343,540,l),
(515,540,l),
(515,631,l),
(797,631,l),
(797,540,l),
(888,540,l),
(888,440,l),
(787,440,l),
(787,530,l),
(525,530,l),
(525,359,l),
(706,359,l),
(706,260,l),
(525,260,l),
(525,88,l),
(787,88,l),
(787,179,l),
(888,179,l),
(888,78,l),
(797,78,l),
(797,-12,l),
(423,-12,l),
(423,169,l),
(161,169,l),
(161,-12,l)
);
},
{
closed = 1;
nodes = (
(412,691,l),
(412,746,l),
(457,746,l),
(457,792,l),
(502,792,l),
(502,837,l),
(556,837,l),
(556,782,l),
(512,782,l),
(512,737,l),
(467,737,l),
(467,691,l)
);
}
);
width = 949;
}
);
unicode = 508;
},
{
glyphname = Ccedilla;
leftMetricsKey = C;
widthMetricsKey = C;
layers = (
{
layerId = "2AAD9DA5-3897-4AC6-A4F9-A78ECEDC2410";
name = img;
width = 603;
},
{
layerId = "50F7179F-C30E-4DB1-9C2F-C70FE433AA29";
shapes = (
{
closed = 1;
nodes = (
(173,-146,l),
(217,-146,l),
(217,-189,l),
(388,-189,l),
(388,-146,l),
(432,-146,l),
(432,-53,l),
(388,-53,l),
(388,-32,l),
(388,-32,l),
(388,-11,l),
(453,-11,l),
(453,74,l),
(542,74,l),
(542,297,l),
(414,297,l),
(414,125,l),
(188,125,l),
(188,501,l),
(414,501,l),
(414,331,l),
(542,331,l),
(542,552,l),
(453,552,l),
(453,638,l),
(149,638,l),
(149,552,l),
(61,552,l),
(61,74,l),
(149,74,l),
(149,-11,l),
(261,-11,l),
(261,-61,l),
(305,-61,l),
(305,-78,l),
(305,-78,l),
(305,-95,l),
(256,-95,l),
(256,-53,l),
(173,-53,l)
);
}
);
width = 603;
},
{
layerId = "1F4A5B8F-71A6-4186-92A0-28F5C6507669";
shapes = (
{
closed = 1;
nodes = (
(175,-155,l),
(221,-155,l),
(221,-200,l),
(367,-200,l),
(367,-155,l),
(412,-155,l),
(412,-100,l),
(367,-100,l),
(367,-55,l),
(321,-55,l),
(321,-12,l),
(433,-12,l),
(433,78,l),
(525,78,l),
(525,270,l),
(423,270,l),
(423,88,l),
(161,88,l),
(161,530,l),
(423,530,l),
(423,350,l),
(525,350,l),
(525,540,l),
(433,540,l),
(433,631,l),
(151,631,l),
(151,540,l),
(60,540,l),
(60,78,l),
(151,78,l),
(151,-12,l),
(266,-12,l),
(266,-65,l),
(311,-65,l),
(311,-110,l),
(357,-110,l),
(357,-145,l),
(231,-145,l),
(231,-100,l),
(175,-100,l)
);
}
);
width = 586;
}
);
leftKerningGroup = _B;
rightKerningGroup = _C;
unicode = 199;
},
{
glyphname = Cacute;
layers = (
{
layerId = "2AAD9DA5-3897-4AC6-A4F9-A78ECEDC2410";
name = img;
width = 603;
},
{
layerId = "50F7179F-C30E-4DB1-9C2F-C70FE433AA29";
shapes = (
{
closed = 1;
nodes = (
(61,74,l),
(149,74,l),
(149,-11,l),
(453,-11,l),
(453,74,l),
(542,74,l),
(542,297,l),
(414,297,l),
(414,125,l),
(188,125,l),
(188,501,l),
(414,501,l),
(414,331,l),
(542,331,l),
(542,552,l),
(453,552,l),
(453,638,l),
(149,638,l),
(149,552,l),
(61,552,l)
);
},
{
closed = 1;
nodes = (
(258,653,l),
(341,653,l),
(341,696,l),
(385,696,l),
(385,739,l),
(427,739,l),
(427,833,l),
(346,833,l),
(346,790,l),
(302,790,l),
(302,747,l),
(258,747,l)
);
}
);
width = 603;
},
{
layerId = "1F4A5B8F-71A6-4186-92A0-28F5C6507669";
shapes = (
{
closed = 1;
nodes = (
(60,78,l),
(151,78,l),
(151,-12,l),
(433,-12,l),
(433,78,l),
(525,78,l),
(525,270,l),
(423,270,l),
(423,88,l),
(161,88,l),
(161,530,l),
(423,530,l),
(423,350,l),
(525,350,l),
(525,540,l),
(433,540,l),
(433,631,l),
(151,631,l),
(151,540,l),
(60,540,l)
);
},
{
closed = 1;
nodes = (
(263,691,l),
(318,691,l),
(318,737,l),
(363,737,l),
(363,782,l),
(407,782,l),
(407,837,l),
(353,837,l),
(353,792,l),
(308,792,l),
(308,746,l),
(263,746,l)
);
}
);
width = 586;
}
);
leftKerningGroup = _Cacute;
rightKerningGroup = _Cacute1;
unicode = 262;
},
{
glyphname = Ccaron;
leftMetricsKey = Cacute;
widthMetricsKey = Cacute;
layers = (
{
layerId = "2AAD9DA5-3897-4AC6-A4F9-A78ECEDC2410";
name = img;
width = 603;
},
{
layerId = "50F7179F-C30E-4DB1-9C2F-C70FE433AA29";
shapes = (
{
closed = 1;
nodes = (
(61,74,l),
(149,74,l),
(149,-11,l),
(453,-11,l),
(453,74,l),
(542,74,l),
(542,297,l),
(414,297,l),
(414,125,l),
(188,125,l),
(188,501,l),
(414,501,l),
(414,331,l),
(542,331,l),
(542,552,l),
(453,552,l),
(453,638,l),
(149,638,l),
(149,552,l),
(61,552,l)
);
},
{
closed = 1;
nodes = (
(167,697,l),
(211,697,l),
(211,654,l),
(391,655,l),
(391,697,l),
(435,697,l),
(435,791,l),
(352,791,l),
(352,747,l),
(250,747,l),
(250,790,l),
(167,791,l)
);
}
);
width = 603;
},
{
layerId = "1F4A5B8F-71A6-4186-92A0-28F5C6507669";
shapes = (
{
closed = 1;
nodes = (
(60,78,l),
(151,78,l),
(151,-12,l),
(433,-12,l),
(433,78,l),
(525,78,l),
(525,270,l),
(423,270,l),
(423,88,l),
(161,88,l),
(161,530,l),
(423,530,l),
(423,350,l),
(525,350,l),
(525,540,l),
(433,540,l),
(433,631,l),
(151,631,l),
(151,540,l),
(60,540,l)
);
},
{
closed = 1;
nodes = (
(169,738,l),
(215,738,l),
(215,692,l),
(370,693,l),
(370,738,l),
(415,738,l),
(415,793,l),
(360,793,l),
(360,747,l),
(225,747,l),
(225,792,l),
(169,793,l)
);
}
);
width = 586;
}
);
leftKerningGroup = _Cacute;
rightKerningGroup = _Cacute1;
unicode = 268;
},
{
glyphname = Ccircumflex;
layers = (
{
layerId = "2AAD9DA5-3897-4AC6-A4F9-A78ECEDC2410";
name = img;
width = 603;
},
{
layerId = "50F7179F-C30E-4DB1-9C2F-C70FE433AA29";
shapes = (
{
closed = 1;
nodes = (
(61,74,l),
(149,74,l),
(149,-11,l),
(453,-11,l),
(453,74,l),
(542,74,l),
(542,297,l),
(414,297,l),
(414,125,l),
(188,125,l),
(188,501,l),
(414,501,l),
(414,331,l),
(542,331,l),
(542,552,l),
(453,552,l),
(453,638,l),
(149,638,l),
(149,552,l),
(61,552,l)
);
},
{
closed = 1;
nodes = (
(167,654,l),
(250,654,l),
(250,697,l),
(352,697,l),
(352,655,l),
(435,654,l),
(435,747,l),
(391,747,l),
(391,791,l),
(211,790,l),
(211,747,l),
(167,747,l)
);
}
);
width = 603;
},
{
layerId = "1F4A5B8F-71A6-4186-92A0-28F5C6507669";
shapes = (
{
closed = 1;
nodes = (
(60,78,l),
(151,78,l),
(151,-12,l),
(433,-12,l),
(433,78,l),
(525,78,l),
(525,270,l),
(423,270,l),
(423,88,l),
(161,88,l),
(161,530,l),
(423,530,l),
(423,350,l),
(525,350,l),
(525,540,l),
(433,540,l),
(433,631,l),
(151,631,l),
(151,540,l),
(60,540,l)
);
},
{
closed = 1;
nodes = (
(169,692,l),
(225,692,l),
(225,738,l),
(360,738,l),
(360,693,l),
(415,692,l),
(415,747,l),
(370,747,l),
(370,793,l),
(215,792,l),
(215,747,l),
(169,747,l)
);
}
);
width = 586;
}
);
leftKerningGroup = _Ebreve;
unicode = 264;
},
{
glyphname = Cdotaccent;
leftMetricsKey = Cacute;
widthMetricsKey = Cacute;
layers = (
{
layerId = "2AAD9DA5-3897-4AC6-A4F9-A78ECEDC2410";
name = img;
width = 603;
},
{
layerId = "50F7179F-C30E-4DB1-9C2F-C70FE433AA29";
shapes = (
{
closed = 1;
nodes = (
(61,74,l),
(149,74,l),
(149,-11,l),
(453,-11,l),
(453,74,l),
(542,74,l),
(542,297,l),
(414,297,l),
(414,125,l),
(188,125,l),
(188,501,l),
(414,501,l),
(414,331,l),
(542,331,l),
(542,552,l),
(453,552,l),
(453,638,l),
(149,638,l),
(149,552,l),
(61,552,l)
);
},
{
closed = 1;
nodes = (
(237,654,l),
(365,654,l),
(365,791,l),
(237,791,l)
);
}
);
width = 603;
},
{
layerId = "1F4A5B8F-71A6-4186-92A0-28F5C6507669";
shapes = (
{
closed = 1;
nodes = (
(60,78,l),
(151,78,l),
(151,-12,l),
(433,-12,l),
(433,78,l),
(525,78,l),
(525,270,l),
(423,270,l),
(423,88,l),
(161,88,l),
(161,530,l),
(423,530,l),
(423,350,l),
(525,350,l),
(525,540,l),
(433,540,l),
(433,631,l),
(151,631,l),
(151,540,l),
(60,540,l)
);
},
{
closed = 1;
nodes = (
(241,692,l),
(343,692,l),
(343,793,l),
(241,793,l)
);
}
);
width = 586;
}
);
leftKerningGroup = _Cacute;
rightKerningGroup = _Cacute1;
unicode = 266;
},
{
glyphname = Dcaron;
layers = (
{
layerId = "2AAD9DA5-3897-4AC6-A4F9-A78ECEDC2410";
name = img;
width = 603;
},
{
layerId = "50F7179F-C30E-4DB1-9C2F-C70FE433AA29";
shapes = (
{
closed = 1;
nodes = (
(211,654,l),
(391,654,l),
(391,697,l),
(435,697,l),
(435,791,l),
(352,791,l),
(352,747,l),
(250,747,l),
(250,791,l),
(167,791,l),
(167,697,l),
(211,697,l)
);
},
{
closed = 1;
nodes = (
(61,-11,l),
(365,-11,l),
(365,74,l),
(453,74,l),
(453,160,l),
(542,160,l),
(542,467,l),
(453,467,l),
(453,552,l),
(365,552,l),
(365,638,l),
(61,638,l)
);
},
{
closed = 1;
nodes = (
(188,125,l),
(188,501,l),
(326,501,l),
(326,416,l),
(414,416,l),
(414,211,l),
(326,211,l),
(326,125,l)
);
}
);
width = 603;
},
{
layerId = "1F4A5B8F-71A6-4186-92A0-28F5C6507669";
shapes = (
{
closed = 1;
nodes = (
(215,692,l),
(370,692,l),
(370,738,l),
(415,738,l),
(415,793,l),
(360,793,l),
(360,747,l),
(225,747,l),
(225,793,l),
(169,793,l),
(169,738,l),
(215,738,l)
);
},
{
closed = 1;
nodes = (
(60,-12,l),
(343,-12,l),
(343,78,l),
(433,78,l),
(433,169,l),
(525,169,l),
(525,450,l),
(433,450,l),
(433,540,l),
(343,540,l),
(343,631,l),
(60,631,l)
);
},
{
closed = 1;
nodes = (
(161,88,l),
(161,530,l),
(333,530,l),
(333,440,l),
(423,440,l),
(423,179,l),
(333,179,l),
(333,88,l)
);
}
);
width = 586;
}
);
leftKerningGroup = _Dcaron;
unicode = 270;
},
